<svg xmlns="http://www.w3.org/2000/svg" viewBox="0 0 113.8 122.9"><path d="M46.5 12.6c11.8 0 30.3.1 42.1.1 1.3 0 2.6.1 3.9.4 1.2.2 2.4.6 3.6 1.1 1.1.5 2.2 1.1 3.3 1.8 1 .7 2 1.5 2.9 2.4.9.9 1.7 1.9 2.4 2.9s1.3 2.1 1.8 3.3c.5 1.1.8 2.3 1.1 3.6.2 1.3.4 2.5.4 3.9v39.1c0 1.3-.1 2.6-.4 3.9-.2 1.3-.6 2.4-1.1 3.6-.5 1.1-1.1 2.2-1.8 3.3-.7 1-1.5 2-2.4 2.9-1 .9-2 1.8-3 2.4-1 .7-2.1 1.3-3.2 1.8s-2.3.8-3.5 1.1c-1.2.2-2.5.4-3.9.4H73.8c-.5 0-.9.1-1.3.3-.4.2-.7.5-1 .8-1.2 1.5-2.4 3-3.7 4.5-1.3 1.4-2.6 2.8-4.1 4.1-1.4 1.3-2.9 2.5-4.4 3.7-1.5 1.2-3.1 2.3-4.7 3.4-1.5 1-3.2 2-4.9 2.9-1.7.9-3.4 1.7-5.1 2.5-.2.1-.4.1-.6 0-.3-.2-.4-.6-.3-.9.3-.6.6-1.1.9-1.7.3-.5.6-1.1.8-1.7.5-1.1 1-2.2 1.4-3.4.5-1.2.9-2.4 1.3-3.6.4-1.1.8-2.3 1.1-3.5.4-1.2.7-2.4 1-3.6.1-.4.2-.7.2-1.1 0-.8-.3-1.5-.9-2.1-.5-.5-1.3-.9-2.1-.9h-17c-1.3 0-2.6-.1-3.9-.4-1.2-.2-2.4-.6-3.5-1s-2.2-1-3.2-1.7c-1.1-.7-2.1-1.6-3.1-2.5-.9-.9-1.7-1.9-2.4-2.9s-1.3-2.1-1.8-3.3c-.5-1.1-.8-2.3-1.1-3.6-.2-1.3-.4-2.5-.4-3.9V46.3c0-4-5.2-4-6-1.2V71c0 1.7.2 3.4.5 5s.8 3.2 1.4 4.7c.6 1.5 1.4 2.9 2.3 4.3.9 1.4 2 2.7 3.2 3.9 1.2 1.2 2.5 2.3 3.9 3.2 1.3.9 2.8 1.7 4.3 2.3 1.5.6 3.1 1.1 4.7 1.4 1.6.3 3.3.5 5 .5h12.5c.4.1.6.5.4.9-.2.8-.5 1.5-.7 2.3l-1.2 3.3c-.4 1-.9 2.1-1.3 3.1v.2c-.4 1-.9 2-1.5 3s-1.2 1.9-2 2.9c-.7.9-1.6 1.9-2.5 2.9-.9 1-1.9 1.9-3 2.9-.6.6-.9 1.3-1 2.1 0 .8.2 1.5.8 2.1.4.4.9.7 1.4.9.5.2 1.1.2 1.6 0 2.2-.6 4.4-1.3 6.6-2 2.1-.7 4.2-1.5 6.2-2.4 2-.9 4-1.8 5.9-2.8 1.9-1 3.7-2.1 5.5-3.3 1.8-1.1 3.5-2.4 5.1-3.7 1.7-1.3 3.2-2.7 4.8-4.1 1.3-1.2 2.5-2.5 3.7-3.8 1.2-1.3 2.4-2.7 3.5-4.1.1-.2.3-.3.6-.3h13c1.7 0 3.4-.2 5-.5s3.2-.8 4.7-1.4c1.5-.6 2.9-1.4 4.3-2.3 1.4-.9 2.7-2 3.9-3.2 1.2-1.2 2.3-2.5 3.2-3.9.9-1.4 1.7-2.8 2.3-4.3.6-1.5 1.1-3.1 1.4-4.7.3-1.6.5-3.3.5-5V31.9c0-1.7-.2-3.4-.5-5s-.8-3.2-1.4-4.7c-.6-1.5-1.4-2.9-2.3-4.3-.9-1.4-2-2.7-3.2-3.9-1.2-1.2-2.5-2.3-3.9-3.2-1.3-.9-2.8-1.7-4.3-2.3-1.5-.6-3.1-1.1-4.7-1.4-1.6-.3-3.3-.5-5-.5-12.3 0-31.2-.1-43.5-.1-3 .9-3.2 6.1 1.3 6.1zM24.3 39.2L30 41c1.9.6 3.8 1.3 5.7 1.9 4.5 1.4 7 2.3 7.5 2.4.5.1.2-1.9-.9-6.3l-3.6-13.7-.3-.3-14.1 14.2zm8.9-19.5L14.9.5c-.6-.5-1.2-.7-1.9-.3L.4 12.4c-.5.6-.6 1.3.1 2l18.6 19.5 14.1-14.2zm8.9 53.2c-1.6 0-2.8-1.2-2.9-2.8 0-1.6 1.2-2.8 2.8-2.9l25-.4 5.7-.4a2.808 2.808 0 0 1 .4 5.6l-5.7.4s-22.8.4-25.3.5zM51 55.1c-1.6 0-2.8-1.3-2.8-2.8 0-1.6 1.3-2.8 2.8-2.8h35.6c1.6 0 2.8 1.3 2.8 2.8 0 1.6-1.3 2.8-2.8 2.8H51zm12.6-16.9c-1.6 0-2.8-1.3-2.8-2.8s1.3-2.8 2.8-2.8h23c1.6 0 2.8 1.3 2.8 2.8 0 1.6-1.3 2.8-2.8 2.8h-23z"/></svg>