<svg class="ico ico-book-tutor" xmlns="http://www.w3.org/2000/svg" width="23" height="30" viewBox="0 0 23 30"><g fill="none" stroke="currentColor" stroke-linecap="round" stroke-linejoin="round"><path d="M22.5 8.5c-1.63-1.63-1.65-6.35 0-8H3.58a3 3 0 0 0-3.08 3v2a2.9 2.9 0 0 0 3 3h19v21h-19a2.9 2.9 0 0 1-3-3v-21m3-1H21" vector-effect="non-scaling-stroke"/><path d="M16.5 24.5c0-2.79-1.27-6-5-6s-5 3.21-5 6z" vector-effect="non-scaling-stroke"/><path d="M14.5 15.5a3 3 0 1 1-3-3 3 3 0 0 1 3 3z" vector-effect="non-scaling-stroke"/></g></svg>