<svg class="ico ico-car" xmlns="http://www.w3.org/2000/svg" width="30" height="15" viewBox="0 0 30 15.02"><g fill="none" stroke="currentColor" stroke-linecap="round" stroke-linejoin="round"><path d="M26.5 12.5c1.31 0 3-.91 3-2.5s-.74-4.5-3-4.5h-1a2.91 2.91 0 0 1-1.69-.43l-5-4A2.51 2.51 0 0 0 17.27.5H8.15a2.51 2.51 0 0 0-2.1 1.13L5 3.26a2.35 2.35 0 0 1-2 1.06A2.53 2.53 0 0 0 .5 6.86V10A2.53 2.53 0 0 0 3 12.55h.48M8.63 12H21.5" vector-effect="non-scaling-stroke"/><path vector-effect="non-scaling-stroke" d="M14.5 2.5v3h6m-12-3l-2 3h5m4 2.5h1m10.02 4A2.52 2.52 0 1 1 24 9.48 2.52 2.52 0 0 1 26.52 12zM8.5 12A2.5 2.5 0 1 1 6 9.5 2.5 2.5 0 0 1 8.5 12z"/></g></svg>