<svg class="ico ico-driving-sign" xmlns="http://www.w3.org/2000/svg" width="57" height="28" viewBox="0 0 56.5 28"><path vector-effect="non-scaling-stroke" d="M.5 27v.5H56V27M.5 16.13v-.63H56v1m-38.25-1l8-12m5-.5l8 12.5m-8-12.5a2.5 2.5 0 1 1-2.5-2.5 2.5 2.5 0 0 1 2.5 2.5zM14.5 25.5v-8l4 8v-8m4 8v-8l4 8v-8m8 6a2 2 0 0 0 1.87 2 2.11 2.11 0 0 0 2.13-2c0-1.63-1.77-1.9-2.12-2a2.08 2.08 0 0 1-1.88-2 1.9 1.9 0 0 1 1.88-2 2.24 2.24 0 0 1 2.12 2m-18-2v8m20 0v-8m3 0l-3 4 3 4m-12.25-3h1.25v1a2 2 0 0 1-4 0v-4.25a1.88 1.88 0 0 1 2-1.75 2 2 0 0 1 2 1.88V20M13 17.5l-3 8-3-8m-3.5 2a1.88 1.88 0 0 1 2 1.75v2.25a2.1 2.1 0 0 1-2 2 2 2 0 0 1-2-1.87v-2.25a2 2 0 0 1 2-1.88zm-1.5-2h.5m2 0H5m42 2a1.88 1.88 0 0 1 2 1.75v2.25a2.1 2.1 0 0 1-2 2 2 2 0 0 1-2-1.87v-2.25a2 2 0 0 1 2-1.88zm-1.5-2h.5m2 0h.5m2.5 8v-8h2a2 2 0 0 1 0 4h-2m4 4l-4-4" fill="none" stroke="currentColor" stroke-linecap="round" stroke-linejoin="round"/></svg>