<svg width="141" height="44" viewBox="0 0 141 44" fill="none" xmlns="http://www.w3.org/2000/svg"><path d="M7.091 8.964V1.4c5.619 0 9.905 2.702 12.462 4.863L7.091 8.964z" fill="#fff"/><path fill-rule="evenodd" clip-rule="evenodd" d="M6.19 1.4a.9.9 0 0 1 .901-.9c5.916 0 10.402 2.843 13.043 5.075a.9.9 0 0 1-.39 1.568L7.282 9.844a.9.9 0 0 1-1.091-.88V1.4zm1.802.925v5.523l9.486-2.057c-2.32-1.647-5.538-3.25-9.486-3.466z" fill="#DB6351"/><path d="M36.914 8.964V1.4c-5.62 0-9.905 2.702-12.463 4.863l12.463 2.701z" fill="#fff"/><path fill-rule="evenodd" clip-rule="evenodd" d="M23.87 5.575C26.511 3.343 30.998.5 36.914.5a.9.9 0 0 1 .9.9v7.564a.9.9 0 0 1-1.091.88L24.26 7.143a.9.9 0 0 1-.39-1.568zm2.657.216l9.486 2.057V2.325c-3.949.216-7.166 1.819-9.486 3.466z" fill="#DB6351"/><path d="M40.371 18.869v24.095H4.03V18.87h36.34zM1.401 8.964h41.564v5.655H1.4V8.964z" fill="#fff"/><path fill-rule="evenodd" clip-rule="evenodd" d="M.5 8.063h43.365v7.456H.5V8.063zm1.8 1.801v3.854h39.764V9.864H2.301zm.83 8.104h38.142v25.897H3.129V17.968zm1.8 1.801v22.295h34.54V19.769H4.93z" fill="#DB6351"/><path d="M25.965 18.4v24.565H18.4V18.4h7.564zM18.4 8.965a3.781 3.781 0 1 1 7.564 0H18.4zm0 5.655h7.564V8.964H18.4v5.655z" fill="#fff"/><path fill-rule="evenodd" clip-rule="evenodd" d="M19.301 9.864h5.763v3.854H19.3V9.864zm7.564-.9v5.655a.9.9 0 0 1-.9.9H18.4a.9.9 0 0 1-.9-.9V8.964a4.682 4.682 0 1 1 9.364 0zm-1.944-.9h-5.476a2.882 2.882 0 0 1 5.476 0zM17.5 18.4a.9.9 0 0 1 .9-.9h7.563a.9.9 0 0 1 .9.9v24.564a.9.9 0 0 1-.9.9H18.4a.9.9 0 0 1-.9-.9V18.4zm1.8.9v22.763h5.763V19.301H19.3z" fill="#DB6351"/><path d="M121.483 30.719v10.265c0 .792-.072.9-.901.9h-2.845c-.756 0-.828-.072-.828-.828v-9.941c0-.54-.072-1.117-.181-1.657-.108-.756-.72-1.296-1.476-1.369a5.358 5.358 0 0 0-3.818.937c-.144.072-.216.432-.216.684v11.562c0 .504-.216.684-.685.684h-3.097c-.612 0-.756-.18-.756-.792V25.28c0-.54.18-.72.72-.72h2.845c.613 0 .721.108.721.72v.828l.684-.432a8.036 8.036 0 0 1 6.087-1.188 4.166 4.166 0 0 1 3.458 3.53c.18.828.288 1.764.288 2.7zm18.801-7.42l-.216.576c0 .144-.072.288-.144.433 0-.145 0-.253-.108-.433l-.216-.576h-.217v1.189h.145v-1.08c0 .143.072.287.144.467l.18.577h.108l.216-.577.144-.468v1.08h.18l-.072-1.224-.144.036zM92.417 29.53c.072 3.89.072 7.744.108 11.634 0 .504-.18.684-.72.684H89.03c-.756 0-.864-.072-.9-.864v-.325c-.505.289-.973.577-1.477.793-1.585.756-3.386.9-5.043.36a3.927 3.927 0 0 1-2.845-3.061 7.511 7.511 0 0 1 0-3.35c.324-1.585 1.549-2.845 3.133-3.17 1.585-.432 3.206-.576 4.827-.504 1.152 0 1.152 0 1.152-1.188a3.756 3.756 0 0 0 0-.9c-.144-.901-.936-1.55-1.837-1.477-1.764 0-3.53.072-5.258.18-.864 0-.972 0-.972-.865V25.64a.593.593 0 0 1 .432-.648c2.665-.72 5.51-.829 8.212-.288 2.305.396 3.998 2.449 3.962 4.826zm-4.466 7.888a6.955 6.955 0 0 1 0-1.225V34.61c0-.145-.18-.36-.289-.36-1.044 0-2.125 0-3.17.18a1.583 1.583 0 0 0-1.26 1.188 6.368 6.368 0 0 0-.18 1.837c.072.648.576 1.152 1.225 1.188 1.044.144 2.089 0 3.061-.432.432 0 .684-.396.613-.792zm49.704-6.915v10.553c0 .684-.072.792-.793.792h-2.629c-.756 0-.792 0-.828-.792v-.252l-.072-.145a1.069 1.069 0 0 0-.289.145c-1.152.828-2.557 1.296-3.998 1.368-2.521.324-4.79-1.44-5.15-3.962-.036-.18-.036-.324-.036-.504a10.479 10.479 0 0 1 0-2.125 3.765 3.765 0 0 1 2.845-3.206c1.261-.324 2.522-.576 3.782-.684a22.36 22.36 0 0 1 2.197 0c.324 0 .468-.072.432-.432a10.11 10.11 0 0 0 0-1.477c-.036-.972-.9-1.765-1.873-1.693h-.036c-1.764 0-3.493.073-5.222.18-.864 0-1.009 0-1.009-.936v-1.657c-.036-.396.253-.756.613-.792 2.017-.468 4.07-.684 6.123-.576.864.072 1.729.252 2.557.504a4.805 4.805 0 0 1 3.35 4.142c.108.54.072 1.044.036 1.549zm-4.431 7.059v-2.845c0-.505-.108-.505-.468-.505h-1.909c-2.161.18-2.521.973-2.557 2.702-.144.792.396 1.584 1.189 1.728h.108a6.063 6.063 0 0 0 3.277-.504c.18-.072.324-.324.36-.576zm-57.808-19.09h-2.953c-.756 0-.792.073-.792.83v21.826c0 .612.108.72.72.72h2.953c.9 0 1.009-.072 1.009-.972v-21.61c-.108-.65-.216-.793-.937-.793zm62.923 4.935h.36v1.08h.144v-1.08h.36v-.144h-.9l.036.144zm-34.253.865a6.236 6.236 0 0 0-3.601 1.26l-.505.36v-.54c0-.72-.144-.864-.864-.864h-2.701c-.829 0-.973.144-.973.972v15.488c0 .756.18.936.9.936h2.882c.792 0 .9-.108.9-.936V29.674c-.036-.324.144-.612.433-.756a7.77 7.77 0 0 1 3.565-.865c.469 0 .685-.144.685-.648V24.92c-.072-.504-.288-.648-.721-.648zm-47.975-5.8h-2.665a1.34 1.34 0 0 0-1.477 1.19v21.394c0 .612.072.72.684.72h2.774c.684.108 1.368-.324 1.476-1.009a1.025 1.025 0 0 0 0-.468V19.265c-.072-.648-.18-.792-.792-.792zm10.085 15.956a10.721 10.721 0 0 0-7.023-3.421c-.829 0-.865 0-.829.612 0 .252.036.468.072.72a11.078 11.078 0 0 0 10.121 9.509c.612 0 .72 0 .648-.576a10.813 10.813 0 0 0-2.99-6.843zm2.413-15.955h-.684c-5.187.756-9.149 5.006-9.545 10.265 0 .648 0 .648.684.72.937-.18 1.873-.432 2.774-.72a11.045 11.045 0 0 0 7.42-9.653c.035-.612-.037-.612-.649-.612z" fill="#fff"/></svg>