<svg width="80" height="22" viewBox="0 0 361 113" xmlns="http://www.w3.org/2000/svg"><rect id="backgroundrect" width="100%" height="100%" fill="none"/><style>.st0{fill:none;stroke:#db6351;stroke-width:3;stroke-linecap:round;stroke-linejoin:round}</style><g class="currentLayer"><title>Layer 1</title><g id="svg_1"><path class="st0" d="M14.9 21.522v-19.9c14.8 0 26.1 7.1 32.8 12.8m46.7 7.1v-19.9c-1.2 0-2.3 0-3.4.1-13.1 1-23.2 7.4-29.3 12.6m40.7 33.3v63.3H6.8v-63.3M0 36.422h109.3v-14.9H0v14.9z" id="svg_2"/><path class="st0" d="M64.6 46.322v64.6H44.7v-64.6m0-24.8c0-5.5 4.5-9.9 9.9-9.9 5.5 0 9.9 4.4 9.9 9.9m-19.8 14.9h19.9v-14.9H44.7v14.9z" id="svg_3"/></g><path d="M311.1 77.1v27c0 2.1-.2 2.3-2.4 2.3h-7.5c-1.9 0-2.2-.2-2.2-2.1V78.1c0-1.5-.2-2.9-.5-4.3-.3-2-1.9-3.4-3.9-3.6-3.5-.5-7.1.4-10 2.5-.4.2-.6 1.2-.6 1.8v30.3c0 1.3-.5 1.8-1.8 1.8h-8.1c-1.6 0-2-.5-2-2.1V62.6c0-1.4.4-1.9 1.9-1.9h7.5c1.6 0 1.9.3 1.9 1.9v2.1l1.8-1.1c4.7-3.2 10.4-4.3 16-3.1 4.8.7 8.5 4.5 9.1 9.3.5 2.4.7 4.9.8 7.3zm49.4-19.5l-.6 1.6c0 .4-.2.7-.4 1.1 0-.4 0-.7-.3-1.1l-.5-1.6h-.6v3.2h.4V58c0 .4.2.8.4 1.2l.5 1.5h.3l.6-1.6.4-1.2v2.8h.4l-.2-3.2-.4.1zM234.7 74c.2 10.2.2 20.4.3 30.6 0 1.4-.5 1.8-1.9 1.8h-7.3c-2 0-2.3-.2-2.4-2.3v-.9c-1.4.7-2.5 1.5-3.9 2.1-4.1 2-8.9 2.3-13.2.9-3.8-1-6.8-4.2-7.5-8.1-.6-2.9-.6-5.9 0-8.8.8-4.2 4.1-7.5 8.3-8.4 4.1-1.1 8.4-1.6 12.7-1.4 3 0 3 0 3-3.1.1-.8.1-1.6 0-2.4-.4-2.4-2.5-4.1-4.9-3.9-4.6 0-9.2.2-13.8.5-2.3 0-2.6 0-2.6-2.3v-4.8c-.1-.8.4-1.5 1.2-1.7 7.1-1.9 14.5-2.2 21.6-.8 6 1.4 10.4 6.8 10.4 13zM223 94.7c-.1-1.1-.1-2.1 0-3.2v-4.2c0-.4-.5-.9-.7-.9-2.8 0-5.6 0-8.3.5-1.7.2-3 1.5-3.3 3.2-.4 1.6-.6 3.2-.5 4.9.2 1.7 1.5 3 3.2 3.1 2.7.4 5.5 0 8.1-1.1.9-.2 1.6-1.2 1.5-2.3zm130.6-18.1v27.8c0 1.8-.2 2.1-2.1 2.1h-6.9c-2 0-2.1 0-2.2-2.1v-.7l-.2-.4c-.3.1-.5.2-.7.4-3.1 2.2-6.7 3.4-10.5 3.6-6.6.9-12.6-3.8-13.5-10.4-.1-.4-.1-.9-.1-1.3-.2-1.9-.2-3.7 0-5.6.5-4.1 3.5-7.5 7.5-8.5 3.3-.9 6.6-1.5 10-1.8 1.9-.1 3.8-.1 5.8 0 .8 0 1.2-.2 1.2-1.1.1-1.3.1-2.6 0-3.9-.1-2.6-2.4-4.6-5-4.5h-.1c-4.6 0-9.2.2-13.7.5-2.3 0-2.6 0-2.6-2.5v-4.4c-.1-1 .6-2 1.7-2.1 5.3-1.3 10.7-1.8 16.1-1.5 2.3.2 4.6.6 6.7 1.4 4.9 1.5 8.4 5.8 8.8 10.9-.1 1.4-.1 2.7-.2 4.1zm-11.7 18.5v-7.5c0-1.3-.3-1.3-1.2-1.3h-5.1c-5.6.4-6.6 2.5-6.7 7.1-.4 2.1 1 4.1 3.1 4.5h.2c2.9.4 5.9-.1 8.6-1.4.7-.1 1.1-.7 1.1-1.4zM190 44.9h-7.8c-1.9 0-2.1.2-2.1 2.2v57.4c0 1.6.3 1.9 1.9 1.9h7.8c2.4 0 2.6-.2 2.6-2.6V47.1c-.2-1.8-.6-2.2-2.4-2.2zm165.3 13h1v2.9h.4v-2.9h1v-.4h-2.4v.4zm-90 2.3c-3.4.1-6.7 1.3-9.4 3.3l-1.3 1v-1.4c0-1.9-.4-2.3-2.3-2.3h-7.1c-2.2 0-2.6.4-2.6 2.5V104c0 1.9.4 2.4 2.3 2.4h7.6c2.1 0 2.4-.3 2.4-2.4V74.4c-.1-.8.4-1.6 1.2-1.9 2.9-1.5 6.1-2.3 9.4-2.3 1.2 0 1.8-.4 1.8-1.7V62c-.3-1.5-.8-1.9-2-1.8zm-126-15.3h-7.1c-1.9-.2-3.7 1.2-3.9 3.2v56.2c0 1.6.2 1.9 1.8 1.9h7.2c1.8.3 3.6-.9 3.9-2.7.1-.4.1-.8 0-1.2V47c0-1.7-.3-2.1-1.9-2.1zm26.5 41.9c-4.8-5.2-11.4-8.4-18.4-9-2.2 0-2.3 0-2.2 1.6 0 .6.1 1.3.2 1.9 1.9 13.5 13 23.9 26.6 25 1.6 0 1.9 0 1.7-1.5-.5-6.7-3.3-13.1-7.9-18zm6.3-41.9h-1.8c-13.6 2-24.1 13.2-25 27 0 1.7 0 1.7 1.8 1.9 2.5-.5 4.9-1.1 7.3-1.9 11-3.8 18.7-13.8 19.5-25.4 0-1.6-.2-1.6-1.8-1.6z" id="svg_4"/></g></svg>