<svg class="ico ico-glasses" xmlns="http://www.w3.org/2000/svg" width="30" height="19" viewBox="0 0 30 19"><g fill="none" stroke="currentColor" stroke-linecap="round" stroke-linejoin="round"><path d="M.5 13.5l6.24-12a2.15 2.15 0 0 1 3.73.2l1.28 2.56M16.5 14.5c0-.55-.09-1-1.5-1s-1.5.45-1.5 1m16-1L23 1.49a2.15 2.15 0 0 0-3.73.2L18 4.25M3 13.5H.5m26 0h3" vector-effect="non-scaling-stroke"/><path d="M13.5 13.5a5 5 0 1 1-5-5 5 5 0 0 1 5 5zm13 0a5 5 0 1 1-5-5 5 5 0 0 1 5 5z" vector-effect="non-scaling-stroke"/></g></svg>