<svg class="klarna-logo-tagline" xmlns="http://www.w3.org/2000/svg" width="827" height="78" viewBox="0 0 826.61 77.7"><path d="M294.13 65.26a64.87 64.87 0 0 1-10.82-.92c-1.11-.19-1.24-.45-1.24-1.17v-2.61a1 1 0 0 1 1-1h.34c3 .26 7.75.39 10.75.39 7.82 0 9.9-3.13 9.9-7.69 0-3.26-1.89-5.08-7.82-8.73l-6.32-3.84c-6-3.65-9-7-9-12.19 0-7.89 5.67-11.54 15.58-11.54a88 88 0 0 1 11.34.78 1.14 1.14 0 0 1 1.11 1.11v2.8a1 1 0 0 1-1 1h-.27c-2.87-.19-7.43-.39-11.21-.39-6.71 0-9.58 1.43-9.58 6.19 0 3.06 2.15 4.89 7.1 7.88l6 3.59c7.56 4.49 10.23 8.08 10.23 13.29.01 6.27-3.22 13.05-16.09 13.05zm64.99-.46H356a1.3 1.3 0 0 1-1.3-1.3V40.42c0-5.47-2.54-7-5.93-7a22.62 22.62 0 0 0-7.63 1.76 19.41 19.41 0 0 1 .59 5.09v23.2a1.24 1.24 0 0 1-1.17 1.3h-3.46a1.19 1.19 0 0 1-1.1-1.24V40.3c0-5.67-1.63-6.85-5-6.85-2.35 0-5.21 1.17-7.95 2.54v27.5a1.24 1.24 0 0 1-1.17 1.3h-3.46a1.19 1.19 0 0 1-1.11-1.27V30.26a1.25 1.25 0 0 1 1.2-1.3h3.3a1.26 1.26 0 0 1 1.19 1.26v1.28a18.34 18.34 0 0 1 9.51-3.06A7.94 7.94 0 0 1 339 31.1a26.2 26.2 0 0 1 10.82-2.67c5.86 0 10.56 2.93 10.56 12v23.06a1.31 1.31 0 0 1-1.26 1.31zm23.26.46c-9.58 0-14.47-6.32-14.47-15.9v-5c0-9.58 4.89-15.9 14.47-15.9s14.54 6.32 14.54 15.9v5c-.01 9.57-4.92 15.9-14.54 15.9zm8.8-20.85c0-6.65-2.67-10.89-8.8-10.89s-8.73 4.17-8.73 10.89v5c0 6.64 2.6 10.88 8.73 10.88s8.8-4.17 8.8-10.88zm26.62 20.85c-9.58 0-14.47-6.32-14.47-15.9v-5c0-9.58 4.89-15.9 14.47-15.9s14.53 6.32 14.53 15.9v5c.01 9.57-4.95 15.9-14.53 15.9zm8.8-20.85c0-6.65-2.67-10.89-8.8-10.89s-8.73 4.17-8.73 10.89v5c0 6.64 2.6 10.88 8.73 10.88s8.8-4.17 8.8-10.88zm26.62 20.85c-9.58 0-14.47-6.32-14.47-15.9v-5c0-9.58 4.89-15.9 14.47-15.9s14.53 6.32 14.53 15.9v5c.01 9.57-4.94 15.9-14.53 15.9zM462 44.4c0-6.65-2.67-10.89-8.8-10.89s-8.73 4.17-8.73 10.89v5c0 6.64 2.6 10.88 8.73 10.88s8.8-4.17 8.8-10.88zm30.45 20.53a31.49 31.49 0 0 1-4.23.33c-6 0-8.87-1.57-8.87-8.73V33.78l-6.35-.72a1.18 1.18 0 0 1-1.24-1.12v-1.81a1.15 1.15 0 0 1 1.12-1.18h6.44v-6.38a1.32 1.32 0 0 1 1.17-1.3l3.39-.52h.19a1 1 0 0 1 1 1.09V29h7a1.31 1.31 0 0 1 1.3 1.3v2.22a1.31 1.31 0 0 1-1.3 1.3h-7v22.7c0 3.58.92 4.11 3.52 4.11h3.65c.91 0 1.37.26 1.37.91v2.28a1.11 1.11 0 0 1-1.11 1.11zm34.29-.13h-3.13a1.3 1.3 0 0 1-1.3-1.3V42.05c0-6.52-2.74-8.54-7-8.54a25.39 25.39 0 0 0-9 1.82v28.16a1.35 1.35 0 0 1-1.3 1.3h-3.19a1.29 1.29 0 0 1-1.24-1.3v-46.4a1.25 1.25 0 0 1 1.2-1.3h3.29a1.25 1.25 0 0 1 1.24 1.27v13.46a27.22 27.22 0 0 1 10-2c6.91 0 11.73 4 11.73 13.56v21.41a1.3 1.3 0 0 1-1.3 1.31zm39.31-19.29c-2.09 0-4.82-.19-6.51-.32v18.3a1.24 1.24 0 0 1-1.17 1.3h-3.52a1.24 1.24 0 0 1-1.18-1.3V18.07a1.6 1.6 0 0 1 1.57-1.63 105.37 105.37 0 0 1 10.82-.52c10.56 0 18.25 3.65 18.25 14.14v.85c-.01 10.88-7.7 14.6-18.26 14.6zm12.32-15.44c0-6.58-3.91-9.12-12.32-9.12-2 0-4.95.13-6.51.26V40.3c1.5.06 4.82.26 6.51.26 8.93 0 12.32-2.87 12.32-9.65zm33.5 34.73h-3a1.31 1.31 0 0 1-1.3-1.3v-1.44c-3.13 1.82-6.38 3.19-10 3.19-5.54 0-10.62-2.41-10.62-10.56v-.78c0-7 4.11-10.55 15.71-10.55h4.83v-2.61c0-5.48-1.89-7.36-7-7.36a73.42 73.42 0 0 0-8.84.48h-.33a1 1 0 0 1-1.17-1v-2.33a1.27 1.27 0 0 1 1.3-1.24h.07a43.37 43.37 0 0 1 9-.8c9.06 0 12.71 4.56 12.71 12.25v22.74a1.31 1.31 0 0 1-1.36 1.31zm-4.43-17.33h-4.83c-7.89 0-10 1.76-10 6.38v.78c0 4.69 2.22 5.93 6 5.93a18 18 0 0 0 8.8-2.6v-10.5zm41-16.95l-10.75 37.54c-2 7-4.43 9.65-11.92 9.65a27 27 0 0 1-5.48-.59c-.78-.2-1.37-.39-1.37-1v-2.46a1.06 1.06 0 0 1 1-1.06h.39c1.44.13 4.37.39 5.8.39 3.72 0 5.35-1 6.46-5.54l.65-2.67h-.91c-2 0-3.65-.46-4.83-4.5l-8.67-29.78A1.17 1.17 0 0 1 620 29h3.58a1.32 1.32 0 0 1 1.11 1l7.69 28.28c.32 1.3.78 1.44 1.24 1.44h1l7.95-29.79a1.33 1.33 0 0 1 1.24-1h3.65a1 1 0 0 1 1 1.11 1.11 1.11 0 0 1-.02.48zM697 64.8h-3.13a1.31 1.31 0 0 1-1.3-1.3V40.42c0-5.47-2.54-7-5.93-7a22.6 22.6 0 0 0-7.64 1.79 19.59 19.59 0 0 1 .58 5.09v23.2a1.24 1.24 0 0 1-1.17 1.3H675a1.19 1.19 0 0 1-1.11-1.27V40.3c0-5.67-1.63-6.85-5-6.85-2.34 0-5.21 1.17-8 2.54v27.5a1.24 1.24 0 0 1-1.17 1.3h-3.46a1.19 1.19 0 0 1-1.11-1.27V30.26a1.26 1.26 0 0 1 1.21-1.3h3.29a1.25 1.25 0 0 1 1.24 1.26v1.28a18.36 18.36 0 0 1 9.52-3.06 8 8 0 0 1 6.52 2.67 26.16 26.16 0 0 1 10.82-2.67c5.87 0 10.56 2.93 10.56 12v23.05A1.31 1.31 0 0 1 697 64.8zm36.46-16.1h-21.83v.92c0 7.75 3.06 10.62 9.06 10.62a88.93 88.93 0 0 0 11.6-.72h.33a.92.92 0 0 1 1 .91v2.22a1.31 1.31 0 0 1-1.1 1.49h-.2a59.24 59.24 0 0 1-11.67 1.11c-7.5 0-14.79-3.52-14.79-15.64v-5.86c0-9.32 5.15-15.25 14.47-15.25 9.52 0 14.34 6 14.34 15.25v3.52a1.26 1.26 0 0 1-1.07 1.42zm-4.56-5c0-7.36-2.8-10.23-8.54-10.23s-8.73 3.19-8.73 10.23v.59h17.27v-.59zm39.22 21.1H765a1.3 1.3 0 0 1-1.3-1.3V42.05c0-6.58-2.22-8.6-7.17-8.6a20.64 20.64 0 0 0-8.8 2.54v27.5a1.35 1.35 0 0 1-1.3 1.3h-3.19a1.29 1.29 0 0 1-1.24-1.3V30.26a1.26 1.26 0 0 1 1.21-1.3h3.29a1.26 1.26 0 0 1 1.24 1.27v1.27a19.65 19.65 0 0 1 10.37-3c7.82 0 11.34 4.89 11.34 13.56v21.43a1.3 1.3 0 0 1-1.33 1.31zm27.27.13a31.6 31.6 0 0 1-4.24.33c-6 0-8.87-1.57-8.87-8.73V33.78l-6.28-.72a1.18 1.18 0 0 1-1.24-1.13v-1.8a1.15 1.15 0 0 1 1.12-1.18h6.44v-6.38a1.33 1.33 0 0 1 1.18-1.3l3.39-.52h.2a1 1 0 0 1 1 1.09V29h7a1.31 1.31 0 0 1 1.3 1.3v2.22a1.31 1.31 0 0 1-1.3 1.3h-7v22.7c0 3.58.91 4.11 3.52 4.11h3.65c.92 0 1.37.26 1.37.91v2.28a1.11 1.11 0 0 1-1.11 1.11zm19.03.33a50.38 50.38 0 0 1-10.3-1 1.4 1.4 0 0 1-1.37-1.3v-2.27a1.05 1.05 0 0 1 1.12-1h.31c3.12.39 7.88.72 10.23.72 4.24 0 6.46-1.11 6.46-4.62 0-2-1.18-3.19-4.89-5.41l-6.58-3.91c-4-2.41-6.65-5.21-6.65-9.32 0-6.78 5.08-8.67 11.79-8.67a60.91 60.91 0 0 1 10.17.85 1.24 1.24 0 0 1 1.29 1.26v2.21a1 1 0 0 1-.87 1.11h-.43c-2.28-.2-6.45-.52-10.1-.52s-6.06.46-6.06 3.78c0 2 1.5 3.19 4.49 5l6.41 3.83c5.41 3.19 7.17 6 7.17 9.84 0 6.61-4.89 9.42-12.19 9.42zM66.32 0H55.86a1.41 1.41 0 0 0-1.41 1.32v62.21A1.49 1.49 0 0 0 55.86 65h10.46a1.35 1.35 0 0 0 1.24-1.42V1.33A1.26 1.26 0 0 0 66.38 0zm111.6 15.94a21.28 21.28 0 0 0-13.75 4.38l-.6.42V18a1.33 1.33 0 0 0-1.32-1.33h-9.59a1.34 1.34 0 0 0-1.34 1.33v45.53a1.5 1.5 0 0 0 1.42 1.47h10.36a1.42 1.42 0 0 0 1.35-1.42v-34l.2-.1c3.16-1.67 5.77-2.79 8.24-2.79 5.74 0 6.71 2.57 6.71 8.35v28.49a1.42 1.42 0 0 0 1.32 1.47h10.36a1.5 1.5 0 0 0 1.43-1.42V35c0-13.36-4.43-19.06-14.78-19.06zm54.24 4c-3.26-2.62-8.1-4-14.42-4A68.37 68.37 0 0 0 203 17.73a1.53 1.53 0 0 0-1.33 1.51v6.94a1 1 0 0 0 1.16 1.15h.43c2.54-.25 8.67-.6 14.22-.6 4.09 0 6.81 1.07 6.81 6.29v3.47h-5c-7.31 0-12.47 1.13-15.81 3.42s-4.89 5.76-4.89 10.68v.78c0 12.49 8.93 14.35 14.27 14.35a18.47 18.47 0 0 0 11.68-3.78l.61-.44v2.12a1.33 1.33 0 0 0 1.33 1.38h9.6a1.33 1.33 0 0 0 1.33-1.33V33c0-5.89-1.77-10.31-5.25-13.13zM224.57 54l-.23.11a16 16 0 0 1-7.2 1.92c-3.65 0-5.77-.76-5.77-4.66v-.78c0-4.83 2.14-6.64 7.92-6.64h5.28V54zM145 15.94a17.79 17.79 0 0 0-11.31 4l-.62.52V18a1.34 1.34 0 0 0-1.33-1.33h-10.22A1.33 1.33 0 0 0 120.2 18v45.53a1.49 1.49 0 0 0 1.41 1.47H132a1.42 1.42 0 0 0 1.34-1.42V29.8l.19-.1a23.2 23.2 0 0 1 11.23-3h.69a1.17 1.17 0 0 0 .9-1.25v-8.19a1.33 1.33 0 0 0-1.35-1.32zm-37.74 4c-3.25-2.62-8.11-4-14.42-4a68.27 68.27 0 0 0-14.73 1.78 1.54 1.54 0 0 0-1.34 1.51v6.94a1 1 0 0 0 1.16 1.15h.42c2.54-.25 8.67-.6 14.22-.6 4.08 0 6.82 1.07 6.82 6.29v3.47h-5c-7.29 0-12.47 1.13-15.81 3.42s-4.87 5.76-4.87 10.68v.78c0 12.49 8.93 14.35 14.27 14.35a18.46 18.46 0 0 0 11.69-3.78l.61-.44v2.12a1.33 1.33 0 0 0 1.29 1.39h9.6a1.34 1.34 0 0 0 1.33-1.34V33c0-5.89-1.78-10.31-5.25-13.13zM99.64 54l-.21.11A16 16 0 0 1 92.24 56c-3.67 0-5.78-.76-5.78-4.66v-.78c0-4.83 2.15-6.64 7.92-6.64h5.27V54zM17.7 30.56A30.93 30.93 0 0 0 48.25 0 30.93 30.93 0 0 0 17.7 30.56zM12.46 0H3.83A3.84 3.84 0 0 0 0 3.83v59.56a1.49 1.49 0 0 0 1.54 1.41h8.63A3.83 3.83 0 0 0 14 61V1.33A1.41 1.41 0 0 0 12.5 0zm5.24 34.39A30.92 30.92 0 0 0 48.25 65 30.92 30.92 0 0 0 17.7 34.39z" fill="currentColor"/></svg>