<svg class="ico ico-map-marker" xmlns="http://www.w3.org/2000/svg" width="17" height="24" viewBox="0 0 17 24"><g fill="none" stroke="currentColor" stroke-linecap="round" stroke-linejoin="round"><path d="M6.36 19.57C3 19.81.5 20.58.5 21.5c0 1.1 3.58 2 8 2s8-.9 8-2c0-.92-2.48-1.69-5.86-1.93M3.5 8.5a5 5 0 1 1 5 5 5 5 0 0 1-5-5z" vector-effect="non-scaling-stroke"/><path d="M3.5 8.5a5 5 0 1 1 5 5 5 5 0 0 1-5-5z" vector-effect="non-scaling-stroke"/><path d="M16.5 8.5a8 8 0 1 0-9.8 7.79l1.8 5.21 1.8-5.21a8 8 0 0 0 6.2-7.79z" vector-effect="non-scaling-stroke"/></g></svg>