<svg class="ico ico-mc" xmlns="http://www.w3.org/2000/svg" width="30" height="17" viewBox="0 0 30 17"><g fill="none" stroke="currentColor" stroke-linecap="round" stroke-linejoin="round"><path d="M23.5.5v4s-4-.12-4-2 4-2 4-2zm-4.09 1.23L15.63.5M20 3.58l5.5 8.92m-16 0h-5l1.5-3M29.5 12A4.5 4.5 0 1 1 25 7.5a4.5 4.5 0 0 1 4.5 4.5z" vector-effect="non-scaling-stroke"/><path d="M2.93 8a4.49 4.49 0 1 0 6.57 4 4.57 4.57 0 0 0-.08-.77A41.07 41.07 0 0 0 2.93 8z" vector-effect="non-scaling-stroke"/><path d="M5.5 5.5s3.66.5 5 .5v.5a13.84 13.84 0 0 1 8.5-4c1.55-.06-.53 10-2 10h-5.5s-7.69-5-11-5c0 0 .53-1 5-1v-1z" vector-effect="non-scaling-stroke"/></g></svg>