<svg xmlns="http://www.w3.org/2000/svg" width="24" height="24" viewBox="0 0 512 512"><path d="M336 111.281c8.844 0 16 7.156 16 16s-7.156 16-16 16H176c-8.844 0-16-7.156-16-16s7.156-16 16-16h160zm144 306.157c0 86.281-68.125 93.844-161.375 93.844-19.875 0-40.891-.344-62.625-.344-21.75 0-42.75.344-62.641.344C100.141 511.281 32 503.688 32 417.438c0-77.813 55.469-200.344 134.734-258.156H345.25C424.531 217.094 480 339.625 480 417.438zm-32 0c0-65.375-46.25-171.656-113.625-226.156H177.594C110.25 245.781 64 352.063 64 417.438c0 46.406 18.703 61.844 129.359 61.844 9.641 0 19.531-.094 29.656-.156 10.766-.094 21.781-.188 32.984-.188s22.219.094 32.969.188c10.125.063 20.031.156 29.656.156C429.313 479.281 448 463.844 448 417.438zM128 6.563c6.156-5.188 13.734-7.281 22.156-7.281 34.672 0 83.5 35.313 104.5 35.313.469 0 .906 0 1.344-.031.438.031.875.031 1.344.031 21 0 69.844-35.313 104.5-35.313 8.406 0 16 2.094 22.156 7.281 32 27-38.75 88.719-38.75 88.719H166.734c0-.001-70.734-61.719-38.734-88.719zm149.141 56.718h55.453c10.813-10.844 20.5-23.125 25.031-31.688-12.781 1.844-32.156 10.875-46.719 17.625-12.125 5.688-23.25 10.876-33.765 14.063zM154.375 31.594c4.516 8.563 14.188 20.844 25.016 31.688h55.469c-10.516-3.188-21.641-8.375-33.766-14.063-14.547-6.75-33.922-15.781-46.719-17.625z"/></svg>