<svg class="ico ico-moped" xmlns="http://www.w3.org/2000/svg" width="30" height="21" viewBox="0 0 30 21"><g fill="none" stroke="currentColor" stroke-linecap="round" stroke-linejoin="round"><path d="M27.5 17a1.5 1.5 0 1 1-1.5-1.5 1.5 1.5 0 0 1 1.5 1.5zm-14-7.5h-10a1 1 0 0 1 0-2h10a1 1 0 0 1 0 2zm-2 6s.7-5.22 1.5-6m3.5 6l2.91-7.26-2.06-6a1.31 1.31 0 0 1 1-1.68 1.36 1.36 0 0 1 1.56.75l3.29 7.54a2.87 2.87 0 0 0 2.52 1.84c1.84 0 3.78 1.12 3.78 1.84s-3 1-3 1" vector-effect="non-scaling-stroke"/><path d="M19.41 8.24l1.13 1.37a2.22 2.22 0 0 1-.16 2.89 6.07 6.07 0 0 0-.78 1.25c-.37.81.48 1.75 1.39 1.75h1.5M23.5.5l-.67 3h-1.19a1.16 1.16 0 0 1-1.08-.87A1.29 1.29 0 0 1 21.42 1L23.5.5zm-5 2l-3 2m14 12.5a3.5 3.5 0 1 1-3.5-3.5 3.5 3.5 0 0 1 3.5 3.5zm-21 0A1.5 1.5 0 1 1 7 15.5 1.5 1.5 0 0 1 8.5 17z" vector-effect="non-scaling-stroke"/><path d="M3.85 15.5A3.46 3.46 0 0 0 3.5 17a3.5 3.5 0 1 0 6.65-1.5zm12.65 0H2c-.7 0-1.5-.5-1.5-1.13a4.64 4.64 0 0 1 1.06-3A5 5 0 0 1 5.5 9.5" vector-effect="non-scaling-stroke"/></g></svg>