<svg class="ico ico-offer" xmlns="http://www.w3.org/2000/svg" width="23" height="23" viewBox="0 0 23 23"><g fill="none" stroke="currentColor" stroke-linecap="round" stroke-linejoin="round"><path d="M17.46 12.5a6.3 6.3 0 0 0-7-7m-4.96 6a5.83 5.83 0 0 0 6 6" vector-effect="non-scaling-stroke"/><path d="M22.5 11.5c0 1.36-2.19 2.27-2.68 3.44s.38 3.41-.54 4.33-3.11 0-4.33.54-2.09 2.69-3.45 2.69-2.27-2.19-3.45-2.68-3.41.38-4.33-.54 0-3.11-.54-4.33S.5 12.86.5 11.5s2.19-2.27 2.68-3.45-.38-3.41.54-4.33 3.11 0 4.33-.54S10.14.5 11.5.5s2.27 2.19 3.44 2.68 3.41-.38 4.33.54 0 3.11.54 4.33 2.68 2.09 2.68 3.45z" vector-effect="non-scaling-stroke"/></g></svg>