<svg class="ico ico-order" xmlns="http://www.w3.org/2000/svg" width="24" height="24" viewBox="0 0 24 24"><g fill="none" stroke="currentColor" stroke-linecap="round" stroke-linejoin="round"><path d="M16.5 21.5a2 2 0 1 1 2 2 2 2 0 0 1-2-2zm-10 0a2 2 0 1 1 2 2 2 2 0 0 1-2-2zm-6-19h3L6 15.09a3 3 0 0 0 3 2.41h11.5" vector-effect="non-scaling-stroke"/><path d="M21.72 11.75a2 2 0 0 1-2 1.75H6m-1.5-8h7m2 0a5 5 0 1 1 5 5 5 5 0 0 1-5-5z" vector-effect="non-scaling-stroke"/><path vector-effect="non-scaling-stroke" d="M15.5 5.5l2 2 4-4"/></g></svg>