<svg class="ico ico-permission-tutor" xmlns="http://www.w3.org/2000/svg" width="27" height="30" viewBox="0 0 27 30"><g fill="none" stroke="currentColor" stroke-linecap="round" stroke-linejoin="round"><path d="M13.5 29.5c4.88-1.47 13-6.3 13-11.35V4.28L13.5.5.5 4.28v13.87c0 5 8.13 9.88 13 11.35z" vector-effect="non-scaling-stroke"/><path d="M13.5 25.11c-4.64-1.75-9-5.41-9-7.13V7.12l9-2.62 9 2.62V18c0 1.72-4.36 5.38-9 7.13z" vector-effect="non-scaling-stroke"/><path d="M17.5 18.5c0-2.32-1-5-4-5s-4 2.68-4 5z" vector-effect="non-scaling-stroke"/><path d="M16 11a2.5 2.5 0 1 1-2.5-2.5A2.5 2.5 0 0 1 16 11z" vector-effect="non-scaling-stroke"/></g></svg>