<svg class="ico ico-permission-mc" xmlns="http://www.w3.org/2000/svg" width="27" height="30" viewBox="0 0 27 30"><g fill="none" stroke="currentColor" stroke-linecap="round" stroke-linejoin="round"><path d="M13.5 29.5c4.88-1.47 13-6.3 13-11.35V4.28L13.5.5.5 4.28v13.87c0 5 8.13 9.88 13 11.35z" vector-effect="non-scaling-stroke"/><path d="M13.5 25.28c-4.64-1.75-9-5.41-9-7.13V7.28l9-2.62 9 2.62v10.87c0 1.72-4.36 5.38-9 7.13z" vector-effect="non-scaling-stroke"/><path d="M14.25 10.75l.55-.83a1.5 1.5 0 0 1 1.25-.67h.7m-6.5 0h.7a1.5 1.5 0 0 1 1.25.67l.55.83m2 1.25a1.25 1.25 0 1 1-1.25-1.25A1.25 1.25 0 0 1 14.75 12z" vector-effect="non-scaling-stroke"/><path d="M15.25 19.44a2.8 2.8 0 0 0 1-2.44 2.43 2.43 0 0 0-.75-1.75v-1.5a1 1 0 0 0-1-1m-2.75 6.69a2.8 2.8 0 0 1-1-2.44 2.43 2.43 0 0 1 .75-1.75v-1.5a1 1 0 0 1 1-1m1 8z" vector-effect="non-scaling-stroke"/></g></svg>