<svg class="ico ico-permission-driving" xmlns="http://www.w3.org/2000/svg" width="27" height="30" viewBox="0 0 27 30"><g fill="none" stroke="currentColor" stroke-linecap="round" stroke-linejoin="round"><path d="M11.9 9.5h3.2a1.25 1.25 0 0 1 1.19.85l1 2.9 1.25.63v1.38a1.25 1.25 0 0 1-1.25 1.25H9.75a1.25 1.25 0 0 1-1.25-1.26v-1.37l1.25-.62 1-2.9a1.25 1.25 0 0 1 1.15-.86zm-2.4 4h8m-8 3v2m8-2v2m-9-3.5h2m8 0h-2" vector-effect="non-scaling-stroke"/><path d="M13.5 29.5c4.88-1.47 13-6.3 13-11.35V4.28L13.5.5.5 4.28v13.87c0 5 8.13 9.88 13 11.35z" vector-effect="non-scaling-stroke"/><path d="M13.5 25.28c-4.64-1.75-9-5.41-9-7.13V7.28l9-2.62 9 2.62v10.87c0 1.72-4.36 5.38-9 7.13z" vector-effect="non-scaling-stroke"/></g></svg>