<svg width="158" height="157" viewBox="0 0 158 157" xmlns="http://www.w3.org/2000/svg"><title>Page 1</title><g stroke="#9B9B9B" stroke-width="3" fill="none" fill-rule="evenodd"><path d="M74.47 7.676c0-3.429-3.028-6.102-6.423-5.619a54.06 54.06 0 0 0-.703.104c-.07.01-.14.023-.21.034a75.712 75.712 0 0 0-3.503.628c-.11.021-.22.046-.331.069a78.852 78.852 0 0 0-3.423.792l-.177.046c-19.687 5.1-36.33 17.817-46.61 34.8-1.778 2.939-.496 6.777 2.668 8.115l58.713 24.802V7.676z" fill="#E1E1E1"/><path d="M83.53 7.687v77.422L12.2 54.977c-3.145-1.328-6.786.393-7.658 3.693A76.676 76.676 0 0 0 2 78.279c0 43.703 36.598 79.019 80.755 76.91 38.91-1.859 70.643-33.08 73.089-71.958 2.575-40.919-27.02-75.598-65.88-81.162-3.399-.487-6.435 2.185-6.435 5.618z"/></g></svg>