<svg width="158" height="157" viewBox="0 0 158 157" xmlns="http://www.w3.org/2000/svg"><title>Page 1</title><g stroke="#23A78E" stroke-width="3" fill="none" fill-rule="evenodd"><path d="M83.53 7.687V80.17l-51.26 51.26c-2.42 2.42-2.175 6.447.56 8.506 13.154 9.894 29.062 15.279 45.803 15.357 42.435.196 77.367-34.566 77.367-77 0-38.737-28.754-70.883-66.038-76.221-3.398-.487-6.433 2.184-6.433 5.616z"/><path d="M24.553 23.844C17.479 30.92 11.927 39.154 8.05 48.322 4.036 57.812 2 67.894 2 78.292c0 10.399 2.036 20.481 6.049 29.97a76.606 76.606 0 0 0 9.288 16.165c2.065 2.752 6.101 3.022 8.534.59l48.6-48.601V7.673c0-3.415-3.007-6.096-6.387-5.618A76.2 76.2 0 0 0 49.03 7.341a76.787 76.787 0 0 0-24.477 16.503z" fill-opacity=".2" fill="#23A78E"/></g></svg>