<?xml version="1.0" encoding="utf-8"?>
<!-- Generator: Adobe Illustrator 22.1.0, SVG Export Plug-In . SVG Version: 6.00 Build 0)  -->
<svg version="1.2" baseProfile="tiny" id="Layer_1" xmlns:x="&ns_extend;" xmlns:i="&ns_ai;" xmlns:graph="&ns_graphs;"
	 xmlns="http://www.w3.org/2000/svg" xmlns:xlink="http://www.w3.org/1999/xlink" x="0px" y="0px" viewBox="0 0 680.1 223.6"
	 xml:space="preserve">
<metadata>
	<sfw  xmlns="&ns_sfw;">
		<slices></slices>
		<sliceSourceBounds  bottomLeftOrigin="true" height="120.1" width="568.9" x="52.3" y="51.5"></sliceSourceBounds>
	</sfw>
</metadata>
<path fill="#FCC10F" d="M53.5,94.6H94V54C72,55,54.4,72.6,53.5,94.6z"/>
<path fill="#489BD4" d="M94,54v40.6h40.5C133.6,72.6,115.9,55,94,54z"/>
<path fill="#BBD531" d="M133.9,93.6H94v39.9C115.7,132.6,133,115.2,133.9,93.6z"/>
<path fill="#EC1A75" d="M94,133.7V94.6H54.9C55.9,115.7,72.9,132.8,94,133.7z"/>
<g>
	<path d="M530,121.6c-11.4,4.2-12.8,17-3.3,24c5.9,4.5,10.6,7.5,10,13.1c0,6.4-8.4,5.3-8.4-0.6c-0.8-7-4.7-10-10.3-7.5
		c-5.5,2.7-4.7,11.1-0.8,15.6v0c7,7.5,26.5,7.5,34.3,1.1c7.5-5.3,9.5-16.5,0.6-23.1c-8.6-5.9-12.8-10.3-12.8-13.4
		c0-7.8,12.3-6.1,8.6-0.3c-3.6,5.9,7,11.7,11.4,3.6c1.1-2.5,1.1-5.3,0-7.8C554.8,117.4,539.8,117.9,530,121.6z"/>
	<path d="M495.2,120.1c2-37.4-37.4-48-70-25.9c-11.7,8.4-21.2,25.7-21.2,40.2c-1.1,8.6-9.8,14.2-22,19.2c-19,7.8-35.1-2.8-35.7-25.7
		c0-8.1,2.5-17,7.3-24.5c7.3-10.9,25.4-15.3,21.5-3.9c-0.6,4.2-4.2,6.4-3.3,12c0.8,7.5,15.1,8.1,20.6,0.8
		c11.7-16.7-6.4-30.4-33.7-27.9c-25.4,2.2-46.9,22-47.4,48.5c0,16.2-31.2,28.7-48,19c-4.5-2.5-10-9.2-8.4-15.6
		c0.6-2.2,2.5-2.5,3.6-2.5c15.9-2.8,23.4-5,31.5-11.4c13.7-11.2,16.5-27.9,1.1-35.7c-6.1-3.1-30.4-7-51.9,7.3
		c-0.8,0.6-20.9,13.9-20.9,39.3c0,16.5,6.7,27.6,20.1,33.2c8.4,3.3,19,4.7,30.4,3.3c14.8-1.4,31.5-10.6,39.3-16.7
		c4.2-3.3,5.9-2,7.5,0c27.9,33.2,68.6,12,84.5-0.6c3.9-3.1,6.1-0.3,7.5,1.7c6.7,9.8,17.3,15.9,36,16.2
		C470.1,171.2,493,149.2,495.2,120.1L495.2,120.1z M278.8,91.7c5.3,1.4,7.8,6.4,4.7,13.9c-3.9,9.8-25.1,23.7-29.5,19.3
		C247,117.9,266.6,88.6,278.8,91.7z M481.2,128.2L481.2,128.2c-7.9,31.3-44.9,38.4-47.8,8c-2.6-25.5,22.9-51.8,41.6-38.4
		C481.7,102.7,484.3,115.4,481.2,128.2z"/>
	<path d="M497.1,153.1c-5,0-9.2,3.9-9.2,8.9c0,5.3,4.2,9.2,9.2,9.2s9.2-3.9,9.2-9.2C506.3,157,502.1,153.1,497.1,153.1z"/>
	<path d="M616.7,151.7c-8.9,6.7-16.7,11.7-22.9,9.8c-6.1-1.4-11.2-10.9-6.1-10.9c19.5-2.5,24-12.8,25.1-15.9
		c2.6-9.8-3.8-15.1-17.8-15.1c-16.7,0-28.4,8.6-32.4,27.6c-4.7,28.4,38.2,34.3,57.7,8.4C622.8,152.5,619.5,148.9,616.7,151.7z
		 M593.1,127.7c5.3-3.4,9.7-1.1,8.9,3.3h0c-1.4,6.7-8.9,12.6-15.3,13.4C582.8,144.4,587.8,130.7,593.1,127.7z"/>
	<path d="M224,91.4c-4.5-13.9-19.5-12.3-37.4,12.8c2.1-11.9,1.8-15.9,0.2-17.8c-3.1-4.5-22.6-0.3-32.1,3.1c-2.5,0.8-4.7,2.2-2.8,6.1
		c2,3.6,3.9,7.8,3.9,10.3c0,16.2-5.3,31.2-9.8,43.2c-3.1,8.4-6.1,17-3.9,19.2c2,2,4.7,0.8,27.3-0.3c2.2,0,3.1-0.6,3.6-3.6
		c4.2-27.6,13.9-57.7,22-57.7c2.5,0.3,3.6,3.3,4.2,4.2C203.9,125.1,229,105.6,224,91.4z"/>
	<path d="M94,52c-23.1,0-41.7,18.7-41.7,41.7c0,5.8,1.2,11.3,3.3,16.4c7.3,18.7,25.9,35.2,51.1,38.3c0,0,5.4,0.6,7.8,0.6
		c1.9,0,2.6-1.6,0.7-2.2c-6.9-2.3-11-6-13.1-11.9c0.7-0.2,1.3-0.3,2-0.5c18.2-4.5,31.7-21,31.7-40.6C135.8,70.7,117.1,52,94,52z
		 M92.4,131.1c-19.3-0.8-34.8-16.4-35.7-35.7h35.7V131.1z M92.4,92.1H56.7C57.5,72.7,73,57.2,92.4,56.3V92.1z M95.7,131.1V95.4h35.7
		C130.6,114.7,115.1,130.3,95.7,131.1z M95.7,92.1V56.3c19.3,0.9,34.9,16.4,35.7,35.8H95.7z"/>
</g>
</svg>
