<svg class="ico ico-settings" xmlns="http://www.w3.org/2000/svg" width="24" height="24" viewBox="0 0 23.37 24"><path d="M11.69 16.5a4.5 4.5 0 1 1 4.5-4.5 4.51 4.51 0 0 1-4.5 4.5zm8.54-3.37a9 9 0 0 0 .08-1.13 9 9 0 0 0-.08-1.13L22.66 9a.58.58 0 0 0 .14-.74l-2.3-4a.58.58 0 0 0-.7-.26l-2.87 1.16A8.38 8.38 0 0 0 15 4l-.44-3A.56.56 0 0 0 14 .5H9.39a.56.56 0 0 0-.56.5l-.44 3a8.8 8.8 0 0 0-1.94 1.16L3.58 4a.56.56 0 0 0-.7.25l-2.3 4A.57.57 0 0 0 .72 9l2.43 1.9a9.13 9.13 0 0 0-.09 1.1 9.11 9.11 0 0 0 .08 1.13L.72 15a.58.58 0 0 0-.14.74l2.3 4a.58.58 0 0 0 .7.25l2.86-1.15A8.43 8.43 0 0 0 8.39 20l.44 3a.56.56 0 0 0 .56.48H14a.56.56 0 0 0 .56-.48l.44-3a8.87 8.87 0 0 0 1.94-1.13L19.8 20a.56.56 0 0 0 .7-.25l2.3-4a.58.58 0 0 0-.14-.74l-2.43-1.9z" fill="none" stroke="currentColor" stroke-linecap="round" stroke-linejoin="round" vector-effect="non-scaling-stroke"/></svg>