<svg width="34" height="34" viewBox="0 0 34 34" xmlns="http://www.w3.org/2000/svg"><g fill="none"><path d="M17.035 1.226c8.731 0 15.809 7.078 15.809 15.809 0 8.731-7.078 15.809-15.809 15.809-8.731 0-15.809-7.078-15.809-15.809 0-8.731 7.078-15.809 15.809-15.809z" fill="#FFFFFE"/><path d="M17.035 1.226c8.731 0 15.809 7.078 15.809 15.809 0 8.731-7.078 15.81-15.809 15.81-8.731 0-15.809-7.078-15.809-15.81 0-8.731 7.078-15.809 15.809-15.809z" stroke="#004C80" stroke-linecap="round" stroke-linejoin="round"/><path d="M17.035 3.58c7.431 0 13.455 6.024 13.455 13.455S24.466 30.49 17.035 30.49 3.58 24.466 3.58 17.035 9.604 3.58 17.035 3.58" fill="#004C80"/><path d="M21.722 15.4V11L27 16.5 21.722 22v-4.4H8v-2.2h13.722" fill="#FFFFFE"/></g></svg>