<svg width="34" height="34" viewBox="0 0 34 34" xmlns="http://www.w3.org/2000/svg"><g fill="none"><path d="M16.965 32.774c-8.731 0-15.809-7.078-15.809-15.809 0-8.731 7.078-15.809 15.809-15.809 8.731 0 15.809 7.078 15.809 15.809 0 8.731-7.078 15.809-15.809 15.809z" fill="#FFFFFE"/><path d="M16.965 32.774c-8.731 0-15.809-7.078-15.809-15.809 0-8.731 7.078-15.81 15.809-15.81 8.731 0 15.809 7.078 15.809 15.81 0 8.731-7.078 15.809-15.809 15.809z" stroke="#004C80" stroke-linecap="round" stroke-linejoin="round"/><path d="M16.965 30.42c-7.431 0-13.455-6.024-13.455-13.455S9.534 3.51 16.965 3.51 30.42 9.534 30.42 16.965 24.396 30.42 16.965 30.42" fill="#004C80"/><path d="M18.711 11.727a5.678 5.678 0 0 0-5.675 5.675v2.837H8.671l5.457 5.457 5.456-5.457h-4.365v-2.837a3.492 3.492 0 0 1 3.492-3.492h5.893v-2.183h-5.893" fill="#FFFFFE"/></g></svg>