<svg width="34" height="34" viewBox="0 0 34 34" xmlns="http://www.w3.org/2000/svg"><g fill="none"><path d="M17.035 32.774c8.731 0 15.809-7.078 15.809-15.809 0-8.731-7.078-15.809-15.809-15.809-8.731 0-15.809 7.078-15.809 15.809 0 8.731 7.078 15.809 15.809 15.809z" fill="#FFFFFE"/><path d="M17.035 32.774c8.731 0 15.809-7.078 15.809-15.809 0-8.731-7.078-15.81-15.809-15.81-8.731 0-15.809 7.078-15.809 15.81 0 8.731 7.078 15.809 15.809 15.809z" stroke="#004C80" stroke-linecap="round" stroke-linejoin="round"/><path d="M17.035 30.42c7.431 0 13.455-6.024 13.455-13.455S24.466 3.51 17.035 3.51 3.58 9.534 3.58 16.965 9.604 30.42 17.035 30.42" fill="#004C80"/><path d="M15.289 11.727a5.678 5.678 0 0 1 5.675 5.675v2.837h4.365l-5.457 5.457-5.456-5.457h4.365v-2.837a3.492 3.492 0 0 0-3.492-3.492H9.396v-2.183h5.893" fill="#FFFFFE"/></g></svg>