<svg width="51" height="48" viewBox="0 0 51 48" xmlns="http://www.w3.org/2000/svg"><title>Fill 35 Copy 7</title><path d="M41.844 4.683a1.468 1.468 0 0 0-2.068.175l-6.213 7.354-.455-5.409a1.467 1.467 0 1 0-2.924.247l.7 8.333-4.818 5.703-2.53-7.02 3.56-7.568A1.468 1.468 0 1 0 24.44 5.25l-2.31 4.913-3.262-9.053a1.468 1.468 0 0 0-2.763.996l3.262 9.052-4.912-2.308a1.469 1.469 0 0 0-1.25 2.656l7.57 3.555 2.53 7.021-7.349-1.316-4.775-6.864a1.468 1.468 0 0 0-2.41 1.676l3.1 4.456-9.475-1.7a1.468 1.468 0 0 0-.52 2.89l9.474 1.698-4.458 3.1a1.467 1.467 0 1 0 1.676 2.409l6.869-4.777 7.348 1.317-4.82 5.705-8.334.704a1.467 1.467 0 1 0 .246 2.924l5.41-.458L9.075 41.2a1.467 1.467 0 1 0 2.241 1.893l6.213-7.354.455 5.409a1.468 1.468 0 1 0 2.926-.248l-.702-8.333 4.819-5.703 2.53 7.02-3.56 7.569a1.467 1.467 0 1 0 2.655 1.248l2.311-4.913 3.262 9.053a1.468 1.468 0 0 0 2.763-.996l-3.262-9.053L36.64 39.1a1.466 1.466 0 0 0 1.953-.704 1.466 1.466 0 0 0-.704-1.951l-7.569-3.556-2.53-7.02 7.348 1.316 4.776 6.864a1.468 1.468 0 0 0 2.41-1.677l-3.1-4.455 9.475 1.699a1.467 1.467 0 0 0 .52-2.888l-9.476-1.699 4.46-3.101a1.467 1.467 0 1 0-1.678-2.408l-6.867 4.776-7.349-1.317 4.819-5.703 8.335-.705a1.469 1.469 0 0 0-.246-2.924l-5.41.458 6.212-7.355" fill="currentcolor" fill-rule="evenodd"/></svg>