<svg width="58" height="63" viewBox="0 0 58 63" xmlns="http://www.w3.org/2000/svg"><title>Fill 35 Copy 6</title><path d="M30.542.22a1.8 1.8 0 0 0-1.93 1.7l-.576 11.901-4.582-5.047c-.684-.754-1.849-.827-2.602-.163a1.799 1.799 0 0 0-.124 2.566l7.06 7.776-.447 9.23-7.883-5.121-2.23-10.16a1.874 1.874 0 0 0-2.19-1.424 1.788 1.788 0 0 0-1.408 2.142l1.446 6.594L4.915 13.61c-.855-.557-1.995-.33-2.545.507-.548.832-.302 1.964.554 2.52l10.161 6.603-6.658 1.327a1.788 1.788 0 0 0-1.41 2.141 1.873 1.873 0 0 0 2.191 1.424l10.259-2.043 7.881 5.12-8.329 4.11-9.998-3.31c-.97-.32-2.005.191-2.316 1.143-.31.95.223 1.982 1.194 2.303l6.49 2.148-10.74 5.298a1.786 1.786 0 0 0-.793 2.436 1.874 1.874 0 0 0 2.481.822l10.738-5.299L12 47.236c-.311.951.223 1.983 1.192 2.303.899.298 1.855-.12 2.237-.94.03-.064.056-.132.079-.202l3.198-9.82 8.33-4.108-.449 9.23-7.768 6.849a1.799 1.799 0 0 0-.125 2.566c.684.754 1.85.826 2.602.163l5.043-4.445-.577 11.9c-.048 1.002.735 1.866 1.752 1.929a1.812 1.812 0 0 0 1.764-1.033c.094-.203.152-.428.163-.666l.578-11.901 4.582 5.047c.685.754 1.85.826 2.602.163.19-.169.336-.366.437-.582a1.81 1.81 0 0 0-.313-1.984l-7.06-7.776.448-9.23 7.882 5.121 2.23 10.16a1.874 1.874 0 0 0 2.19 1.423 1.788 1.788 0 0 0 1.409-2.14l-1.448-6.596L53.14 49.27c.855.557 1.995.33 2.545-.506a1.8 1.8 0 0 0 .127-.228c.375-.804.1-1.786-.68-2.293L44.97 39.64l6.659-1.327a1.797 1.797 0 0 0 1.285-1.002c.16-.343.212-.739.124-1.139a1.873 1.873 0 0 0-2.19-1.424l-10.26 2.044-7.88-5.122 8.328-4.108 9.998 3.309c.899.297 1.855-.12 2.237-.939.03-.065.056-.134.08-.203.31-.952-.224-1.983-1.193-2.303l-6.49-2.148 10.738-5.299a1.77 1.77 0 0 0 .83-.845 1.793 1.793 0 0 0-.037-1.59 1.874 1.874 0 0 0-2.481-.822L43.98 22.02l2.076-6.375c.31-.95-.224-1.982-1.194-2.303-.968-.32-2.004.19-2.315 1.143l-3.198 9.82-8.33 4.108.449-9.23 7.768-6.85a1.76 1.76 0 0 0 .437-.582 1.81 1.81 0 0 0-.312-1.984c-.685-.754-1.849-.825-2.602-.162l-5.043 4.445.578-11.9" fill="currentcolor" fill-rule="evenodd"/></svg>