<svg width="26" height="26" viewBox="0 0 26 26" xmlns="http://www.w3.org/2000/svg" xmlns:xlink="http://www.w3.org/1999/xlink"><title>Clip 2 Copy</title><defs><path d="M120.256 752c-.108 0-.217.016-.325.047a1.224 1.224 0 0 0-.833 1.512l3.074 10.829-8.666-2.184a1.211 1.211 0 0 0-1.47.89 1.223 1.223 0 0 0 .882 1.481l8.668 2.184-7.764 8.1a1.23 1.23 0 0 0 .03 1.728 1.204 1.204 0 0 0 1.713-.03l7.76-8.096 2.456 8.653a1.214 1.214 0 0 0 1.499.839 1.224 1.224 0 0 0 .832-1.512l-2.457-8.656 10.84 2.73c.098.026.197.038.294.038a1.223 1.223 0 0 0 .293-2.408l-10.84-2.732 6.205-6.475a1.23 1.23 0 0 0-.029-1.728 1.205 1.205 0 0 0-1.713.029l-6.203 6.472-3.073-10.825a1.217 1.217 0 0 0-1.158-.886h-.015z" id="a"/></defs><use fill="currentcolor" xlink:href="#a" transform="translate(-112 -752)" fill-rule="evenodd"/></svg>