<svg class="ico ico-statistics" xmlns="http://www.w3.org/2000/svg" width="23" height="19" viewBox="0 0 23 19"><path d="M18.5 11.5a2 2 0 1 1 2 2 2 2 0 0 1-2-2zm-9 5a2 2 0 1 1 2 2 2 2 0 0 1-2-2zM.5 14a2 2 0 1 1 2 2 2 2 0 0 1-2-2zm18-1.5l-5 3m-4 .5l-5-1.5m14-12a2 2 0 1 1 2 2 2 2 0 0 1-2-2zm-9 5a2 2 0 1 1 2 2 2 2 0 0 1-2-2zM.5 5a2 2 0 1 1 2 2 2 2 0 0 1-2-2zm18-1.5l-5 3m-4 .5l-5-1.5" vector-effect="non-scaling-stroke" fill="none" stroke="currentColor" stroke-linecap="round" stroke-linejoin="round"/></svg>