<svg class="ico ico-users" xmlns="http://www.w3.org/2000/svg" width="24" height="18" viewBox="0 0 24 18"><path d="M19.5 17.5h4a3.78 3.78 0 0 0-2.87-3.67l-3-.76-.35-1.39a4.7 4.7 0 0 0 1.51-3 .74.74 0 0 0 .73-.68l.18-1.48a.74.74 0 0 0-.7-.84l.09-1.85.37-.37a1.36 1.36 0 0 0 0-1.85A2.76 2.76 0 0 0 16.94.5a4.45 4.45 0 0 0-2.67.73m.36 12.6l-3-.76-.32-1.26a9.54 9.54 0 0 0 3.27-1S13.1 9.7 13.1 5.64 11.87 1.2 11.25 1.2h-.37A2.06 2.06 0 0 0 9 .5c-1 0-4.07 1.11-4.07 5.17s-1.48 5.17-1.48 5.17a9.35 9.35 0 0 0 3.27 1L6.4 13.1l-3 .76A3.78 3.78 0 0 0 .5 17.5h17a3.78 3.78 0 0 0-2.87-3.67z" vector-effect="non-scaling-stroke" fill="none" stroke="currentColor" stroke-linecap="round" stroke-linejoin="round"/></svg>