<svg class="ico ico-user" xmlns="http://www.w3.org/2000/svg" width="21" height="24" viewBox="0 0 21 24"><g fill="none" stroke="currentColor" stroke-linecap="round" stroke-linejoin="round"><path d="M17.79 19.31a3.77 3.77 0 0 0-2.16-1.48l-3-.76-.35-1.39a4.7 4.7 0 0 0 1.51-3 .74.74 0 0 0 .73-.65l.18-1.48a.74.74 0 0 0-.7-.87l.09-1.85.37-.37a1.36 1.36 0 0 0 0-1.85 2.76 2.76 0 0 0-2.52-1.11 4.45 4.45 0 0 0-2.68.74c-3 0-3.33 1.27-3.33 2.59 0 .46.17 1.85.17 1.85H6a.74.74 0 0 0-.73.83L5.48 12a.74.74 0 0 0 .73.65h.12a4.71 4.71 0 0 0 1.44 3l-.36 1.45-3 .76a3.77 3.77 0 0 0-1.71 1" vector-effect="non-scaling-stroke"/><path d="M10.5 23.5c3.75-1.17 10-5 10-9v-11l-10-3-10 3v11c0 4 6.25 7.83 10 9z" vector-effect="non-scaling-stroke"/></g></svg>