<svg id="Layer_1" xmlns="http://www.w3.org/2000/svg" viewBox="0 0 2500 1200"><style>.st0{fill:url(#SVGID_1_)}.st1{fill:url(#SVGID_2_)}.st2{fill:url(#SVGID_3_)}.st3{fill:url(#SVGID_4_)}.st4{fill:url(#SVGID_5_)}.st5{fill:url(#SVGID_6_)}.st6{fill:url(#SVGID_7_)}.st7{fill:url(#SVGID_8_)}.st8{fill:url(#SVGID_9_)}.st9{fill:url(#SVGID_10_)}.st10{fill:url(#SVGID_11_)}.st11{fill:url(#SVGID_12_)}.st12{fill:url(#SVGID_13_)}.st13{fill:url(#SVGID_14_)}.st14{fill:url(#SVGID_15_)}.st15{fill:url(#SVGID_16_)}.st16{fill:url(#SVGID_17_)}.st17{fill:url(#SVGID_18_)}.st18{fill:url(#SVGID_19_)}.st19{fill:url(#SVGID_20_)}.st20{fill:url(#SVGID_21_)}.st21{fill:url(#SVGID_22_)}.st22{fill:url(#SVGID_23_)}.st23{fill:url(#SVGID_24_)}.st24{fill:url(#SVGID_25_)}.st25{fill:#d04d2c}.st26{fill:url(#SVGID_26_)}.st27{fill:url(#SVGID_27_)}.st28{fill:#23a78e}.st29{fill:url(#SVGID_28_)}.st30{fill:url(#SVGID_29_)}.st31{fill:url(#SVGID_30_)}.st32{fill:url(#SVGID_31_)}.st33{fill:url(#SVGID_32_)}.st34{fill:url(#SVGID_33_)}.st35{fill:url(#SVGID_34_)}.st36{fill:url(#SVGID_35_)}.st37{fill:url(#SVGID_36_)}.st38{fill:url(#SVGID_37_)}.st39{fill:url(#SVGID_38_)}.st40{fill:url(#SVGID_39_)}.st41{fill:url(#SVGID_40_)}.st42{fill:url(#SVGID_41_)}.st43{fill:url(#SVGID_42_)}.st44{fill:#50a38e}.st45{fill:url(#SVGID_43_)}.st46{fill:url(#SVGID_44_)}.st47{fill:url(#SVGID_45_)}.st48{fill:url(#SVGID_46_)}.st49{fill:url(#SVGID_47_)}.st50{fill:url(#SVGID_48_)}.st51{fill:url(#SVGID_49_)}.st52{fill:url(#SVGID_50_)}.st53{fill:url(#SVGID_51_)}.st54{fill:url(#SVGID_52_)}.st55{fill:url(#SVGID_53_)}.st56{fill:url(#SVGID_54_)}.st57{fill:url(#SVGID_55_)}.st58{fill:url(#SVGID_56_)}.st59{fill:url(#SVGID_57_)}.st60{fill:url(#SVGID_58_)}.st61{fill:url(#SVGID_59_)}.st62{fill:url(#SVGID_60_)}.st63{fill:url(#SVGID_61_)}.st64{fill:url(#SVGID_62_)}.st65{fill:url(#SVGID_63_)}.st66{fill:url(#SVGID_64_)}.st67{fill:url(#SVGID_65_)}.st68{fill:url(#SVGID_66_)}.st69{fill:url(#SVGID_67_)}.st70{fill:url(#SVGID_68_)}.st71{fill:url(#SVGID_69_)}.st72{fill:url(#SVGID_70_)}.st73{fill:url(#SVGID_71_)}.st74{fill:url(#SVGID_72_)}</style><linearGradient id="SVGID_1_" gradientUnits="userSpaceOnUse" x1="743.635" y1="837.434" x2="819.362" y2="945.134"><stop offset="0" stop-color="#e2ddcd"/><stop offset=".277" stop-color="#d9d4c4"/><stop offset=".735" stop-color="#bfbaad"/><stop offset=".994" stop-color="#aea99d"/></linearGradient><path class="st0" d="M839.2 928.7l-24.5-6.2 13.9-14.3c1.3-1.4 1.3-3.6-.1-4.9-1.4-1.3-3.6-1.3-4.9.1l-13.9 14.3-6.9-24.3c-.5-1.9-2.5-2.9-4.3-2.4-1.9.5-2.9 2.5-2.4 4.3l6.9 24.3-19.4-4.9c-1.9-.5-3.8.7-4.3 2.5-.5 1.9.7 3.8 2.5 4.3l19.4 4.9-17.6 18.1c-1.3 1.4-1.3 3.6.1 4.9.7.7 1.6 1 2.4 1 .9 0 1.8-.4 2.5-1.1l17.6-18.1 5.4 19.2c.4 1.5 1.8 2.5 3.4 2.5.3 0 .6 0 1-.1 1.9-.5 2.9-2.5 2.4-4.3l-5.4-19.2 24.5 6.2c.3.1.6.1.9.1 1.6 0 3-1.1 3.4-2.6.4-1.9-.7-3.8-2.6-4.3z"/><linearGradient id="SVGID_2_" gradientUnits="userSpaceOnUse" x1="1245.435" y1="847.208" x2="1300.968" y2="943.129"><stop offset="0" stop-color="#e2ddcd"/><stop offset=".277" stop-color="#d9d4c4"/><stop offset=".735" stop-color="#bfbaad"/><stop offset=".994" stop-color="#aea99d"/></linearGradient><path class="st1" d="M1322.9 923.6l-24.9-4.4 12.8-15.3c1.2-1.5 1-3.7-.4-4.9-1.5-1.2-3.7-1-4.9.4l-12.8 15.3-8.7-23.7c-.7-1.8-2.7-2.8-4.5-2.1-1.8.7-2.8 2.7-2.1 4.5l8.6 23.8-19.7-3.5c-1.9-.3-3.7.9-4.1 2.8-.3 1.9.9 3.7 2.8 4.1l19.7 3.5-16.2 19.4c-1.2 1.5-1 3.7.4 4.9.7.6 1.5.8 2.2.8 1 0 2-.4 2.7-1.3l16.2-19.4 6.8 18.8c.5 1.4 1.9 2.3 3.3 2.3.4 0 .8-.1 1.2-.2 1.8-.7 2.8-2.7 2.1-4.5l-6.8-18.8 24.9 4.4c.2 0 .4.1.6.1 1.7 0 3.1-1.2 3.4-2.9.5-1.9-.7-3.8-2.6-4.1z"/><linearGradient id="SVGID_3_" gradientUnits="userSpaceOnUse" x1="1613.019" y1="863.172" x2="1661.821" y2="938.898"><stop offset="0" stop-color="#e2ddcd"/><stop offset=".277" stop-color="#d9d4c4"/><stop offset=".735" stop-color="#bfbaad"/><stop offset=".994" stop-color="#aea99d"/></linearGradient><path class="st2" d="M1681.4 914.4c-.4-1.9-2.2-3.1-4.1-2.7l-19.6 3.9 8.1-23.9c.6-1.8-.4-3.8-2.2-4.4-1.8-.6-3.8.4-4.4 2.2l-8.1 23.9-13.2-15c-1.3-1.5-3.5-1.6-4.9-.3-1.5 1.3-1.6 3.5-.3 4.9l13.2 15-24.8 4.9c-1.9.4-3.1 2.2-2.7 4.1.3 1.7 1.8 2.8 3.4 2.8.2 0 .5 0 .7-.1l24.8-4.9-6.4 18.9c-.6 1.8.4 3.8 2.2 4.4.4.1.8.2 1.1.2 1.5 0 2.8-.9 3.3-2.4l6.4-18.9 16.7 19c.7.8 1.7 1.2 2.6 1.2.8 0 1.6-.3 2.3-.9 1.5-1.3 1.6-3.5.3-4.9l-16.7-19 19.6-3.9c1.9-.4 3.1-2.3 2.7-4.1z"/><linearGradient id="SVGID_4_" gradientUnits="userSpaceOnUse" x1="2232.841" y1="422.926" x2="2308.568" y2="518.846"><stop offset="0" stop-color="#e2ddcd"/><stop offset=".277" stop-color="#d9d4c4"/><stop offset=".735" stop-color="#bfbaad"/><stop offset=".994" stop-color="#aea99d"/></linearGradient><path class="st3" d="M2336.3 506.5l-31.3-7.8 17.9-18.5c1.3-1.4 1.3-3.6-.1-4.9-1.4-1.3-3.6-1.3-4.9.1l-17.9 18.5-8.9-31c-.5-1.9-2.5-2.9-4.3-2.4-1.9.5-2.9 2.5-2.4 4.3l8.9 31-25-6.3c-1.9-.5-3.8.7-4.2 2.5-.5 1.9.7 3.8 2.5 4.2l25 6.3-22.4 23.2c-1.3 1.4-1.3 3.6.1 4.9.7.7 1.6 1 2.4 1 .9 0 1.8-.4 2.5-1.1l22.4-23.2 7.1 24.8c.4 1.5 1.8 2.5 3.4 2.5.3 0 .6 0 1-.1 1.9-.5 2.9-2.5 2.4-4.3l-7.1-24.8 31.3 7.8c.3.1.6.1.9.1 1.6 0 3-1.1 3.4-2.7.3-1.7-.8-3.6-2.7-4.1z"/><linearGradient id="SVGID_5_" gradientUnits="userSpaceOnUse" x1="1766.643" y1="66.572" x2="1823.858" y2="142.298"><stop offset="0" stop-color="#e2ddcd"/><stop offset=".277" stop-color="#d9d4c4"/><stop offset=".735" stop-color="#bfbaad"/><stop offset=".994" stop-color="#aea99d"/></linearGradient><path class="st4" d="M1845.7 118.2c-1-1.7-3.1-2.3-4.8-1.3l-22 12.4.2-20c0-1.9-1.5-3.5-3.5-3.5-1.9 0-3.5 1.5-3.5 3.5l-.2 20-21.8-12.8c-1.7-1-3.8-.4-4.8 1.2-1 1.7-.4 3.8 1.2 4.8l21.8 12.8-17.4 9.8c-1.7 1-2.3 3.1-1.3 4.8.6 1.1 1.8 1.8 3 1.8.6 0 1.2-.1 1.7-.5l17.4-9.8-.2 25.3c0 1.9 1.5 3.5 3.5 3.5 1.9 0 3.5-1.5 3.5-3.5l.2-25.3 17.2 10.1c.6.3 1.2.5 1.8.5 1.2 0 2.4-.6 3-1.7 1-1.7.4-3.8-1.2-4.8l-17.2-10.2 22-12.4c1.7-.9 2.3-3 1.4-4.7z"/><linearGradient id="SVGID_6_" gradientUnits="userSpaceOnUse" x1="1411.864" y1="44.573" x2="1472.445" y2="142.176"><stop offset="0" stop-color="#e2ddcd"/><stop offset=".277" stop-color="#d9d4c4"/><stop offset=".735" stop-color="#bfbaad"/><stop offset=".994" stop-color="#aea99d"/></linearGradient><path class="st5" d="M1486.2 127.3l-19.7-3.1 15.9-19.7c1.2-1.5 1-3.7-.5-4.9-1.5-1.2-3.7-1-4.9.5l-15.9 19.7-7.2-18.7c-.7-1.8-2.7-2.7-4.5-2-1.8.7-2.7 2.7-2 4.5l7.2 18.6-25-3.9c-1.9-.3-3.7 1-4 2.9-.3 1.9 1 3.7 2.9 4l25 3.9-12.6 15.5c-1.2 1.5-1 3.7.5 4.9.6.5 1.4.8 2.2.8 1 0 2-.4 2.7-1.3l12.6-15.6 9.1 23.6c.5 1.4 1.9 2.2 3.3 2.2.4 0 .8-.1 1.3-.2 1.8-.7 2.7-2.7 2-4.5l-9.1-23.6 19.7 3.1h.5c1.7 0 3.2-1.2 3.5-3 .2-1.6-1.1-3.4-3-3.7z"/><linearGradient id="SVGID_7_" gradientUnits="userSpaceOnUse" x1="248.581" y1="528.866" x2="336.088" y2="651.712"><stop offset="0" stop-color="#e2ddcd"/><stop offset=".277" stop-color="#d9d4c4"/><stop offset=".735" stop-color="#bfbaad"/><stop offset=".994" stop-color="#aea99d"/></linearGradient><path class="st6" d="M345.5 609.7c-1-1.7-3.1-2.3-4.8-1.3l-22 12.4.2-20c0-1.9-1.5-3.5-3.5-3.5-1.9 0-3.5 1.5-3.5 3.5l-.2 20-21.7-12.9c-1.7-1-3.8-.4-4.8 1.2-1 1.7-.4 3.8 1.2 4.8l21.8 12.8-17.4 9.8c-1.7 1-2.3 3.1-1.3 4.8.6 1.1 1.8 1.8 3 1.8.6 0 1.2-.1 1.7-.5l17.4-9.8-.2 25.3c0 1.9 1.5 3.5 3.5 3.5 1.9 0 3.5-1.5 3.5-3.5l.2-25.3 17.2 10.1c.6.3 1.2.5 1.8.5 1.2 0 2.4-.6 3-1.7 1-1.7.4-3.8-1.2-4.8l-17.2-10.2 22-12.4c1.7-.8 2.3-2.9 1.3-4.6z"/><linearGradient id="SVGID_8_" gradientUnits="userSpaceOnUse" x1="2307.426" y1="748.345" x2="2369.69" y2="807.243"><stop offset="0" stop-color="#e2ddcd"/><stop offset=".277" stop-color="#d9d4c4"/><stop offset=".735" stop-color="#bfbaad"/><stop offset=".994" stop-color="#aea99d"/></linearGradient><path class="st7" d="M2392 786c-1-1.7-3.1-2.3-4.8-1.3l-22 12.4.2-20c0-1.9-1.5-3.5-3.5-3.5-1.9 0-3.5 1.5-3.5 3.5l-.2 20-21.8-12.8c-1.7-1-3.8-.4-4.8 1.2-1 1.7-.4 3.8 1.2 4.8l21.8 12.8-17.4 9.8c-1.7 1-2.3 3.1-1.3 4.8.6 1.1 1.8 1.8 3 1.8.6 0 1.2-.1 1.7-.5l17.4-9.8-.2 25.3c0 1.9 1.5 3.5 3.5 3.5 1.9 0 3.5-1.5 3.5-3.5l.2-25.3 17.2 10.1c.6.3 1.2.5 1.8.5 1.2 0 2.4-.6 3-1.7 1-1.7.4-3.8-1.2-4.8l-17.2-10.2 22-12.4c1.8-.9 2.4-3 1.4-4.7z"/><linearGradient id="SVGID_9_" gradientUnits="userSpaceOnUse" x1="1162.277" y1="499.589" x2="1207.713" y2="582.047"><stop offset="0" stop-color="#e2ddcd"/><stop offset=".277" stop-color="#d9d4c4"/><stop offset=".735" stop-color="#bfbaad"/><stop offset=".994" stop-color="#aea99d"/></linearGradient><path class="st8" d="M1226 558.9l-19.9 2 10.4-23c.8-1.8 0-3.8-1.7-4.6-1.8-.8-3.8 0-4.6 1.7l-10.4 23-11.6-16.3c-1.1-1.6-3.3-1.9-4.9-.8-1.6 1.1-1.9 3.3-.8 4.9L1194 562l-25.2 2.5c-1.9.2-3.3 1.9-3.1 3.8.2 1.8 1.7 3.2 3.5 3.2h.3l25.1-2.5-8.2 18.2c-.8 1.8 0 3.8 1.7 4.6.5.2 1 .3 1.4.3 1.3 0 2.6-.8 3.2-2.1l8.3-18.2 14.7 20.6c.7 1 1.8 1.5 2.8 1.5.7 0 1.4-.2 2-.7 1.6-1.1 1.9-3.3.8-4.9l-14.7-20.6 19.9-2c1.9-.2 3.3-1.9 3.1-3.8 0-1.8-1.7-3.2-3.6-3z"/><linearGradient id="SVGID_10_" gradientUnits="userSpaceOnUse" x1="304.686" y1="438.797" x2="371.998" y2="533.034"><stop offset="0" stop-color="#e2ddcd"/><stop offset=".277" stop-color="#d9d4c4"/><stop offset=".735" stop-color="#bfbaad"/><stop offset=".994" stop-color="#aea99d"/></linearGradient><path class="st9" d="M390.1 516.5l-19.9 2 10.4-23c.8-1.8 0-3.8-1.7-4.6-1.8-.8-3.8 0-4.6 1.7l-10.4 23-11.6-16.3c-1.1-1.6-3.3-1.9-4.9-.8-1.6 1.1-1.9 3.3-.8 4.9l11.6 16.3-25.2 2.5c-1.9.2-3.3 1.9-3.1 3.8.2 1.8 1.7 3.2 3.5 3.2h.3l25.1-2.5-8.2 18.2c-.8 1.8 0 3.8 1.7 4.6.5.2 1 .3 1.4.3 1.3 0 2.6-.8 3.2-2.1l8.3-18.2 14.7 20.6c.7 1 1.8 1.5 2.8 1.5.7 0 1.4-.2 2-.7 1.6-1.1 1.9-3.3.8-4.9l-14.7-20.6 19.9-2c1.9-.2 3.3-1.9 3.1-3.8-.1-1.9-1.8-3.3-3.7-3.1z"/><linearGradient id="SVGID_11_" gradientUnits="userSpaceOnUse" x1="334.633" y1="646.958" x2="405.311" y2="742.878"><stop offset="0" stop-color="#e2ddcd"/><stop offset=".277" stop-color="#d9d4c4"/><stop offset=".735" stop-color="#bfbaad"/><stop offset=".994" stop-color="#aea99d"/></linearGradient><path class="st10" d="M428.4 730.8l-24.7-5.6 13.6-14.7c1.3-1.4 1.2-3.6-.2-4.9-1.4-1.3-3.6-1.2-4.9.2l-13.6 14.7-7.5-24.1c-.6-1.8-2.5-2.9-4.4-2.3-1.8.6-2.9 2.5-2.3 4.4l7.5 24.1-19.5-4.4c-1.9-.4-3.8.8-4.2 2.6-.4 1.9.8 3.8 2.6 4.2l19.5 4.4-17.2 18.6c-1.3 1.4-1.2 3.6.2 4.9.7.6 1.5.9 2.4.9.9 0 1.9-.4 2.6-1.1l17.2-18.6 5.9 19.1c.5 1.5 1.8 2.5 3.3 2.5.3 0 .7-.1 1-.2 1.8-.6 2.9-2.5 2.3-4.4l-5.9-19.1 24.7 5.6c.3.1.5.1.8.1 1.6 0 3-1.1 3.4-2.7.4-1.9-.8-3.8-2.6-4.2z"/><linearGradient id="SVGID_12_" gradientUnits="userSpaceOnUse" x1="109.54" y1="818.727" x2="181.901" y2="929.793"><stop offset="0" stop-color="#e2ddcd"/><stop offset=".277" stop-color="#d9d4c4"/><stop offset=".735" stop-color="#bfbaad"/><stop offset=".994" stop-color="#aea99d"/></linearGradient><path class="st11" d="M197.4 894.5c-1.1-1.6-3.2-2.1-4.9-1l-21.1 14-1.2-20c-.1-1.9-1.8-3.4-3.7-3.3-1.9.1-3.4 1.8-3.3 3.7l1.2 19.9-22.6-11.3c-1.7-.9-3.8-.2-4.7 1.6-.9 1.7-.2 3.8 1.6 4.7l22.6 11.3-16.7 11c-1.6 1.1-2.1 3.2-1 4.9.7 1 1.8 1.6 2.9 1.6.7 0 1.3-.2 1.9-.6l16.7-11 1.6 25.2c.1 1.9 1.7 3.3 3.5 3.3h.2c1.9-.1 3.4-1.8 3.3-3.7l-1.6-25.2 17.9 8.9c.5.2 1 .4 1.6.4 1.3 0 2.5-.7 3.1-1.9.9-1.7.2-3.8-1.6-4.7l-17.9-8.9 21.1-14c1.7-1.1 2.1-3.3 1.1-4.9z"/><linearGradient id="SVGID_13_" gradientUnits="userSpaceOnUse" x1="1703.51" y1="160.289" x2="1801.516" y2="289.572"><stop offset="0" stop-color="#e2ddcd"/><stop offset=".277" stop-color="#d9d4c4"/><stop offset=".735" stop-color="#bfbaad"/><stop offset=".994" stop-color="#aea99d"/></linearGradient><path class="st12" d="M1802.6 251.9l-19.9 2 10.4-23c.8-1.8 0-3.8-1.7-4.6-1.8-.8-3.8 0-4.6 1.7l-10.4 23-11.6-16.3c-1.1-1.6-3.3-1.9-4.9-.8-1.6 1.1-1.9 3.3-.8 4.9l11.6 16.3-25.2 2.5c-1.9.2-3.3 1.9-3.1 3.8.2 1.8 1.7 3.2 3.5 3.2h.3l25.1-2.5-8.2 18.2c-.8 1.8 0 3.8 1.7 4.6.5.2 1 .3 1.4.3 1.3 0 2.6-.8 3.2-2.1l8.3-18.2 14.7 20.6c.7 1 1.8 1.5 2.8 1.5.7 0 1.4-.2 2-.7 1.6-1.1 1.9-3.3.8-4.9l-14.7-20.6 19.9-2c1.9-.2 3.3-1.9 3.1-3.8-.1-1.9-1.8-3.3-3.7-3.1z"/><linearGradient id="SVGID_14_" gradientUnits="userSpaceOnUse" x1="2092.537" y1="868.312" x2="2158.166" y2="945.722"><stop offset="0" stop-color="#e2ddcd"/><stop offset=".277" stop-color="#d9d4c4"/><stop offset=".735" stop-color="#bfbaad"/><stop offset=".994" stop-color="#aea99d"/></linearGradient><path class="st13" d="M2177.8 929.9l-24.9-4.5 12.9-15.2c1.2-1.5 1.1-3.7-.4-4.9-1.5-1.2-3.7-1.1-4.9.4l-12.9 15.2-8.5-23.8c-.7-1.8-2.7-2.8-4.5-2.1-1.8.7-2.8 2.7-2.1 4.5l8.5 23.8-19.7-3.6c-1.9-.3-3.7.9-4.1 2.8s.9 3.7 2.8 4.1l19.7 3.6-16.4 19.3c-1.3 1.5-1.1 3.7.4 4.9.7.6 1.5.8 2.3.8 1 0 2-.4 2.7-1.2l16.3-19.3 6.7 18.8c.5 1.4 1.9 2.3 3.3 2.3.4 0 .8-.1 1.2-.2 1.8-.7 2.8-2.7 2.1-4.5l-6.7-18.8 24.9 4.5c.2 0 .4.1.6.1 1.7 0 3.1-1.2 3.4-2.9.5-1.9-.8-3.8-2.7-4.1z"/><linearGradient id="SVGID_15_" gradientUnits="userSpaceOnUse" x1="2133.773" y1="702.126" x2="2196.037" y2="776.17"><stop offset="0" stop-color="#e2ddcd"/><stop offset=".277" stop-color="#d9d4c4"/><stop offset=".735" stop-color="#bfbaad"/><stop offset=".994" stop-color="#aea99d"/></linearGradient><path class="st14" d="M2211.5 773.5l-20.5-14.8 18.2-8.2c1.8-.8 2.6-2.9 1.8-4.6-.8-1.8-2.9-2.6-4.6-1.8l-18.2 8.2 2.6-25.1c.2-1.9-1.2-3.6-3.1-3.8-1.9-.2-3.6 1.2-3.8 3.1l-2.6 25.1-16.2-11.7c-1.6-1.1-3.8-.8-4.9.8-1.1 1.6-.8 3.8.8 4.9l16.2 11.7-23.1 10.3c-1.8.8-2.6 2.9-1.8 4.6.6 1.3 1.9 2.1 3.2 2.1.5 0 1-.1 1.4-.3l23.1-10.3-2 19.9c-.2 1.9 1.2 3.6 3.1 3.8h.4c1.8 0 3.3-1.3 3.5-3.1l2-19.9 20.5 14.8c.6.4 1.3.7 2 .7 1.1 0 2.2-.5 2.8-1.4 1.1-1.7.8-3.8-.8-5z"/><linearGradient id="SVGID_16_" gradientUnits="userSpaceOnUse" x1="1493.168" y1="531.975" x2="1547.018" y2="619.482"><stop offset="0" stop-color="#e2ddcd"/><stop offset=".277" stop-color="#d9d4c4"/><stop offset=".735" stop-color="#bfbaad"/><stop offset=".994" stop-color="#aea99d"/></linearGradient><path class="st15" d="M1566.3 616.7l-20.5-14.8 18.2-8.2c1.8-.8 2.6-2.9 1.8-4.6-.8-1.8-2.9-2.6-4.6-1.8l-18.2 8.2 2.6-25.1c.2-1.9-1.2-3.6-3.1-3.8-1.9-.2-3.6 1.2-3.8 3.1l-2.6 25.1-16.2-11.7c-1.6-1.1-3.8-.8-4.9.8-1.1 1.6-.8 3.8.8 4.9l16.2 11.7-23.1 10.3c-1.8.8-2.6 2.9-1.8 4.6.6 1.3 1.9 2.1 3.2 2.1.5 0 1-.1 1.4-.3l23.1-10.3-2 19.9c-.2 1.9 1.2 3.6 3.1 3.8h.4c1.8 0 3.3-1.3 3.5-3.1l2-19.9 20.5 14.8c.6.4 1.3.7 2 .7 1.1 0 2.2-.5 2.8-1.4 1.1-1.7.7-3.9-.8-5z"/><linearGradient id="SVGID_17_" gradientUnits="userSpaceOnUse" x1="557.723" y1="382.352" x2="619.987" y2="485.004"><stop offset="0" stop-color="#e2ddcd"/><stop offset=".277" stop-color="#d9d4c4"/><stop offset=".735" stop-color="#bfbaad"/><stop offset=".994" stop-color="#aea99d"/></linearGradient><path class="st16" d="M617.3 501.5h-.2c-1.9-.1-3.4-1.8-3.2-3.7l2.2-31.3c.1-1.9 1.8-3.4 3.7-3.2 1.9.1 3.4 1.8 3.2 3.7l-2.2 31.3c-.2 1.8-1.7 3.2-3.5 3.2z"/><linearGradient id="SVGID_18_" gradientUnits="userSpaceOnUse" x1="559.834" y1="381.072" x2="622.098" y2="483.723"><stop offset="0" stop-color="#e2ddcd"/><stop offset=".277" stop-color="#d9d4c4"/><stop offset=".735" stop-color="#bfbaad"/><stop offset=".994" stop-color="#aea99d"/></linearGradient><path class="st17" d="M619.5 470.2c-.7 0-1.4-.2-2-.6l-26-17.5c-1.6-1.1-2-3.3-.9-4.9 1.1-1.6 3.3-2 4.9-.9l26 17.5c1.6 1.1 2 3.3.9 4.9-.7 1-1.8 1.5-2.9 1.5z"/><linearGradient id="SVGID_19_" gradientUnits="userSpaceOnUse" x1="578.793" y1="369.572" x2="641.057" y2="472.224"><stop offset="0" stop-color="#e2ddcd"/><stop offset=".277" stop-color="#d9d4c4"/><stop offset=".735" stop-color="#bfbaad"/><stop offset=".994" stop-color="#aea99d"/></linearGradient><path class="st18" d="M619.5 470.2c-1.3 0-2.5-.7-3.1-2-.8-1.7-.1-3.8 1.6-4.7l28.2-13.7c1.7-.8 3.8-.1 4.7 1.6.8 1.7.1 3.8-1.6 4.7L621 469.9c-.5.2-1 .3-1.5.3z"/><linearGradient id="SVGID_20_" gradientUnits="userSpaceOnUse" x1="570.109" y1="374.839" x2="632.374" y2="477.491"><stop offset="0" stop-color="#e2ddcd"/><stop offset=".277" stop-color="#d9d4c4"/><stop offset=".735" stop-color="#bfbaad"/><stop offset=".994" stop-color="#aea99d"/></linearGradient><path class="st19" d="M641.1 484.8c-.7 0-1.4-.2-2-.6l-21.6-14.6c-1.6-1.1-2-3.3-.9-4.9 1.1-1.6 3.3-2 4.9-.9l21.6 14.6c1.6 1.1 2 3.3.9 4.9-.7.9-1.8 1.5-2.9 1.5z"/><linearGradient id="SVGID_21_" gradientUnits="userSpaceOnUse" x1="554.351" y1="384.397" x2="616.616" y2="487.049"><stop offset="0" stop-color="#e2ddcd"/><stop offset=".277" stop-color="#d9d4c4"/><stop offset=".735" stop-color="#bfbaad"/><stop offset=".994" stop-color="#aea99d"/></linearGradient><path class="st20" d="M596 481.6c-1.3 0-2.5-.7-3.1-2-.8-1.7-.1-3.8 1.6-4.7l23.4-11.4c1.7-.8 3.8-.1 4.7 1.6s.1 3.8-1.6 4.7l-23.4 11.4c-.5.3-1 .4-1.6.4z"/><linearGradient id="SVGID_22_" gradientUnits="userSpaceOnUse" x1="571.865" y1="373.774" x2="634.129" y2="476.426"><stop offset="0" stop-color="#e2ddcd"/><stop offset=".277" stop-color="#d9d4c4"/><stop offset=".735" stop-color="#bfbaad"/><stop offset=".994" stop-color="#aea99d"/></linearGradient><path class="st21" d="M619.5 470.2h-.2c-1.9-.1-3.4-1.8-3.2-3.7l1.8-26c.1-1.9 1.8-3.4 3.7-3.2 1.9.1 3.4 1.8 3.2 3.7l-1.8 26c-.2 1.8-1.7 3.2-3.5 3.2z"/><linearGradient id="SVGID_23_" gradientUnits="userSpaceOnUse" x1="746.197" y1="258.625" x2="816.876" y2="364.642"><stop offset="0" stop-color="#e2ddcd"/><stop offset=".277" stop-color="#d9d4c4"/><stop offset=".735" stop-color="#bfbaad"/><stop offset=".994" stop-color="#aea99d"/></linearGradient><path class="st22" d="M826.5 347.5l-19.4-4.8 17.5-18.2c1.3-1.4 1.3-3.6-.1-4.9-1.4-1.3-3.6-1.3-4.9.1l-17.5 18.2-5.5-19.2c-.5-1.9-2.5-2.9-4.3-2.4-1.9.5-2.9 2.5-2.4 4.3l5.5 19.2-24.5-6.1c-1.9-.5-3.8.7-4.2 2.6-.5 1.9.7 3.8 2.6 4.2l24.5 6.1-14 14.4c-1.3 1.4-1.3 3.6.1 4.9.7.7 1.6 1 2.4 1 .9 0 1.8-.4 2.5-1.1l13.9-14.4 7 24.3c.4 1.5 1.8 2.5 3.4 2.5.3 0 .6 0 1-.1 1.9-.5 2.9-2.5 2.4-4.3l-7-24.3 19.4 4.8c.3.1.6.1.8.1 1.6 0 3-1.1 3.4-2.7.5-1.9-.7-3.8-2.6-4.2z"/><linearGradient id="SVGID_24_" gradientUnits="userSpaceOnUse" x1="1330.5" y1="576.408" x2="1466.43" y2="775.561"><stop offset="0" stop-color="#fceec2"/><stop offset=".197" stop-color="#f5e6b9"/><stop offset=".524" stop-color="#e4d19f"/><stop offset=".939" stop-color="#c7af76"/><stop offset=".994" stop-color="#c3aa70"/></linearGradient><path class="st23" d="M1477.4 796.2c-1.4 0-2.8-.3-4.1-1l-36.2-18.1-36.2 18.1c-3.1 1.6-6.8 1.2-9.6-.9s-4.1-5.6-3.4-9.1l7.7-38.4-28.3-28.4c-2.5-2.5-3.3-6.1-2.2-9.4 1.1-3.3 4-5.7 7.5-6.1l38.4-5.1 18.1-36.3c1.6-3.1 4.7-5.1 8.2-5.1s6.6 1.9 8.2 5.1l18.1 36.3 38.4 5.1c3.5.5 6.3 2.8 7.5 6.1 1.1 3.3.3 6.9-2.2 9.4l-28.3 28.4 7.7 38.4c.7 3.5-.6 6.9-3.4 9.1-2 1.3-3.9 1.9-5.9 1.9zm-40.3-28.2c1.4 0 2.8.3 4.1 1l36.2 18.1-7.7-38.4c-.6-3 .3-6.1 2.5-8.3l28.3-28.4-38.4-5.1c-3-.4-5.6-2.3-7-5l-18.1-36.3-18.1 36.3c-1.4 2.7-4 4.6-7 5l-38.4 5.1 28.3 28.4c2.2 2.2 3.1 5.3 2.5 8.3l-7.7 38.4 36.2-18.1c1.5-.7 2.9-1 4.3-1z"/><linearGradient id="SVGID_25_" gradientUnits="userSpaceOnUse" x1="783.746" y1="649.759" x2="875.42" y2="776.206"><stop offset="0" stop-color="#fceec2"/><stop offset=".197" stop-color="#f5e6b9"/><stop offset=".524" stop-color="#e4d19f"/><stop offset=".939" stop-color="#c7af76"/><stop offset=".994" stop-color="#c3aa70"/></linearGradient><path class="st24" d="M877.6 784.6c-1 0-2-.2-3-.7l-20.9-10.4-20.9 10.4c-2.3 1.2-5 .9-7.1-.7-2.1-1.6-3-4.1-2.5-6.7l4.4-22.1-16.3-16.3c-1.8-1.8-2.4-4.5-1.6-6.9.8-2.4 2.9-4.2 5.5-4.5l22.1-2.9 10.4-20.9c1.1-2.3 3.4-3.7 6-3.7s4.9 1.4 6 3.7l10.4 20.9 22.1 2.9c2.6.3 4.6 2.1 5.5 4.5.8 2.4.2 5.1-1.6 6.9l-16.3 16.3 4.4 22c.5 2.5-.5 5.1-2.5 6.7-1.3 1.1-2.7 1.5-4.1 1.5zm-23.9-19.3c1 0 2.1.2 3 .7l19.1 9.6-4-20.1c-.4-2.2.2-4.5 1.8-6.1l14.9-14.9-20.1-2.7c-2.2-.3-4.1-1.7-5.1-3.7l-9.6-19.2-9.6 19.2c-1 2-2.9 3.4-5.1 3.7l-20.2 2.7 14.9 14.9c1.6 1.6 2.3 3.9 1.8 6.1l-4 20.1 19.1-9.5c1-.5 2.1-.8 3.1-.8zM828.2 755s0 .1 0 0zm-.4-1.1zm63.3-19.1zm-38.6-28.2z"/><path class="st25" d="M1399 175.2c-8.2-2.3-19.3-5.5-21.1-8.2-.1-.2-.3-.4-.4-.6l-44.8-49.1c-8.5-12.6-22.5-20.1-37.6-20.1h-147.7c-10.3 0-20.4 3.6-28.4 10.1l-80.4 65c-2.6 1.7-18.6 5.2-32.8 8.2-26.2 5.6-58.8 12.6-73.6 21.1-.4.2-.7.5-1 .7-11.2 11.2-20.6 33.3-20.6 48.2 0 7.7 1.1 19.5 4.1 29.5 5 16.6 12.8 20.1 18.5 20.1 7.8 0 13.2.2 18.9.3 6 .2 12.8.4 23.3.4 5.5 18.9 23 32.8 43.6 32.8 18 0 37.8-13.7 43.7-33.5h218.4c5.2 19.1 22.7 33.2 43.5 33.2 20.7 0 38.2-14.1 43.5-33.1.6.4 1.3.6 2 .7l7.7.7h.4c12.3 0 27.8-4.9 40.3-12.8 14.9-9.4 23.1-21.1 23.1-33.1V205c0-17.6-23.6-24.3-42.6-29.8zm-380.1 149.3c-20 0-36.3-16.3-36.3-36.3 0-20 16.3-36.3 36.3-36.3 20 0 36.3 16.3 36.3 36.3 0 16.8-15.8 36.3-36.3 36.3zm305.7-.4c-19.8 0-35.9-16.1-35.9-35.9 0-19.8 16.1-35.9 35.9-35.9 19.8 0 35.9 16.1 35.9 35.9 0 19.8-16.1 35.9-35.9 35.9zm107.9-68.3c0 19.5-33.6 36.6-54.1 36.7l-7.5-.7c-.5 0-.9 0-1.4.1.1-1.2.2-2.4.2-3.6 0-24.9-20.2-45.1-45.1-45.1s-45.1 20.2-45.1 45.1c0 .9 0 1.8.1 2.7h-215.3c.1-.9.1-1.8.1-2.7 0-25.1-20.4-45.5-45.4-45.5-25.1 0-45.5 20.4-45.5 45.5 0 1.2.1 2.4.1 3.5-9.4 0-15.5-.2-21.4-.4-5.8-.2-11.3-.3-19.2-.3-7.7 0-13.4-21.3-13.4-40.4 0-11.1 7.2-30.7 17.5-41.3 13.9-7.6 46.6-14.6 70.5-19.8 23.9-5.1 33.2-7.3 36.5-10l80.5-65c6.4-5.2 14.5-8 22.6-8H1295c12.2 0 23.4 6.1 30.2 16.3.1.2.3.4.4.6l44.8 49.1c3.8 5.3 13.6 8.1 26 11.6 16.1 4.6 36 10.3 36 20.9v50.7z"/><path class="st25" d="M1203.1 121c-2.5 0-4.6 2.1-4.6 4.6v52.7h-120.4c-2.5 0-4.6 2.1-4.6 4.6s2.1 4.6 4.6 4.6h125c2.5 0 4.6-2.1 4.6-4.6v-57.3c-.1-2.6-2.1-4.6-4.6-4.6zm98.9 1.7c-1.5-2-4.4-2.4-6.4-.8-2 1.5-2.4 4.4-.8 6.4l38.7 49.9h-104.4c-2.5 0-4.6 2.1-4.6 4.6s2.1 4.6 4.6 4.6h113.8c1.7 0 3.3-1 4.1-2.6.8-1.6.6-3.4-.5-4.8l-44.5-57.3zM1192.4 210h-34.3c-2.5 0-4.6 2.1-4.6 4.6s2.1 4.6 4.6 4.6h34.3c2.5 0 4.6-2.1 4.6-4.6s-2.1-4.6-4.6-4.6zm-173.5 51.5c-2.5 0-4.6 2.1-4.6 4.6s2.1 4.6 4.6 4.6c9.7 0 17.6 7.9 17.6 17.6 0 9.9-9.4 17.6-17.6 17.6-9.7 0-17.6-7.9-17.6-17.6 0-2.5-2.1-4.6-4.6-4.6s-4.6 2.1-4.6 4.6c0 14.7 12 26.7 26.7 26.7 6.5 0 13.1-2.8 18.3-7.8 5.4-5.2 8.4-11.9 8.4-19 .1-14.7-11.8-26.7-26.6-26.7zm305.7 0c-2.5 0-4.6 2.1-4.6 4.6s2.1 4.6 4.6 4.6c9.7 0 17.5 7.9 17.5 17.6 0 9.9-9.4 17.6-17.5 17.6-9.7 0-17.6-7.9-17.6-17.6 0-2.5-2.1-4.6-4.6-4.6s-4.6 2.1-4.6 4.6c0 14.7 12 26.7 26.7 26.7 6.5 0 13.1-2.8 18.3-7.8 5.4-5.2 8.4-11.9 8.4-19 .1-14.7-11.9-26.7-26.6-26.7z"/><linearGradient id="SVGID_26_" gradientUnits="userSpaceOnUse" x1="2139.925" y1="729.306" x2="2266.443" y2="910.649"><stop offset="0" stop-color="#fceec2"/><stop offset=".197" stop-color="#f5e6b9"/><stop offset=".524" stop-color="#e4d19f"/><stop offset=".939" stop-color="#c7af76"/><stop offset=".994" stop-color="#c3aa70"/></linearGradient><path class="st26" d="M2236.1 937c-6.3 0-13.6-6.5-13.6-24.8 0-24.4-7-31.4-31.4-31.4-18.3 0-24.8-7.3-24.8-13.6 0-4.1 2.8-7.9 7.6-10.3 4.3-2.2 10.3-3.3 17.2-3.3 24.4 0 31.4-7 31.4-31.4 0-18.3 7.3-24.8 13.6-24.8s13.6 6.5 13.6 24.8c0 24.4 7 31.4 31.4 31.4 18.3 0 24.8 7.3 24.8 13.6s-6.5 13.6-24.8 13.6c-24.4 0-31.4 7-31.4 31.4 0 18.3-7.3 24.8-13.6 24.8zm0-130.5c-1 .1-4.4 4.2-4.4 15.7 0 29.6-11 40.6-40.6 40.6-11.5 0-15.5 3.5-15.7 4.4.1 1 4.2 4.4 15.7 4.4 29.6 0 40.6 11 40.6 40.6 0 11.5 3.5 15.5 4.4 15.7 1-.1 4.4-4.2 4.4-15.7 0-29.6 11-40.6 40.6-40.6 11.5 0 15.5-3.5 15.7-4.4-.1-1-4.2-4.4-15.7-4.4-29.6 0-40.6-11-40.6-40.6.1-11.5-3.4-15.5-4.4-15.7z"/><linearGradient id="SVGID_27_" gradientUnits="userSpaceOnUse" x1="1964.625" y1="298.21" x2="2097.265" y2="456.64"><stop offset="0" stop-color="#fceec2"/><stop offset=".197" stop-color="#f5e6b9"/><stop offset=".524" stop-color="#e4d19f"/><stop offset=".939" stop-color="#c7af76"/><stop offset=".994" stop-color="#c3aa70"/></linearGradient><path class="st27" d="M2101.1 394.9c-12.7-.4-20.3-2.7-24.7-7.4s-6.1-12.4-5.7-25.1c.2-7-.7-13-2.7-17.3-2.2-4.9-5.9-7.8-10-7.9-6.2-.2-13.8 6-14.4 24.4-.8 24.4-8.1 31.2-32.5 30.3-18.3-.6-25.1 6.5-25.3 12.7s6 13.8 24.4 14.4c12.7.4 20.3 2.7 24.7 7.4s6.1 12.4 5.7 25.1c-.6 18.3 6.5 25.1 12.7 25.3h.3c6.2 0 13.5-6.3 14.1-24.4.4-12.7 2.7-20.3 7.4-24.7 4.7-4.4 12.4-6.1 25.1-5.7 18.3.6 25.1-6.5 25.3-12.7.2-6.2-6.1-13.8-24.4-14.4zm-.6 18c-15.3-.5-25.1 2-31.7 8.2s-9.8 15.7-10.3 31c-.4 11.5-4 15.4-4.9 15.5-1-.2-4.3-4.3-3.9-15.8.5-15.3-2-25.1-8.2-31.7-6.2-6.6-15.7-9.8-31-10.3-11.5-.4-15.4-4-15.5-4.9.2-.9 3.9-3.9 14-3.9h1.8c29.6 1 40.9-9.6 41.9-39.2.4-11.5 4-15.4 4.9-15.5 1 .2 4.3 4.3 3.9 15.8-.5 15.3 2 25.1 8.2 31.7 6.2 6.6 15.7 9.8 31 10.3 11.5.4 15.4 4 15.5 4.9 0 1-4.2 4.3-15.7 3.9z"/><path class="st28" d="M1223.3 867.5c-24.4 0-31.4-7-31.4-31.4 0-18.3-7.3-24.8-13.6-24.8s-13.6 6.5-13.6 24.8c0 24.4-7 31.4-31.4 31.4-7 0-12.9 1.1-17.2 3.3-4.8 2.4-7.6 6.2-7.6 10.3 0 6.3 6.5 13.6 24.8 13.6 24.4 0 31.4 7 31.4 31.4 0 18.3 7.3 24.8 13.6 24.8s13.6-6.5 13.6-24.8c0-24.4 7-31.4 31.4-31.4 18.3 0 24.8-7.3 24.8-13.6s-6.5-13.6-24.8-13.6zm0 18c-29.6 0-40.6 11-40.6 40.6 0 11.5-3.5 15.5-4.4 15.7-1-.1-4.4-4.2-4.4-15.7 0-29.6-11-40.6-40.6-40.6-11.5 0-15.5-3.5-15.7-4.4.1-1 4.2-4.4 15.7-4.4 29.6 0 40.6-11 40.6-40.6 0-11.5 3.5-15.5 4.4-15.7 1 .1 4.4 4.2 4.4 15.7 0 29.6 11 40.6 40.6 40.6 11.5 0 15.5 3.5 15.7 4.4-.1.9-4.2 4.4-15.7 4.4z"/><path class="st25" d="M1398 905.9c-.4-.5-44.9-55-44.9-119.2 0-1.2-.5-2.4-1.3-3.2-10-10-28.1-10.8-46.2-10.9 0-17.4-.6-38.6-7.1-50.7 10.4-8.2 16.7-32.9 16.7-39.9 0-2.5-2.1-4.6-4.6-4.6-7.2 0-32.9 6.6-40.5 17.4-22.8-9.8-77.6-25.2-99-26.8-2.5-4.4-9.7-12.3-30.4-26.7-4.4-3-24-16.4-34.9-20.1-.1-18.8-1.1-62.6-1.5-76.3 12.8-2.4 30-13.4 30-24.7 0-1.5-.8-3-2-3.8-7.9-5.3-16.8-8.6-26.5-9.8v-5.4c0-24 44.8-24 71.6-24 28.3 0 42.6-17.6 42.6-52.2v-47.6c0-19.2-7.6-26-14.1-26s-14.1 6.8-14.1 26V425c0 12.6-3.9 16.8-4.9 16.8-1 0-4.9-4.2-4.9-16.8v-38.1c0-19.2-7.6-26-14.1-26s-14.1 6.8-14.1 26v47.6c0 12.6-3.9 16.8-4.9 16.8-1 0-4.9-4.2-4.9-16.8 0-19.2-7.6-26-14.1-26s-14.1 6.8-14.1 26c0 2.5 2.1 4.6 4.6 4.6s4.6-2.1 4.6-4.6c0-12.6 3.9-16.8 4.9-16.8s4.9 4.2 4.9 16.8c0 19.2 7.6 26 14.1 26s14.1-6.8 14.1-26v-47.6c0-12.6 3.9-16.8 4.9-16.8s4.9 4.2 4.9 16.8V425c0 19.2 7.6 26 14.1 26s14.1-6.8 14.1-26v-47.6c0-12.6 3.9-16.8 4.9-16.8s4.9 4.2 4.9 16.8V425c0 29.7-10.3 43-33.5 43-14.3 0-33.8 0-49.8 3.7-20.5 4.7-30.9 14.6-30.9 29.4v4.8c-3.2 0-6.5.2-9.9.5v-52.9c0-12.6 3.9-16.8 4.9-16.8.3 0 1.4.7 2.4 2.8 1.6 3.2 2.5 8.2 2.5 14 0 2.5 2.1 4.6 4.6 4.6s4.6-2.1 4.6-4.6c0-19.2-7.6-26-14.1-26s-14.1 6.8-14.1 26v54.3c-8.1 1.7-16.7 4.3-25.7 8.1-6.9 2.9-17.4 1-28.5-.9-13.5-2.4-27.4-4.8-38.4.5-1.6.8-2.6 2.4-2.6 4.1 0 12.1 27.6 46.4 55.4 51.5-8.6 21-16.4 59.9-17.2 86.9-8.7-1.1-20.6-5.1-32.1-9-15-5-29.3-9.8-39.5-9.8-2.5 0-4.6 2.1-4.6 4.6 0 3.9-.1 9.6-.2 16.1-.1 9-.3 20.1-.3 31 0 .7.2 1.4.5 2.1 10 19.4 36.8 66.8 37.1 67.3.3.5.7 1 1.2 1.4l49.2 38.1c1.4 1.1 3.2 1.3 4.8.5 1.6-.8 2.6-2.4 2.6-4.1v-28.6c0-1.4-.7-2.8-1.8-3.7l-36.9-27.7-14.4-43.1 45 30c13 25 41.1 42.2 83.5 51.3 32 6.9 64 7.2 79.5 7.2 20.1 27.7 66.5 47.1 114.6 47.6 17.6 19 34 63.7 34.1 64.1.2.5.5 1 .8 1.4l47.6 56c.9 1 2.2 1.6 3.5 1.6.5 0 1.1-.1 1.6-.3 1.8-.7 3-2.4 3-4.3v-39.1c-.2-.9-.6-1.9-1.3-2.7zm-8.1 29.5l-39-45.9c-2.4-6.6-18.9-49.6-37.3-68-.9-.9-2-1.3-3.2-1.3-47.1 0-92.5-18.7-110.4-45.5-.8-1.3-2.3-2-3.8-2-14.1 0-47.1 0-79.9-7-40.1-8.6-66.3-24.6-77.8-47.5-.4-.7-.9-1.3-1.6-1.8l-57.1-38.1c-1.6-1.1-3.8-1-5.3.2-1.6 1.2-2.2 3.2-1.6 5.1l19 57.1c.3.9.9 1.7 1.6 2.2l36.2 27.2V787l-40.9-32c-3.5-6.2-26.4-46.8-36-65.2 0-10.4.2-21.1.3-29.7.1-4.2.1-8.1.2-11.3 8.7 1.2 20.5 5.1 32.1 8.9 15 5 29.3 9.8 39.5 9.8 2.5 0 4.6-2.1 4.6-4.6 0-28.5 9.4-74.9 19.1-93.6.7-1.4.7-3.1-.2-4.5s-2.3-2.2-3.9-2.2c-23.3 0-47.8-29.1-52.3-40.1 8.1-2.3 19-.4 29.5 1.5 12.4 2.2 24.2 4.3 33.6.4 28.2-11.7 51.5-12.4 69.2-2.1-2.9 5.7-15.9 13.9-24.9 13.9-1.2 0-2.4.5-3.3 1.4s-1.3 2.1-1.3 3.3c0 .6 1.6 65.2 1.6 84 0 2.5 2 4.6 4.5 4.6 2.8.2 15.9 6.8 33.3 18.7 19.4 13.3 27.9 22.1 28.8 24.6.1 2.4 2.1 4.3 4.6 4.3 15.6 0 80.6 17.1 102.6 28.1 1.4.7 3.1.6 4.5-.2s2.2-2.3 2.2-3.9c0-.7 2.2-4.4 12.7-8.9 5.4-2.3 11.2-4 15.6-4.9-.9 4.4-2.6 10.1-4.9 15.6-4.5 10.5-8.1 12.7-8.9 12.7-1.9 0-3.5 1.1-4.2 2.8-.7 1.7-.3 3.7 1 5 8.2 8.2 8.2 36.8 8.2 53.9 0 2.5 2.1 4.6 4.6 4.6 16.9 0 34.3 0 43 7 .8 61.7 38.9 112.8 46 121.7v24.8zM620.2 632.8l-47-27.1 29.6-7.9c2.4-.7 3.9-3.2 3.2-5.6-.7-2.4-3.2-3.9-5.6-3.2L562 599.2l-34.3-19.8 34.3-19.8 38.5 10.3c.4.1.8.2 1.2.2 2 0 3.9-1.3 4.4-3.4.7-2.4-.8-5-3.2-5.6l-29.6-7.9 47-27.1c2.2-1.3 2.9-4.1 1.7-6.3-1.3-2.2-4.1-2.9-6.3-1.7l-47 27.1 7.9-29.6c.7-2.4-.8-5-3.2-5.6-2.4-.7-5 .8-5.6 3.2l-10.3 38.5-34.3 19.8V532l28.2-28.2c1.8-1.8 1.8-4.7 0-6.5-1.8-1.8-4.7-1.8-6.5 0L523.1 519v-54.3c0-2.5-2.1-4.6-4.6-4.6s-4.6 2.1-4.6 4.6V519l-21.7-21.7c-1.8-1.8-4.7-1.8-6.5 0-1.8 1.8-1.8 4.7 0 6.5L514 532v39.5l-34.2-19.8-10.3-38.5c-.7-2.4-3.2-3.9-5.6-3.2-2.4.7-3.9 3.2-3.2 5.6l7.9 29.6-47-27.1c-2.2-1.3-5-.5-6.3 1.7-1.3 2.2-.5 5 1.7 6.3l47 27.1-29.6 7.9c-2.4.7-3.9 3.2-3.2 5.6.5 2 2.4 3.4 4.4 3.4.4 0 .8-.1 1.2-.2l38.5-10.3 34.3 19.8-34.3 19.8-38.5-10.3c-2.4-.7-5 .8-5.6 3.2-.7 2.4.8 5 3.2 5.6l29.6 7.9-47 27.1c-2.2 1.3-2.9 4.1-1.7 6.3.8 1.5 2.4 2.3 4 2.3.8 0 1.6-.2 2.3-.6l47-27.1-7.9 29.6c-.7 2.4.8 5 3.2 5.6.4.1.8.2 1.2.2 2 0 3.9-1.3 4.4-3.4l10.3-38.5 34.2-19.8v39.6l-28.2 28.2c-1.8 1.8-1.8 4.7 0 6.5 1.8 1.8 4.7 1.8 6.5 0l21.7-21.7v54.3c0 2.5 2.1 4.6 4.6 4.6s4.6-2.1 4.6-4.6v-54.3l21.7 21.7c.9.9 2.1 1.3 3.2 1.3 1.2 0 2.3-.4 3.2-1.3 1.8-1.8 1.8-4.7 0-6.5l-28.2-28.2v-39.6l34.3 19.8 10.3 38.5c.5 2 2.4 3.4 4.4 3.4.4 0 .8-.1 1.2-.2 2.4-.7 3.9-3.2 3.2-5.6l-7.9-29.6 47 27.1c.7.4 1.5.6 2.3.6 1.6 0 3.1-.8 4-2.3 1.2-2.1.5-4.9-1.7-6.2zM2011 277.1c-.5-2.5-3-4-5.4-3.5l-34.1 7.4 9.9-15.4c1.4-2.1.8-5-1.4-6.3-2.1-1.4-5-.8-6.3 1.4l-14.9 23.1-24.3 5.3 7.6-23.7 24.4-12.5c2.2-1.2 3.1-3.9 2-6.2a4.72 4.72 0 0 0-6.2-2l-16.3 8.4 10.7-33.2c.8-2.4-.6-5-3-5.8-2.4-.8-5 .6-5.8 3l-10.7 33.2-8.4-16.3a4.72 4.72 0 0 0-6.2-2 4.72 4.72 0 0 0-2 6.2l12.5 24.4-7.6 23.7-16.7-18.4 1.3-27.4c.1-2.5-1.8-4.7-4.4-4.8-2.5-.1-4.7 1.8-4.8 4.4l-.9 18.3-23.4-25.8c-1.7-1.9-4.6-2-6.5-.3-1.9 1.7-2 4.6-.3 6.5l23.4 25.8-18.3-.9c-2.5-.1-4.7 1.8-4.8 4.4s1.8 4.7 4.4 4.8l27.4 1.3 16.7 18.4-24.3 5.3-23.1-14.9c-2.1-1.4-5-.8-6.3 1.4-1.4 2.1-.8 5 1.4 6.3l15.4 9.9-34.1 7.4c-2.5.5-4 3-3.5 5.4.5 2.1 2.4 3.6 4.5 3.6.3 0 .6 0 1-.1l34.1-7.4-9.9 15.4c-1.4 2.1-.8 5 1.4 6.3.8.5 1.6.7 2.5.7 1.5 0 3-.7 3.9-2.1l14.9-23.1 24.3-5.3-7.6 23.7-24.4 12.5a4.72 4.72 0 0 0-2 6.2c1.2 2.2 3.9 3.1 6.2 2l16.3-8.4-10.7 33.2c-.8 2.4.6 5 3 5.8.5.1.9.2 1.4.2 1.9 0 3.7-1.2 4.4-3.2l10.7-33.2 8.4 16.3c.8 1.6 2.4 2.5 4.1 2.5.7 0 1.4-.2 2.1-.5 2.2-1.2 3.1-3.9 2-6.2l-12.5-24.4 7.6-23.7 16.7 18.4-1.3 27.4c-.1 2.5 1.8 4.7 4.4 4.8h.2c2.4 0 4.5-1.9 4.6-4.4l.9-18.3 23.4 25.8c.9 1 2.1 1.5 3.4 1.5 1.1 0 2.2-.4 3.1-1.2 1.9-1.7 2-4.6.3-6.5l-23.4-25.8 18.3.9c2.5.1 4.7-1.8 4.8-4.4s-1.8-4.7-4.4-4.8l-27.4-1.3-16.7-18.4 24.3-5.3 23.1 14.9c.8.5 1.6.7 2.5.7 1.5 0 3-.7 3.9-2.1 1.4-2.1.8-5-1.4-6.3l-15.4-9.9 34.1-7.4c2.2-.5 3.8-2.9 3.2-5.4zm-982.1 593.4H994l12.9-12.9c1.8-1.8 1.8-4.7 0-6.5-1.8-1.8-4.7-1.8-6.5 0L981 870.5h-24.9l12.5-21.5 26.5-7.1c2.4-.7 3.9-3.2 3.2-5.6s-3.2-3.9-5.6-3.2l-17.7 4.7 17.4-30.2c1.3-2.2.5-5-1.7-6.3-2.2-1.3-5-.5-6.3 1.7L967 833.2l-4.7-17.7c-.7-2.4-3.2-3.9-5.6-3.2-2.4.7-3.9 3.2-3.2 5.6l7.1 26.5-12.5 21.5-12.4-21.6 7.1-26.5c.7-2.4-.8-5-3.2-5.6-2.4-.7-5 .8-5.6 3.2l-4.7 17.7-17.4-30.2c-1.3-2.2-4.1-2.9-6.3-1.7-2.2 1.3-2.9 4.1-1.7 6.3l17.4 30.2-17.7-4.7c-2.4-.7-5 .8-5.6 3.2-.7 2.4.8 5 3.2 5.6l26.5 7.1 12.4 21.6h-24.9L896 851c-1.8-1.8-4.7-1.8-6.5 0-1.8 1.8-1.8 4.7 0 6.5l12.9 12.9h-34.9c-2.5 0-4.6 2-4.6 4.6 0 2.5 2 4.6 4.6 4.6h34.9l-12.9 12.9c-1.8 1.8-1.8 4.7 0 6.5.9.9 2.1 1.3 3.2 1.3 1.2 0 2.3-.4 3.2-1.3l19.4-19.4h24.9l-12.5 21.5-26.5 7.1c-2.4.7-3.9 3.2-3.2 5.6.7 2.4 3.2 3.9 5.6 3.2l17.7-4.7-17.4 30.2c-1.3 2.2-.5 5 1.7 6.3.7.4 1.5.6 2.3.6 1.6 0 3.1-.8 4-2.3l17.4-30.2 4.7 17.7c.5 2 2.4 3.4 4.4 3.4.4 0 .8-.1 1.2-.2 2.4-.7 3.9-3.2 3.2-5.6l-7.1-26.5 12.5-21.5 12.4 21.6-7.1 26.5c-.7 2.4.8 5 3.2 5.6.4.1.8.2 1.2.2 2 0 3.9-1.3 4.4-3.4L967 917l17.4 30.2c.8 1.5 2.4 2.3 4 2.3.8 0 1.6-.2 2.3-.6 2.2-1.3 2.9-4.1 1.7-6.3L975 912.4l17.7 4.7c2.4.7 5-.8 5.6-3.2s-.8-5-3.2-5.6l-26.5-7.1-12.4-21.6h24.9l19.4 19.4c.9.9 2.1 1.3 3.2 1.3 1.2 0 2.3-.4 3.2-1.3 1.8-1.8 1.8-4.7 0-6.5L994 879.6h34.9c2.5 0 4.6-2 4.6-4.6 0-2.5-2.1-4.5-4.6-4.5zm1040.2-186.6c-2.5 0-4.6 2.1-4.6 4.6s2.1 4.6 4.6 4.6c7.9 0 14.4 6.4 14.4 14.4s-6.4 14.4-14.4 14.4-14.4-6.4-14.4-14.4c0-2.5-2.1-4.6-4.6-4.6s-4.6 2.1-4.6 4.6c0 13 10.6 23.5 23.5 23.5s23.5-10.6 23.5-23.5-10.5-23.6-23.4-23.6z"/><path class="st25" d="M2381.3 632c-6.9-8.2-14.7-14.4-23.3-18.7 5-3 8.4-8.5 8.4-14.8 0-9.5-7.7-17.2-17.2-17.2h-122.3c-9.5 0-17.2 7.7-17.2 17.2s7.7 17.2 17.2 17.2h4.3c16.2 17.6 16.3 45.4 16.3 67.9h-39.1l-42.9-113.1 17-49.6h20.7c2.5 0 4.6-2.1 4.6-4.6s-2.1-4.6-4.6-4.6h-19.6c-.3-2.7-1.1-5.3-2.4-7.8-2.9-5.2-7.9-9.1-13.8-10.5-10.3-2.5-20.8 2.6-25 12.1l-1.6 3.6c-.2-.4-.4-.8-.7-1.2-2.8-4.7-7.1-8-12.1-9.1l-26.3-5.9c-1.5-.3-3.1.1-4.2 1.2-1.1 1.1-1.6 2.7-1.2 4.2l8.5 37.9c.5 2.1 2.3 3.6 4.5 3.6h15c1.1 0 2.2-.1 3.3-.3l-27 61.4c-.6 1.2-10.2 19.3-27.7 19.3-11.9 0-24.8 4.8-35.3 13.1-10.9 8.6-17.1 19.5-17.1 29.8 0 2.5 2.1 4.6 4.6 4.6h15.8c-12.3 8.9-20.4 23.3-20.4 39.6 0 26.9 21.9 48.8 48.8 48.8s48.8-21.9 48.8-48.8c0-6.8-1.4-13.2-3.9-19.1 2.8 1.3 5.8 2.3 9.4 3.1 1.1.2 2.2.4 3.3.4 3.6 0 7.1-1.3 9.9-3.7 3.7-3.1 5.6-7.7 5.4-12.5 0-4.5-2.1-9.4-4.5-15.1-5.8-13.4-12.3-28.6 3.4-44.7 4.6-4.6 7.9-8.2 10.2-11.1l25.9 68.3c4.4 11.7 15.7 19.5 28.1 19.8h74.2c-1.5 4.8-2.3 9.7-2.3 14.6 0 26.9 21.9 48.8 48.8 48.8s48.8-21.9 48.8-48.8c0-4.9-.8-9.8-2.4-14.6h.1c5.4 0 11-2 15.6-5.6 5-3.9 7.9-9.3 7.9-14.6-.3-15-5.5-29.4-14.7-40.5zm-268.5-101.2l-6.1-27.3 19.3 4.3c2.6.6 4.8 2.3 6.2 4.8 1.8 3.1 2.2 6.8 1.2 10.3 0 .1 0 .1-.1.2-1.4 4.6-5.1 7.6-9.2 7.6h-11.3zm106.1 67.7c0-4.4 3.6-8 8-8h122.3c4.4 0 8 3.6 8 8s-3.6 8-8 8h-122.3c-4.4.1-8-3.6-8-8zM2069.1 747c-21.8 0-39.6-17.8-39.6-39.6s17.7-39.6 39.5-39.6h.4c21.7.1 39.4 17.8 39.4 39.6-.1 21.9-17.9 39.6-39.7 39.6zm65.1-137.6c-20.1 20.6-11.2 41.2-5.3 54.8 2 4.6 3.8 8.9 3.8 11.5v.4c.1 2-.7 3.9-2.2 5.1-1.5 1.2-3.3 1.7-5.2 1.3-8.8-1.9-13.9-6-19.4-10.3-7.8-6.3-16.7-13.3-36.6-13.5H2030c3.7-14.7 24-29.2 42.6-29.2 23.6 0 35.5-23.5 35.9-24.5 0-.1.1-.1.1-.2l42.1-95.5c2.4-5.5 8.5-8.4 14.5-6.9 3.4.8 6.3 3 7.9 6 .6 1.1 1 2.2 1.2 3.4h-13.7c-2.5 0-4.6 2.1-4.6 4.6s2.1 4.6 4.6 4.6h12.2l-24.8 72.3c-.5 1-3.7 6-13.8 16.1zm51.3 60.4l-28.3-74.6 3.8-11 37.3 98.2c-5.9-2.2-10.6-6.7-12.8-12.6zm140.1 77.2c-21.8 0-39.6-17.8-39.6-39.6 0-4.8.9-9.7 2.8-14.4h36.8c7.9 0 14.4 6.4 14.4 14.4s-6.4 14.4-14.4 14.4-14.4-6.4-14.4-14.4c0-2.5-2.1-4.6-4.6-4.6s-4.6 2.1-4.6 4.6c0 13 10.6 23.5 23.5 23.5s23.5-10.6 23.5-23.5c0-5.4-1.8-10.4-4.9-14.4h18.2c1.9 4.7 2.8 9.5 2.8 14.4.2 21.9-17.6 39.6-39.5 39.6zm46.5-63.3h-115.4c0-20.7-.1-48-13.8-67.9h45c-4.7 3.1-9.1 7.1-13 11.8-7.7 9.2-11.9 21.1-11.9 33.6 0 2.5 2.1 4.6 4.6 4.6s4.6-2.1 4.6-4.6c0-10.3 3.5-20.2 9.8-27.8 9.8-11.8 22.3-17.7 37-17.7h8.9c18.4 0 34 7.4 46.3 22.1 7.9 9.5 12.3 21.8 12.3 34.8 0 5.9-8 11.1-14.4 11.1z"/><path class="st28" d="M1540.6 262.2c0-3.9 3.2-7.1 7.1-7.1s7.1 3.2 7.1 7.1c0 2.5 2.1 4.6 4.6 4.6s4.6-2.1 4.6-4.6c0-9-7.3-16.3-16.3-16.3s-16.3 7.3-16.3 16.3c0 2.5 2.1 4.6 4.6 4.6s4.6-2 4.6-4.6zm78.4 0c0-3.9 3.2-7.1 7.1-7.1s7.1 3.2 7.1 7.1c0 2.5 2.1 4.6 4.6 4.6s4.6-2.1 4.6-4.6c0-9-7.3-16.3-16.3-16.3s-16.3 7.3-16.3 16.3c0 2.5 2.1 4.6 4.6 4.6s4.6-2 4.6-4.6zm108.1-149.7c-10.6 0-19.8 5.9-24.6 14.6-11.5-13.9-40.3-27.6-88.5-27.6-37.8 0-64 4.7-82.4 14.9-22.6 12.5-34 33-34.8 62.8-5.1 2.3-8.7 7.4-8.7 13.3v19.1c0 8 6.5 14.6 14.6 14.6h167.6c8 0 14.6-6.5 14.6-14.6v-19.1c0-5.9-3.6-11-8.7-13.3.4-20.3 4.6-30.6 23.3-31.9 2.2 13.2 13.8 23.3 27.6 23.3 15.5 0 28-12.6 28-28s-12.6-28.1-28-28.1zm-51.5 97.1c0 3-2.4 5.4-5.4 5.4h-167.6c-3 0-5.4-2.4-5.4-5.4v-19.1c0-3 2.4-5.4 5.4-5.4h167.6c3 0 5.4 2.4 5.4 5.4v19.1zm-8.6-33.7h-161c1-25.4 10.9-43 30-53.5 17-9.4 41.8-13.8 78-13.8 52.5 0 77.9 17 83.7 27.6-20.9 1.8-29.8 13.4-30.7 39.7zm60.1-16.5c-10.4 0-18.9-8.5-18.9-18.9s8.5-18.9 18.9-18.9 18.9 8.5 18.9 18.9-8.5 18.9-18.9 18.9z"/><path class="st28" d="M1716.6 349.6c13.2-16.8-.9-45-14.6-72.3-8.5-17-17.3-34.5-17.3-46 0-2.5-2.1-4.6-4.6-4.6s-4.6 2.1-4.6 4.6v71c-8.1-5.4-17.3-8.7-26.7-8.7h-1.7c-6.5-9.4-17.3-15.6-29.6-15.6-3.7 0-7.6.8-11.3 2.2-1.1-2.5-2.6-4.8-4.6-6.7-1.8-1.8-4.7-1.8-6.5 0-1.8 1.8-1.8 4.7 0 6.5 2.4 2.4 3.7 5.5 3.7 8.9s-1.3 6.5-3.7 8.9c-2.4 2.4-5.5 3.7-8.9 3.7s-6.5-1.3-8.9-3.7c-2.4-2.4-3.7-5.5-3.7-8.9s1.3-6.5 3.7-8.9c1.8-1.8 1.8-4.7 0-6.5-1.8-1.8-4.7-1.8-6.5 0-2 2-3.5 4.3-4.6 6.7-3.7-1.5-7.6-2.2-11.3-2.2-12.3 0-23.1 6.2-29.6 15.6h-1.7c-9.3 0-18.6 3.3-26.7 8.7v-71c0-2.5-2.1-4.6-4.6-4.6s-4.6 2.1-4.6 4.6c0 11.4-8.8 29-17.3 46-13.7 27.3-27.8 55.6-14.6 72.3-4.4 4.3-6.6 8.7-6.8 9.1-.3.6-.5 1.3-.5 2 0 6.5 8.6 11.3 19.7 14.6-6.5 7.8-10.2 17.6-10.2 28 0 22.6 17.3 41.2 39.3 43.4 2.2 22 20.8 39.3 43.4 39.3 19 0 34.5 15.5 34.5 34.5 0 2.5 2.1 4.6 4.6 4.6s4.6-2.1 4.6-4.6c0-24.1-19.6-43.7-43.7-43.7-19 0-34.5-15.5-34.5-34.5 0-2.5-2.1-4.6-4.6-4.6-19 0-34.5-15.5-34.5-34.5 0-9.8 4.1-19 11.3-25.5 7.3 1.4 14.9 2.3 21.2 2.6 2.7.1 5.4.2 7.9.2 36.9 0 56.4-13.1 65-21.2 5.9-5.6 10.3-12.2 13.3-19.7 4.5 11.3 12.2 20.4 23.2 27.3 17.9 11.3 40.1 13.6 55.6 13.6 9 0 19.3-.9 28.7-2.7 7.2 6.5 11.3 15.7 11.3 25.5 0 19-15.5 34.5-34.5 34.5-2.5 0-4.6 2.1-4.6 4.6 0 19-15.5 34.5-34.5 34.5-24.1 0-43.7 19.6-43.7 43.7 0 2.5 2.1 4.6 4.6 4.6s4.6-2.1 4.6-4.6c0-19 15.5-34.5 34.5-34.5 22.6 0 41.2-17.3 43.4-39.3 22-2.2 39.3-20.8 39.3-43.4 0-10.3-3.6-20.2-10.1-28 11.4-3.3 19.7-8.2 19.7-14.6 0-.7-.2-1.4-.5-2 .3-.5-1.9-4.9-6.2-9.2zm-237.7-68.3c3.2-6.4 6.3-12.7 9.1-18.7v47.3c-8.4 8.5-14.2 19.5-15.4 30.9-3.4.5-6.5 1.7-9.2 3.2-9.6-12.4 3.7-39 15.5-62.7zm87.8 71.3c-13.8 13.1-37.9 19.9-66.1 18.5-23.8-1.1-38.5-7.2-41.9-10.2 2.4-3.6 8.5-11.3 18.3-11.3 2.5 0 4.6-2.1 4.6-4.6 0-9.5 4.4-19.1 11.1-26.7 2.5 0 4.5-2 4.5-4.5 6.9-6.1 15.3-10.2 23.8-11-1.1 3.4-1.7 7.1-1.7 10.9 0 2.5 2.1 4.6 4.6 4.6s4.6-2.1 4.6-4.6c0-14.7 12-26.7 26.7-26.7 3.1 0 6.4.8 9.6 2.3.1 5.6 2.4 10.8 6.3 14.8 2.9 2.9 6.5 4.9 10.4 5.8.3 1.3.4 2.6.4 3.9-.1 16.2-5.2 29.3-15.2 38.8zm118-90c2.7 6 5.9 12.3 9.1 18.7 11.8 23.6 25.1 50.3 15.5 62.7-2.7-1.5-5.7-2.7-9.2-3.2-1.2-11.4-7-22.3-15.4-30.9v-47.3zm3.1 106.9c-17.6 2.8-36.5 2.3-51.7-1.5-20.6-5.1-45.1-18.7-45.1-54.2 0-1.3.1-2.6.4-3.9 3.9-.9 7.5-2.9 10.4-5.8 4-4 6.2-9.2 6.3-14.8 3.2-1.5 6.5-2.3 9.6-2.3 14.7 0 26.7 12 26.7 26.7 0 2.5 2.1 4.6 4.6 4.6s4.6-2.1 4.6-4.6c0-3.8-.6-7.5-1.7-10.9 8.5.8 16.9 4.9 23.8 11 0 2.5 2 4.5 4.5 4.5 6.7 7.6 11.1 17.2 11.1 26.7 0 2.5 2.1 4.6 4.6 4.6 9.7 0 15.9 7.7 18.3 11.3-2.7 2.2-11.5 6.2-26.4 8.6z"/><path class="st25" d="M1758.8 717.1v-.8c-.6-13-4.6-25.8-12-37.1v-.2c0-2.1-1.4-3.9-3.4-4.4-1.9-2.4-3.9-4.8-6.2-7-13.9-13.9-32.4-21.6-52.1-21.6s-38.2 7.7-52.1 21.6l-8.2 8.2-16.3 16.3c-3.8 3.8-5.9 9.4-5.9 15.5s2.2 11.7 5.9 15.5c7.9 7.9 23 7.9 30.9 0l24.4-24.4c5.7-5.7 13.2-8.8 21.2-8.8s15.5 3.1 21.2 8.8c5.7 5.7 8.8 13.2 8.8 21.2s-3.1 15.5-8.8 21.2l-10.5 10.5-37.8 37.8-113.5 113.5-9.3 9.3c-7.9 7.9-7.9 23 0 30.9 4 4 9.7 6 15.5 6s11.5-2 15.5-6l33.7-33.7 37.8-37.8 37.8-37.8 37.8-37.8 23.9-23.9c15.2-15.4 22.4-35.3 21.7-55zm-28-43.1c.1.1.2.2.3.4h-92l.4-.4c25.2-25.2 66.1-25.2 91.3 0zm-73.3 18l-24.4 24.4c-4.3 4.3-13.7 4.3-18 0-2-2-3.2-5.4-3.2-9s1.2-7 3.2-9l14.9-14.9h40.1c-4.7 1.9-9 4.8-12.6 8.5zm42.8-8.5h38.4c5.9 8.7 9.4 18.6 10.6 28.7h-25.6c-1.5-7.6-5.2-14.6-10.8-20.2-3.7-3.7-8-6.6-12.6-8.5zm24 37.8h25.4c-.3 9.9-2.8 19.7-7.5 28.7h-32l2.7-2.7c6.9-7 11-16.1 11.4-26zm-53.9 104.4h-35.9l28.7-28.7h35.9l-28.7 28.7zm-37.8 37.8h-35.9l28.7-28.7h35.9l-28.7 28.7zm-37.8 37.8h-35.9l28.7-28.7h35.9l-28.7 28.7zm-35.1 35.1c-4.3 4.3-13.7 4.3-18 0-4.3-4.3-4.3-13.7 0-18l7.9-7.9h35.9l-25.8 25.9zm148.6-148.6h-35.9l28.7-28.7h35.2c-1.6 2.1-3.4 4.2-5.4 6.1l-22.6 22.6z"/><linearGradient id="SVGID_28_" gradientUnits="userSpaceOnUse" x1="889.532" y1="307.19" x2="1000.173" y2="439.958"><stop offset="0" stop-color="#fceec2"/><stop offset=".197" stop-color="#f5e6b9"/><stop offset=".524" stop-color="#e4d19f"/><stop offset=".939" stop-color="#c7af76"/><stop offset=".994" stop-color="#c3aa70"/></linearGradient><path class="st29" d="M980.1 469.8c-1.7 0-3.2-1.1-3.8-2.7l-8.1-22.7-21.8 10.4c-1.5.7-3.3.4-4.5-.8-1.2-1.2-1.5-3-.8-4.5l10.4-21.8-22.7-8.1c-1.6-.6-2.7-2.1-2.7-3.8s1.1-3.2 2.7-3.8l22.7-8.1-10.4-21.8c-.7-1.5-.4-3.3.8-4.5 1.2-1.2 3-1.5 4.5-.8l21.8 10.4 8.1-22.7c.6-1.6 2.1-2.7 3.8-2.7s3.2 1.1 3.8 2.7l8.1 22.7 21.8-10.4c1.5-.7 3.3-.4 4.5.8 1.2 1.2 1.5 3 .8 4.5l-10.4 21.8 22.7 8.1c1.6.6 2.7 2.1 2.7 3.8s-1.1 3.2-2.7 3.8l-22.7 8.1 10.4 21.8c.7 1.5.4 3.3-.8 4.5-1.2 1.2-3 1.5-4.5.8L992 444.4l-8.1 22.7c-.6 1.7-2.1 2.7-3.8 2.7zm-9.6-34.9c.5 0 1 .1 1.5.3 1 .4 1.9 1.3 2.2 2.4l5.8 16.3 5.8-16.3c.4-1.1 1.2-1.9 2.2-2.4 1-.4 2.2-.4 3.2.1l15.6 7.4-7.4-15.6c-.5-1-.5-2.2-.1-3.2s1.3-1.9 2.4-2.2l16.3-5.8-16.3-5.8c-1.1-.4-1.9-1.2-2.4-2.2-.4-1-.4-2.2.1-3.2l7.4-15.6-15.6 7.4c-1 .5-2.2.5-3.2.1s-1.9-1.3-2.2-2.4l-5.8-16.3-5.8 16.3c-.4 1.1-1.2 1.9-2.2 2.4-1 .4-2.2.4-3.2-.1l-15.6-7.4 7.4 15.6c.5 1 .5 2.2.1 3.2s-1.3 1.9-2.4 2.2l-16.3 5.8 16.3 5.8c1.1.4 1.9 1.2 2.4 2.2.4 1 .4 2.2-.1 3.2l-7.4 15.6 15.6-7.4c.5-.2 1.1-.4 1.7-.4z"/><linearGradient id="SVGID_29_" gradientUnits="userSpaceOnUse" x1="1602.508" y1="465.776" x2="1705.679" y2="588.465"><stop offset="0" stop-color="#fceec2"/><stop offset=".197" stop-color="#f5e6b9"/><stop offset=".524" stop-color="#e4d19f"/><stop offset=".939" stop-color="#c7af76"/><stop offset=".994" stop-color="#c3aa70"/></linearGradient><path class="st30" d="M1731.7 554.6l-22.7-8.1 10.4-21.8c.7-1.5.4-3.3-.8-4.5-1.2-1.2-3-1.5-4.5-.8l-21.8 10.4-8.1-22.7c-.6-1.6-2.1-2.7-3.8-2.7s-3.2 1.1-3.8 2.7l-8.1 22.7-21.8-10.4c-1.5-.7-3.3-.4-4.5.8-1.2 1.2-1.5 3-.8 4.5l10.4 21.8-22.7 8.1c-1.6.6-2.7 2.1-2.7 3.8s1.1 3.2 2.7 3.8l22.7 8.1-10.4 21.8c-.7 1.5-.4 3.3.8 4.5 1.2 1.2 3 1.5 4.5.8l21.8-10.4 8.1 22.7c.6 1.6 2.1 2.7 3.8 2.7s3.2-1.1 3.8-2.7l8.1-22.7 21.8 10.4c1.5.7 3.3.4 4.5-.8 1.2-1.2 1.5-3 .8-4.5l-10.4-21.8 22.7-8.1c1.6-.6 2.7-2.1 2.7-3.8s-1.1-3.3-2.7-3.8zm-29.6 9.5c-1.1.4-1.9 1.2-2.4 2.2-.4 1-.4 2.2.1 3.2l7.4 15.6-15.6-7.4c-1-.5-2.2-.5-3.2-.1s-1.9 1.3-2.2 2.4l-5.8 16.3-5.8-16.3c-.4-1.1-1.2-1.9-2.2-2.4-.5-.2-1-.3-1.5-.3-.6 0-1.2.1-1.7.4l-15.6 7.4 7.4-15.6c.5-1 .5-2.2.1-3.2s-1.3-1.9-2.4-2.2l-16.3-5.8 16.3-5.8c1.1-.4 1.9-1.2 2.4-2.2.4-1 .4-2.2-.1-3.2l-7.4-15.6 15.6 7.4c1 .5 2.2.5 3.2.1s1.9-1.3 2.2-2.4l5.8-16.3 5.8 16.3c.4 1.1 1.2 1.9 2.2 2.4 1 .4 2.2.4 3.2-.1l15.6-7.4-7.4 15.6c-.5 1-.5 2.2-.1 3.2s1.3 1.9 2.4 2.2l16.3 5.8-16.3 5.8z"/><linearGradient id="SVGID_30_" gradientUnits="userSpaceOnUse" x1="1382.8" y1="774.952" x2="1480.796" y2="918.785"><stop offset="0" stop-color="#fceec2"/><stop offset=".197" stop-color="#f5e6b9"/><stop offset=".524" stop-color="#e4d19f"/><stop offset=".939" stop-color="#c7af76"/><stop offset=".994" stop-color="#c3aa70"/></linearGradient><path class="st31" d="M1464.6 949c-1.7 0-3.2-1.1-3.8-2.7l-8.1-22.7L1431 934c-1.5.7-3.3.4-4.5-.8-1.2-1.2-1.5-3-.8-4.5l10.4-21.8-22.7-8.1c-1.6-.6-2.7-2.1-2.7-3.8s1.1-3.2 2.7-3.8l22.7-8.1-10.4-21.8c-.7-1.5-.4-3.3.8-4.5 1.2-1.2 3-1.5 4.5-.8l21.8 10.4 8.1-22.7c.6-1.6 2.1-2.7 3.8-2.7s3.2 1.1 3.8 2.7l8.1 22.7 21.8-10.4c1.5-.7 3.3-.4 4.5.8 1.2 1.2 1.5 3 .8 4.5l-10.4 21.8 22.7 8.1c1.6.6 2.7 2.1 2.7 3.8s-1.1 3.2-2.7 3.8l-22.7 8.1 10.4 21.8c.7 1.5.4 3.3-.8 4.5-1.2 1.2-3 1.5-4.5.8l-21.8-10.4-8.1 22.7c-.7 1.6-2.2 2.7-3.9 2.7zm-9.6-34.9c.5 0 1 .1 1.5.3 1 .4 1.9 1.3 2.2 2.4l5.8 16.3 5.8-16.3c.4-1.1 1.2-1.9 2.2-2.4 1-.4 2.2-.4 3.2.1l15.6 7.4-7.4-15.6c-.5-1-.5-2.2-.1-3.2s1.3-1.9 2.4-2.2l16.3-5.8-16.3-5.8c-1.1-.4-1.9-1.2-2.4-2.2-.4-1-.4-2.2.1-3.2l7.4-15.6-15.6 7.4c-1 .5-2.2.5-3.2.1s-1.9-1.3-2.2-2.4l-5.8-16.3-5.8 16.3c-.4 1.1-1.2 1.9-2.2 2.4-1 .4-2.2.4-3.2-.1l-15.6-7.4 7.4 15.6c.5 1 .5 2.2.1 3.2s-1.3 1.9-2.4 2.2l-16.3 5.8 16.3 5.8c1.1.4 1.9 1.2 2.4 2.2.4 1 .4 2.2-.1 3.2l-7.4 15.6 15.6-7.4c.5-.3 1.1-.4 1.7-.4z"/><path class="st28" d="M695.4 559.7c2.5 0 4.6-2.1 4.6-4.6 0-8 .8-12.8 4.3-14.7v4.6c0 2.5 2.1 4.6 4.6 4.6s4.6-2.1 4.6-4.6v-4.6c3.6 1.9 4.3 6.7 4.3 14.7 0 2.5 2.1 4.6 4.6 4.6s4.6-2.1 4.6-4.6c0-4.1 0-9.7-2-14.7-2.4-5.8-6.9-9.2-13.2-10-.8-.6-1.8-1.1-2.9-1.1s-2.1.4-2.9 1.1c-6.3.8-10.8 4.2-13.2 10-2 5-2 10.6-2 14.7.1 2.5 2.1 4.6 4.6 4.6zm90 97c.2-.9.1-1.8-.2-2.6-2.4-27.9-19.7-52.1-45.6-63.4l-8.3-24.9c-.6-1.9-2.4-3.1-4.3-3.1h-36c-2 0-3.7 1.3-4.3 3.1l-8.3 24.9c-25.9 11.3-43.2 35.5-45.6 63.4-.3.8-.4 1.8-.2 2.6-.1 1.4-.1 2.7-.1 4.1 0 42.2 34.4 76.6 76.6 76.6s76.6-34.4 76.6-76.6c-.2-1.4-.2-2.7-.3-4.1zm-91.2-84.9h29.4l5.9 17.8h-41.3l6-17.8zm-11.7 27h52.8c22.9 9.7 38.3 30.9 40.7 55.3l-12.1 12.1c-.6.6-1.5.6-2 0l-9.5-9.5c-4.1-4.1-10.8-4.1-15 0l-9.5 9.5c-.6.6-1.5.6-2 0l-9.5-9.5c-4.1-4.1-10.8-4.1-15 0l-9.5 9.5c-.6.6-1.5.6-2 0l-9.5-9.5c-4.1-4.1-10.8-4.1-15 0l-9.5 9.5c-.6.6-1.5.6-2 0l-12.1-12.1c2.5-24.4 17.8-45.6 40.7-55.3zm26.4 129.4c-35.1 0-64-26.9-67.1-61.2l5.6 5.6c4.1 4.1 10.8 4.1 15 0l9.5-9.5c.6-.6 1.5-.6 2 0l9.5 9.5c4.1 4.1 10.8 4.1 15 0l9.5-9.5c.6-.6 1.5-.6 2 0l9.5 9.5c4.1 4.1 10.8 4.1 15 0l9.5-9.5c.6-.6 1.5-.6 2 0l9.5 9.5c2.1 2.1 4.8 3.1 7.5 3.1s5.4-1 7.5-3.1l5.6-5.6c-3.1 34.3-32 61.2-67.1 61.2zm0-323.7c2.5 0 4.6-2.1 4.6-4.6v-11c0-2.5-2.1-4.6-4.6-4.6s-4.6 2.1-4.6 4.6v11c.1 2.6 2.1 4.6 4.6 4.6zm0 29c2.5 0 4.6-2.1 4.6-4.6v-11c0-2.5-2.1-4.6-4.6-4.6s-4.6 2.1-4.6 4.6v11c.1 2.6 2.1 4.6 4.6 4.6zm0 87c2.5 0 4.6-2.1 4.6-4.6v-11c0-2.5-2.1-4.6-4.6-4.6s-4.6 2.1-4.6 4.6v11c.1 2.6 2.1 4.6 4.6 4.6zm0-58c2.5 0 4.6-2.1 4.6-4.6v-11c0-2.5-2.1-4.6-4.6-4.6s-4.6 2.1-4.6 4.6v11c.1 2.6 2.1 4.6 4.6 4.6zm0 29c2.5 0 4.6-2.1 4.6-4.6v-11c0-2.5-2.1-4.6-4.6-4.6s-4.6 2.1-4.6 4.6v11c.1 2.6 2.1 4.6 4.6 4.6zm129.6-51c2.5 0 4.6-2.1 4.6-4.6 0-8 .8-12.8 4.3-14.7v4.6c0 2.5 2.1 4.6 4.6 4.6s4.6-2.1 4.6-4.6v-4.6c3.6 1.9 4.3 6.7 4.3 14.7 0 2.5 2.1 4.6 4.6 4.6s4.6-2.1 4.6-4.6c0-4.1 0-9.7-2-14.7-2.7-6.7-8.3-10.2-16.1-10.2s-13.3 3.5-16.1 10.2c-2 5-2 10.6-2 14.7 0 2.6 2 4.6 4.6 4.6zm98 113.6c.7-3.1 1-6.5 1-10 0-3.4-.3-6.5-.9-9.5 0-.1 0-.2-.1-.3-4-19.6-19.6-31.9-33.5-43-7.6-6-14.7-11.7-19.9-18.1l-8.8-26.4c-.6-1.9-2.4-3.1-4.3-3.1h-36c-2 0-3.7 1.3-4.3 3.1l-8.8 26.4c-5.2 6.5-12.4 12.1-19.9 18.1-14 11.1-29.6 23.5-33.6 43.1v.2c-.6 3-.9 6.2-.9 9.6 0 3.5.4 6.9 1 10 0 .1 0 .2.1.4 4.2 19.3 19.6 31.5 33.4 42.5 11.6 9.2 22.6 17.9 26.5 29.6 5.5 16.5 14.5 25.9 24.6 25.9s19.1-9.4 24.6-25.9c3.9-11.7 14.8-20.4 26.5-29.6 13.8-11 29.3-23.3 33.4-42.5-.1-.3-.1-.4-.1-.5zm-160.9-10c0-1.4.1-2.8.2-4.2h152.4c.1 1.4.2 2.7.2 4.2 0 1.6-.1 3.2-.3 4.7H775.8c-.1-1.6-.2-3.1-.2-4.7zm61.7-91.4h29.4l5.9 17.8h-41.3l6-17.8zm-30.7 45.7c7.3-5.8 14.9-11.8 20.7-18.7h49.4c5.8 6.9 13.3 12.9 20.7 18.7 12.3 9.7 24 19.1 28.8 32.4H777.8c4.8-13.4 16.6-22.7 28.8-32.4zm90.7 91.4c-12.1 9.6-24.7 19.6-29.5 33.9-4 12.1-10.1 19.6-15.9 19.6s-11.9-7.5-15.9-19.6c-4.7-14.2-17.3-24.2-29.5-33.9-12.1-9.6-23.7-18.8-28.6-31.9h147.9c-4.8 13-16.4 22.3-28.5 31.9zM852 344.3c2.5 0 4.6-2.1 4.6-4.6V328c0-2.5-2.1-4.6-4.6-4.6s-4.6 2.1-4.6 4.6v11.7c0 2.6 2 4.6 4.6 4.6zm0-30.7c2.5 0 4.6-2.1 4.6-4.6v-11.7c0-2.5-2.1-4.6-4.6-4.6s-4.6 2.1-4.6 4.6V309c0 2.5 2 4.6 4.6 4.6zm0 61.5c2.5 0 4.6-2.1 4.6-4.6v-11.7c0-2.5-2.1-4.6-4.6-4.6s-4.6 2.1-4.6 4.6v11.7c0 2.5 2 4.6 4.6 4.6zm0 30.7c2.5 0 4.6-2.1 4.6-4.6v-11.7c0-2.5-2.1-4.6-4.6-4.6s-4.6 2.1-4.6 4.6v11.7c0 2.6 2 4.6 4.6 4.6zm0-123c2.5 0 4.6-2.1 4.6-4.6v-5.5c0-2.5-2.1-4.6-4.6-4.6s-4.6 2.1-4.6 4.6v5.5c0 2.6 2 4.6 4.6 4.6z"/><linearGradient id="SVGID_31_" gradientUnits="userSpaceOnUse" x1="1036.841" y1="62.808" x2="1076.525" y2="173.232"><stop offset="0" stop-color="#e2ddcd"/><stop offset=".277" stop-color="#d9d4c4"/><stop offset=".735" stop-color="#bfbaad"/><stop offset=".994" stop-color="#aea99d"/></linearGradient><path class="st32" d="M1057.8 130.2c-5 0-9.1-4.1-9.1-9.1s4.1-9.1 9.1-9.1 9.1 4.1 9.1 9.1-4.1 9.1-9.1 9.1z"/><linearGradient id="SVGID_32_" gradientUnits="userSpaceOnUse" x1="1351.598" y1="67.853" x2="1386.106" y2="129.967"><stop offset="0" stop-color="#e2ddcd"/><stop offset=".277" stop-color="#d9d4c4"/><stop offset=".735" stop-color="#bfbaad"/><stop offset=".994" stop-color="#aea99d"/></linearGradient><path class="st33" d="M1374 117.3c-5 0-9.1-4.1-9.1-9.1s4.1-9.1 9.1-9.1 9.1 4.1 9.1 9.1-4.1 9.1-9.1 9.1z"/><linearGradient id="SVGID_33_" gradientUnits="userSpaceOnUse" x1="963.815" y1="96.211" x2="1019.027" y2="194.557"><stop offset="0" stop-color="#e2ddcd"/><stop offset=".277" stop-color="#d9d4c4"/><stop offset=".735" stop-color="#bfbaad"/><stop offset=".994" stop-color="#aea99d"/></linearGradient><path class="st34" d="M999.3 168.5c-5 0-9.1-4.1-9.1-9.1s4.1-9.1 9.1-9.1 9.1 4.1 9.1 9.1-4.1 9.1-9.1 9.1z"/><linearGradient id="SVGID_34_" gradientUnits="userSpaceOnUse" x1="1812.151" y1="623.204" x2="1879.441" y2="728.452"><stop offset="0" stop-color="#e2ddcd"/><stop offset=".277" stop-color="#d9d4c4"/><stop offset=".735" stop-color="#bfbaad"/><stop offset=".994" stop-color="#aea99d"/></linearGradient><path class="st35" d="M1856.8 702c-5 0-9.1-4.1-9.1-9.1s4.1-9.1 9.1-9.1 9.1 4.1 9.1 9.1-4.1 9.1-9.1 9.1z"/><linearGradient id="SVGID_35_" gradientUnits="userSpaceOnUse" x1="1751.28" y1="647.216" x2="1818.57" y2="750.739"><stop offset="0" stop-color="#e2ddcd"/><stop offset=".277" stop-color="#d9d4c4"/><stop offset=".735" stop-color="#bfbaad"/><stop offset=".994" stop-color="#aea99d"/></linearGradient><path class="st36" d="M1795.2 723.9c-5 0-9.1-4.1-9.1-9.1s4.1-9.1 9.1-9.1 9.1 4.1 9.1 9.1-4.1 9.1-9.1 9.1z"/><linearGradient id="SVGID_36_" gradientUnits="userSpaceOnUse" x1="1670.26" y1="859.97" x2="1688.422" y2="859.97"><stop offset="0" stop-color="#e2ddcd"/><stop offset=".277" stop-color="#d9d4c4"/><stop offset=".735" stop-color="#bfbaad"/><stop offset=".994" stop-color="#aea99d"/></linearGradient><path class="st37" d="M1679.3 869.1c-5 0-9.1-4.1-9.1-9.1s4.1-9.1 9.1-9.1 9.1 4.1 9.1 9.1-4.1 9.1-9.1 9.1z"/><linearGradient id="SVGID_37_" gradientUnits="userSpaceOnUse" x1="1779.246" y1="319.232" x2="1837.908" y2="405.501"><stop offset="0" stop-color="#e2ddcd"/><stop offset=".277" stop-color="#d9d4c4"/><stop offset=".735" stop-color="#bfbaad"/><stop offset=".994" stop-color="#aea99d"/></linearGradient><path class="st38" d="M1815 381c-5 0-9.1-4.1-9.1-9.1s4.1-9.1 9.1-9.1 9.1 4.1 9.1 9.1-4.1 9.1-9.1 9.1z"/><linearGradient id="SVGID_38_" gradientUnits="userSpaceOnUse" x1="1050.15" y1="885.252" x2="1100.186" y2="983.598"><stop offset="0" stop-color="#e2ddcd"/><stop offset=".277" stop-color="#d9d4c4"/><stop offset=".735" stop-color="#bfbaad"/><stop offset=".994" stop-color="#aea99d"/></linearGradient><path class="st39" d="M1078.1 949.2c-5 0-9.1-4.1-9.1-9.1s4.1-9.1 9.1-9.1 9.1 4.1 9.1 9.1-4.1 9.1-9.1 9.1z"/><linearGradient id="SVGID_39_" gradientUnits="userSpaceOnUse" x1="1498.637" y1="754.405" x2="1548.673" y2="847.576"><stop offset="0" stop-color="#e2ddcd"/><stop offset=".277" stop-color="#d9d4c4"/><stop offset=".735" stop-color="#bfbaad"/><stop offset=".994" stop-color="#aea99d"/></linearGradient><path class="st40" d="M1528.3 818.6c-5 0-9.1-4.1-9.1-9.1s4.1-9.1 9.1-9.1 9.1 4.1 9.1 9.1-4.1 9.1-9.1 9.1z"/><linearGradient id="SVGID_40_" gradientUnits="userSpaceOnUse" x1="1572.249" y1="733.313" x2="1622.285" y2="805.779"><stop offset="0" stop-color="#e2ddcd"/><stop offset=".277" stop-color="#d9d4c4"/><stop offset=".735" stop-color="#bfbaad"/><stop offset=".994" stop-color="#aea99d"/></linearGradient><path class="st41" d="M1603.5 787.7c-5 0-9.1-4.1-9.1-9.1s4.1-9.1 9.1-9.1 9.1 4.1 9.1 9.1-4.1 9.1-9.1 9.1z"/><linearGradient id="SVGID_41_" gradientUnits="userSpaceOnUse" x1="1519.753" y1="673.979" x2="1568.064" y2="742.995"><stop offset="0" stop-color="#e2ddcd"/><stop offset=".277" stop-color="#d9d4c4"/><stop offset=".735" stop-color="#bfbaad"/><stop offset=".994" stop-color="#aea99d"/></linearGradient><path class="st42" d="M1551.5 728.4c-5 0-9.1-4.1-9.1-9.1s4.1-9.1 9.1-9.1 9.1 4.1 9.1 9.1-4.1 9.1-9.1 9.1z"/><linearGradient id="SVGID_42_" gradientUnits="userSpaceOnUse" x1="1453.282" y1="465.642" x2="1496.416" y2="536.382"><stop offset="0" stop-color="#e2ddcd"/><stop offset=".277" stop-color="#d9d4c4"/><stop offset=".735" stop-color="#bfbaad"/><stop offset=".994" stop-color="#aea99d"/></linearGradient><path class="st43" d="M1482.6 522.8c-5 0-9.1-4.1-9.1-9.1s4.1-9.1 9.1-9.1 9.1 4.1 9.1 9.1-4.1 9.1-9.1 9.1z"/><path class="st44" d="M961 601.9c-5 0-9.1-4.1-9.1-9.1s4.1-9.1 9.1-9.1 9.1 4.1 9.1 9.1-4.1 9.1-9.1 9.1z"/><linearGradient id="SVGID_43_" gradientUnits="userSpaceOnUse" x1="1368.532" y1="315.292" x2="1416.842" y2="386.032"><stop offset="0" stop-color="#e2ddcd"/><stop offset=".277" stop-color="#d9d4c4"/><stop offset=".735" stop-color="#bfbaad"/><stop offset=".994" stop-color="#aea99d"/></linearGradient><path class="st45" d="M1396.3 365.1c-5 0-9.1-4.1-9.1-9.1s4.1-9.1 9.1-9.1 9.1 4.1 9.1 9.1-4.1 9.1-9.1 9.1z"/><linearGradient id="SVGID_44_" gradientUnits="userSpaceOnUse" x1="1216.635" y1="588.98" x2="1270.121" y2="676.974"><stop offset="0" stop-color="#e2ddcd"/><stop offset=".277" stop-color="#d9d4c4"/><stop offset=".735" stop-color="#bfbaad"/><stop offset=".994" stop-color="#aea99d"/></linearGradient><path class="st46" d="M1248.4 650.3c-5 0-9.1-4.1-9.1-9.1s4.1-9.1 9.1-9.1 9.1 4.1 9.1 9.1-4.1 9.1-9.1 9.1z"/><linearGradient id="SVGID_45_" gradientUnits="userSpaceOnUse" x1="1868.93" y1="114.436" x2="1924.142" y2="205.881"><stop offset="0" stop-color="#e2ddcd"/><stop offset=".277" stop-color="#d9d4c4"/><stop offset=".735" stop-color="#bfbaad"/><stop offset=".994" stop-color="#aea99d"/></linearGradient><path class="st47" d="M1901.1 176.8c-5 0-9.1-4.1-9.1-9.1s4.1-9.1 9.1-9.1 9.1 4.1 9.1 9.1-4.1 9.1-9.1 9.1z"/><linearGradient id="SVGID_46_" gradientUnits="userSpaceOnUse" x1="1715.5" y1="41.326" x2="1781.065" y2="141.398"><stop offset="0" stop-color="#e2ddcd"/><stop offset=".277" stop-color="#d9d4c4"/><stop offset=".735" stop-color="#bfbaad"/><stop offset=".994" stop-color="#aea99d"/></linearGradient><path class="st48" d="M1759.6 117.8c-5 0-9.1-4.1-9.1-9.1s4.1-9.1 9.1-9.1 9.1 4.1 9.1 9.1-4.1 9.1-9.1 9.1z"/><linearGradient id="SVGID_47_" gradientUnits="userSpaceOnUse" x1="1994.392" y1="244.827" x2="2042.703" y2="344.899"><stop offset="0" stop-color="#e2ddcd"/><stop offset=".277" stop-color="#d9d4c4"/><stop offset=".735" stop-color="#bfbaad"/><stop offset=".994" stop-color="#aea99d"/></linearGradient><path class="st49" d="M2026.9 321.2c-5 0-9.1-4.1-9.1-9.1s4.1-9.1 9.1-9.1 9.1 4.1 9.1 9.1-4.1 9.1-9.1 9.1z"/><linearGradient id="SVGID_48_" gradientUnits="userSpaceOnUse" x1="2179.668" y1="392.232" x2="2234.88" y2="473.325"><stop offset="0" stop-color="#e2ddcd"/><stop offset=".277" stop-color="#d9d4c4"/><stop offset=".735" stop-color="#bfbaad"/><stop offset=".994" stop-color="#aea99d"/></linearGradient><path class="st50" d="M2218.8 458.8c-5 0-9.1-4.1-9.1-9.1s4.1-9.1 9.1-9.1 9.1 4.1 9.1 9.1-4.1 9.1-9.1 9.1z"/><linearGradient id="SVGID_49_" gradientUnits="userSpaceOnUse" x1="1070.888" y1="285.442" x2="1122.649" y2="397.592"><stop offset="0" stop-color="#e2ddcd"/><stop offset=".277" stop-color="#d9d4c4"/><stop offset=".735" stop-color="#bfbaad"/><stop offset=".994" stop-color="#aea99d"/></linearGradient><path class="st51" d="M1105.1 368.7c-5 0-9.1-4.1-9.1-9.1s4.1-9.1 9.1-9.1 9.1 4.1 9.1 9.1-4 9.1-9.1 9.1z"/><linearGradient id="SVGID_50_" gradientUnits="userSpaceOnUse" x1="905.988" y1="341.761" x2="924.15" y2="341.761"><stop offset="0" stop-color="#e2ddcd"/><stop offset=".277" stop-color="#d9d4c4"/><stop offset=".735" stop-color="#bfbaad"/><stop offset=".994" stop-color="#aea99d"/></linearGradient><path class="st52" d="M915.1 350.8c-5 0-9.1-4.1-9.1-9.1s4.1-9.1 9.1-9.1 9.1 4.1 9.1 9.1-4.1 9.1-9.1 9.1z"/><linearGradient id="SVGID_51_" gradientUnits="userSpaceOnUse" x1="819.093" y1="178.99" x2="915.162" y2="292.012"><stop offset="0" stop-color="#e2ddcd"/><stop offset=".277" stop-color="#d9d4c4"/><stop offset=".735" stop-color="#bfbaad"/><stop offset=".994" stop-color="#aea99d"/></linearGradient><path class="st53" d="M883.5 263.8c-5 0-9.1-4.1-9.1-9.1s4.1-9.1 9.1-9.1 9.1 4.1 9.1 9.1-4.1 9.1-9.1 9.1z"/><linearGradient id="SVGID_52_" gradientUnits="userSpaceOnUse" x1="628.714" y1="364.983" x2="700.294" y2="451.633"><stop offset="0" stop-color="#e2ddcd"/><stop offset=".277" stop-color="#d9d4c4"/><stop offset=".735" stop-color="#bfbaad"/><stop offset=".994" stop-color="#aea99d"/></linearGradient><path class="st54" d="M675 430.1c-5 0-9.1-4.1-9.1-9.1s4.1-9.1 9.1-9.1 9.1 4.1 9.1 9.1-4.1 9.1-9.1 9.1z"/><linearGradient id="SVGID_53_" gradientUnits="userSpaceOnUse" x1="2129.715" y1="379.278" x2="2169.399" y2="446.568"><stop offset="0" stop-color="#e2ddcd"/><stop offset=".277" stop-color="#d9d4c4"/><stop offset=".735" stop-color="#bfbaad"/><stop offset=".994" stop-color="#aea99d"/></linearGradient><path class="st55" d="M2160.7 440.8c-5 0-9.1-4.1-9.1-9.1s4.1-9.1 9.1-9.1 9.1 4.1 9.1 9.1-4.1 9.1-9.1 9.1z"/><linearGradient id="SVGID_54_" gradientUnits="userSpaceOnUse" x1="2339.787" y1="464.114" x2="2381.196" y2="540.031"><stop offset="0" stop-color="#e2ddcd"/><stop offset=".277" stop-color="#d9d4c4"/><stop offset=".735" stop-color="#bfbaad"/><stop offset=".994" stop-color="#aea99d"/></linearGradient><path class="st56" d="M2366.4 522c-5 0-9.1-4.1-9.1-9.1s4.1-9.1 9.1-9.1 9.1 4.1 9.1 9.1-4.1 9.1-9.1 9.1z"/><linearGradient id="SVGID_55_" gradientUnits="userSpaceOnUse" x1="2355.123" y1="525.931" x2="2401.708" y2="594.946"><stop offset="0" stop-color="#e2ddcd"/><stop offset=".277" stop-color="#d9d4c4"/><stop offset=".735" stop-color="#bfbaad"/><stop offset=".994" stop-color="#aea99d"/></linearGradient><path class="st57" d="M2385 579.2c-5 0-9.1-4.1-9.1-9.1s4.1-9.1 9.1-9.1 9.1 4.1 9.1 9.1-4.1 9.1-9.1 9.1z"/><linearGradient id="SVGID_56_" gradientUnits="userSpaceOnUse" x1="1942.663" y1="642.063" x2="1997.875" y2="730.057"><stop offset="0" stop-color="#e2ddcd"/><stop offset=".277" stop-color="#d9d4c4"/><stop offset=".735" stop-color="#bfbaad"/><stop offset=".994" stop-color="#aea99d"/></linearGradient><path class="st58" d="M1980.4 711.2c-5 0-9.1-4.1-9.1-9.1s4.1-9.1 9.1-9.1 9.1 4.1 9.1 9.1-4.1 9.1-9.1 9.1z"/><linearGradient id="SVGID_57_" gradientUnits="userSpaceOnUse" x1="1997.007" y1="506.951" x2="2047.043" y2="586.318"><stop offset="0" stop-color="#e2ddcd"/><stop offset=".277" stop-color="#d9d4c4"/><stop offset=".735" stop-color="#bfbaad"/><stop offset=".994" stop-color="#aea99d"/></linearGradient><path class="st59" d="M2031.4 570.6c-5 0-9.1-4.1-9.1-9.1s4.1-9.1 9.1-9.1 9.1 4.1 9.1 9.1-4.1 9.1-9.1 9.1z"/><linearGradient id="SVGID_58_" gradientUnits="userSpaceOnUse" x1="2070.516" y1="767.349" x2="2127.454" y2="855.343"><stop offset="0" stop-color="#e2ddcd"/><stop offset=".277" stop-color="#d9d4c4"/><stop offset=".735" stop-color="#bfbaad"/><stop offset=".994" stop-color="#aea99d"/></linearGradient><path class="st60" d="M2113.6 843c-5 0-9.1-4.1-9.1-9.1s4.1-9.1 9.1-9.1 9.1 4.1 9.1 9.1-4.1 9.1-9.1 9.1z"/><linearGradient id="SVGID_59_" gradientUnits="userSpaceOnUse" x1="2303.411" y1="799.539" x2="2348.271" y2="882.357"><stop offset="0" stop-color="#e2ddcd"/><stop offset=".277" stop-color="#d9d4c4"/><stop offset=".735" stop-color="#bfbaad"/><stop offset=".994" stop-color="#aea99d"/></linearGradient><path class="st61" d="M2338.6 873.6c-5 0-9.1-4.1-9.1-9.1s4.1-9.1 9.1-9.1 9.1 4.1 9.1 9.1-4.1 9.1-9.1 9.1z"/><linearGradient id="SVGID_60_" gradientUnits="userSpaceOnUse" x1="389.218" y1="427.699" x2="457.031" y2="516.233"><stop offset="0" stop-color="#e2ddcd"/><stop offset=".277" stop-color="#d9d4c4"/><stop offset=".735" stop-color="#bfbaad"/><stop offset=".994" stop-color="#aea99d"/></linearGradient><path class="st62" d="M435.5 497.2c-5 0-9.1-4.1-9.1-9.1s4.1-9.1 9.1-9.1 9.1 4.1 9.1 9.1-4.1 9.1-9.1 9.1z"/><linearGradient id="SVGID_61_" gradientUnits="userSpaceOnUse" x1="261.82" y1="479.394" x2="308.913" y2="547.208"><stop offset="0" stop-color="#e2ddcd"/><stop offset=".277" stop-color="#d9d4c4"/><stop offset=".735" stop-color="#bfbaad"/><stop offset=".994" stop-color="#aea99d"/></linearGradient><path class="st63" d="M291.5 531.2c-5 0-9.1-4.1-9.1-9.1s4.1-9.1 9.1-9.1 9.1 4.1 9.1 9.1-4.1 9.1-9.1 9.1z"/><linearGradient id="SVGID_62_" gradientUnits="userSpaceOnUse" x1="280.404" y1="890.155" x2="359.519" y2="974.922"><stop offset="0" stop-color="#e2ddcd"/><stop offset=".277" stop-color="#d9d4c4"/><stop offset=".735" stop-color="#bfbaad"/><stop offset=".994" stop-color="#aea99d"/></linearGradient><path class="st64" d="M329.7 933.9c-5 0-9.1 4.1-9.1 9.1s4.1 9.1 9.1 9.1 9.1-4.1 9.1-9.1-4.1-9.1-9.1-9.1z"/><linearGradient id="SVGID_63_" gradientUnits="userSpaceOnUse" x1="91.655" y1="630.835" x2="157.585" y2="706.183"><stop offset="0" stop-color="#e2ddcd"/><stop offset=".277" stop-color="#d9d4c4"/><stop offset=".735" stop-color="#bfbaad"/><stop offset=".994" stop-color="#aea99d"/></linearGradient><path class="st65" d="M127 680.3c-5 0-9.1-4.1-9.1-9.1s4.1-9.1 9.1-9.1 9.1 4.1 9.1 9.1-4.1 9.1-9.1 9.1z"/><linearGradient id="SVGID_64_" gradientUnits="userSpaceOnUse" x1="340.116" y1="606.747" x2="402.278" y2="691.514"><stop offset="0" stop-color="#e2ddcd"/><stop offset=".277" stop-color="#d9d4c4"/><stop offset=".735" stop-color="#bfbaad"/><stop offset=".994" stop-color="#aea99d"/></linearGradient><path class="st66" d="M376 664.8c-5 0-9.1-4.1-9.1-9.1s4.1-9.1 9.1-9.1 9.1 4.1 9.1 9.1-4.1 9.1-9.1 9.1z"/><linearGradient id="SVGID_65_" gradientUnits="userSpaceOnUse" x1="73.92" y1="750.672" x2="136.083" y2="822.253"><stop offset="0" stop-color="#e2ddcd"/><stop offset=".277" stop-color="#d9d4c4"/><stop offset=".735" stop-color="#bfbaad"/><stop offset=".994" stop-color="#aea99d"/></linearGradient><path class="st67" d="M113.4 805.2c-5 0-9.1-4.1-9.1-9.1s4.1-9.1 9.1-9.1 9.1 4.1 9.1 9.1-4.1 9.1-9.1 9.1z"/><linearGradient id="SVGID_66_" gradientUnits="userSpaceOnUse" x1="327.777" y1="745.381" x2="393.707" y2="818.846"><stop offset="0" stop-color="#e2ddcd"/><stop offset=".277" stop-color="#d9d4c4"/><stop offset=".735" stop-color="#bfbaad"/><stop offset=".994" stop-color="#aea99d"/></linearGradient><path class="st68" d="M367 780c-5 0-9.1 4.1-9.1 9.1s4.1 9.1 9.1 9.1 9.1-4.1 9.1-9.1-4.1-9.1-9.1-9.1z"/><linearGradient id="SVGID_67_" gradientUnits="userSpaceOnUse" x1="449.765" y1="656.907" x2="508.16" y2="730.372"><stop offset="0" stop-color="#e2ddcd"/><stop offset=".277" stop-color="#d9d4c4"/><stop offset=".735" stop-color="#bfbaad"/><stop offset=".994" stop-color="#aea99d"/></linearGradient><path class="st69" d="M483.3 708.2c-5 0-9.1-4.1-9.1-9.1s4.1-9.1 9.1-9.1 9.1 4.1 9.1 9.1-4.1 9.1-9.1 9.1z"/><linearGradient id="SVGID_68_" gradientUnits="userSpaceOnUse" x1="537.753" y1="619.038" x2="631.938" y2="733.944"><stop offset="0" stop-color="#e2ddcd"/><stop offset=".277" stop-color="#d9d4c4"/><stop offset=".735" stop-color="#bfbaad"/><stop offset=".994" stop-color="#aea99d"/></linearGradient><path class="st70" d="M596 699.2c-5 0-9.1-4.1-9.1-9.1s4.1-9.1 9.1-9.1 9.1 4.1 9.1 9.1-4 9.1-9.1 9.1z"/><linearGradient id="SVGID_69_" gradientUnits="userSpaceOnUse" x1="706.302" y1="731.937" x2="766.581" y2="811.052"><stop offset="0" stop-color="#e2ddcd"/><stop offset=".277" stop-color="#d9d4c4"/><stop offset=".735" stop-color="#bfbaad"/><stop offset=".994" stop-color="#aea99d"/></linearGradient><path class="st71" d="M745.4 792.3c-5 0-9.1-4.1-9.1-9.1s4.1-9.1 9.1-9.1 9.1 4.1 9.1 9.1-4.1 9.1-9.1 9.1z"/><linearGradient id="SVGID_70_" gradientUnits="userSpaceOnUse" x1="750.838" y1="818.45" x2="805.465" y2="895.682"><stop offset="0" stop-color="#e2ddcd"/><stop offset=".277" stop-color="#d9d4c4"/><stop offset=".735" stop-color="#bfbaad"/><stop offset=".994" stop-color="#aea99d"/></linearGradient><path class="st72" d="M782.2 871.9c-5 0-9.1-4.1-9.1-9.1s4.1-9.1 9.1-9.1 9.1 4.1 9.1 9.1-4.1 9.1-9.1 9.1z"/><linearGradient id="SVGID_71_" gradientUnits="userSpaceOnUse" x1="102.932" y1="555.039" x2="176.397" y2="636.038"><stop offset="0" stop-color="#e2ddcd"/><stop offset=".277" stop-color="#d9d4c4"/><stop offset=".735" stop-color="#bfbaad"/><stop offset=".994" stop-color="#aea99d"/></linearGradient><path class="st73" d="M153.8 620.2c-5 0-9.1-4.1-9.1-9.1s4.1-9.1 9.1-9.1 9.1 4.1 9.1 9.1-4.1 9.1-9.1 9.1z"/><path class="st28" d="M1975 463.3h-24v-33.5c0-2.5-2.1-4.6-4.6-4.6-27.6 0-49.1 12.1-62.9 23.2-3.8-2.6-8.4-4.1-13.3-4.1s-9.5 1.5-13.3 4.1c-13.9-11.1-35.3-23.2-62.9-23.2-2.5 0-4.6 2.1-4.6 4.6v33.5h-24c-2.5 0-4.6 2.1-4.6 4.6v28.6c0 2.5 2.1 4.6 4.6 4.6h209.7c2.5 0 4.6-2.1 4.6-4.6v-28.6c-.2-2.5-2.2-4.6-4.7-4.6zm-33.2 0h-48.5c-.6-3-1.8-5.9-3.4-8.4 11.9-9.3 29.6-19.3 51.9-20.5v28.9zm-58 0h-27.5c1.9-5.7 7.3-9.9 13.7-9.9s11.9 4.2 13.8 9.9zm-85.4-28.8c22.3 1.2 40 11.1 51.9 20.5-1.6 2.5-2.8 5.3-3.4 8.4h-48.5v-28.9zm-28.6 38h76.6v19.4h-76.6v-19.4zm85.8 19.4v-19.4h29v19.4h-29zm114.8 0h-76.6v-19.4h76.6v19.4zm-8.6 19.1c-2.5 0-4.6 2.1-4.6 4.6v117h-63.5V513.2c0-2.5-2.1-4.6-4.6-4.6s-4.6 2.1-4.6 4.6v119.3h-29V513.2c0-2.5-2.1-4.6-4.6-4.6s-4.6 2.1-4.6 4.6v119.3h-63.5v-117c0-2.5-2.1-4.6-4.6-4.6s-4.6 2.1-4.6 4.6V637c0 2.5 2.1 4.6 4.6 4.6h183.5c2.5 0 4.6-2.1 4.6-4.6V515.6c.1-2.6-1.9-4.6-4.5-4.6zm-537 50.6c-8.5-4.3-13.2-20.6-17.4-38.9l15.4-10.2c1.3-.8 2-2.3 2-3.8 0-14.5-4.5-30.4-11.9-43.4 3.8.2 7.8.3 12.1.3 2.5 0 4.6-2.1 4.6-4.6v-47.6c0-2.5-2.1-4.6-4.6-4.6-36.4 0-55.9 8.5-58.9 9.8-2-.8-4.2-1.3-6.5-1.3h-12.2c-2.3 0-4.5.5-6.5 1.3-2.9-1.4-22.5-9.8-58.9-9.8-2.5 0-4.6 2.1-4.6 4.6V461c0 2.5 2.1 4.6 4.6 4.6 4.3 0 8.3-.1 12.1-.3-7.5 13-11.9 28.9-11.9 43.4 0 1.5.8 3 2 3.8l15.4 10.2c-4.2 18.3-8.9 34.6-17.4 38.9-5.9 3-9.5 8.9-9.5 15.4v18.9c0 2.5 2.1 4.6 4.6 4.6h152.5c2.5 0 4.6-2.1 4.6-4.6V577c-.1-6.5-3.8-12.4-9.6-15.4zm-9.3-55.3l-19.8 13.2c-1.2-12-4.8-25.8-10.1-38.4-2.6-6.3-7.1-15.5-13.1-22.8 5.8 2 15.4 4.5 28.8 6 8.3 11.7 13.7 27.6 14.2 42zm4.8-49.9c-5.5-.1-10.6-.4-15.3-.9-.6-.2-1.1-.2-1.7-.2-14.2-1.6-24-4.4-29.2-6.2 1.8-2.8 2.9-6.1 2.9-9.6v-4.6c0-3.6-1.1-6.9-2.9-9.6 7-2.5 22.5-6.8 46.2-7.3v38.4zm-60.7-29.8c4.6 0 8.4 3.8 8.4 8.4v4.6c0 4.6-3.8 8.4-8.4 8.4h-12.3c-4.6 0-8.4-3.8-8.4-8.4V435c0-4.6 3.8-8.4 8.4-8.4h12.3zm-73-8.6c23.7.5 39.1 4.8 46.2 7.3-1.8 2.8-2.9 6.1-2.9 9.6v4.6c0 3.6 1.1 6.9 2.9 9.6-5.2 1.8-14.9 4.6-29.2 6.2-.6-.1-1.2 0-1.7.2-4.6.5-9.7.8-15.3.9V418zm19 46.3c13.4-1.5 23-4.1 28.8-6-6 7.3-10.4 16.5-13.1 22.8-5.3 12.7-8.9 26.4-10.1 38.4l-3.6-2.4c-.2-.2-.4-.3-.7-.5l-15.6-10.4c.6-14.3 6-30.3 14.3-41.9zm119.5 127.1h-143.3v-14.3c0-3.1 1.7-5.9 4.5-7.2 11.4-5.7 16.8-21.9 21.5-41.6l5.1 3.4c.8.5 1.7.8 2.5.8.7 0 1.5-.2 2.2-.5 1.5-.8 2.4-2.3 2.4-4 0-26.6 16-64.2 29.8-70.7h7.5c13.8 6.5 29.8 44.1 29.8 70.7 0 1.7.9 3.2 2.4 4 .7.4 1.4.5 2.2.5.9 0 1.8-.3 2.5-.8l5.1-3.4c4.7 19.7 10.1 35.9 21.5 41.6 2.8 1.4 4.5 4.2 4.5 7.2v14.3zm-52.6 12.7c-2.5 0-4.6 2.1-4.6 4.6 0 8-6.5 14.5-14.5 14.5s-14.5-6.5-14.5-14.5c0-2.5-2.1-4.6-4.6-4.6s-4.6 2.1-4.6 4.6c0 13 10.6 23.6 23.6 23.6s23.6-10.6 23.6-23.6c.2-2.6-1.9-4.6-4.4-4.6z"/><linearGradient id="SVGID_72_" gradientUnits="userSpaceOnUse" x1="159.562" y1="487.12" x2="248.169" y2="603.182"><stop offset="0" stop-color="#fceec2"/><stop offset=".197" stop-color="#f5e6b9"/><stop offset=".524" stop-color="#e4d19f"/><stop offset=".939" stop-color="#c7af76"/><stop offset=".994" stop-color="#c3aa70"/></linearGradient><path class="st74" d="M251.9 614.5c-1 0-2-.2-2.9-.7l-18.8-9.4-18.8 9.4c-2.2 1.1-4.8.9-6.8-.6s-2.9-4-2.4-6.4l4-19.9-14.7-14.7c-1.8-1.8-2.3-4.3-1.6-6.6.8-2.3 2.8-4 5.3-4.3l19.9-2.6 9.4-18.8c1.1-2.2 3.3-3.6 5.8-3.6s4.7 1.4 5.8 3.6l9.4 18.8 19.9 2.6c2.5.3 4.5 2 5.3 4.3.8 2.3.2 4.9-1.6 6.6l-14.7 14.7 4 19.9c.5 2.4-.4 4.9-2.4 6.4-1.3.9-2.7 1.3-4.1 1.3zm-1.5-6.1zm-20.2-12.1c1 0 2 .2 2.9.7l16.7 8.4-3.5-17.6c-.4-2.1.2-4.3 1.8-5.8l13.1-13.1-17.6-2.3c-2.1-.3-4-1.6-4.9-3.5l-8.4-16.8-8.4 16.8c-1 1.9-2.8 3.2-4.9 3.5l-17.6 2.3 13.1 13.1c1.5 1.5 2.2 3.7 1.8 5.8l-3.5 17.6 16.7-8.4c.7-.5 1.7-.7 2.7-.7zm-23.5-8.8zm-.4-1.4zm47.8 0zm10.1-16.9zm-18.4-9.9z"/><path class="st28" d="M251.2 950.8h-38c-2.5 0-4.6-2.1-4.6-4.6v-65c0-2.5 2.1-4.6 4.6-4.6s4.6 2.1 4.6 4.6v60.4h28.8v-60.4c0-2.5 2.1-4.6 4.6-4.6s4.6 2.1 4.6 4.6v65c-.1 2.6-2.1 4.6-4.6 4.6zm90.4-102.6l-74.2-82.7h38.2c4.8 0 9.1-2.9 11.2-7.6 2.3-5.1 1.4-11-2.2-15.1l-47.2-52.6h11.2c4.8 0 9.1-2.9 11.2-7.6 2.3-5.1 1.4-11-2.2-15.1l-43.1-48.1c-1.7-1.9-4.6-2-6.5-.4-1.9 1.7-2 4.6-.4 6.5l43.1 48.1c1.5 1.7 1.3 3.9.7 5.2-.4.8-1.2 2.1-2.9 2.1H257c-1.8 0-3.4 1.1-4.2 2.7s-.4 3.6.8 4.9l54 60.3c1.5 1.7 1.3 3.8.7 5.2-.4.8-1.2 2.1-2.9 2.1h-48.5c-1.8 0-3.4 1.1-4.2 2.7s-.4 3.6.8 4.9l81 90.4c1.5 1.7 1.3 3.8.7 5.2-.4.8-1.2 2.1-2.9 2.1H127.8c-1.7 0-2.5-1.3-2.9-2.1-.6-1.4-.8-3.6.7-5.2l79.8-89h21.7c2.5 0 4.6-2.1 4.6-4.6s-2.1-4.6-4.6-4.6h-35.6c-.4 0-.8.1-1.2.2h-35.6c-1.7 0-2.5-1.3-2.9-2.1-.6-1.4-.8-3.5.7-5.2l52.7-58.7H227c2.5 0 4.6-2.1 4.6-4.6s-2.1-4.6-4.6-4.6h-45.4c-1.7 0-2.5-1.3-2.9-2.1-.6-1.4-.8-3.6.7-5.2l43.1-48.1c1.7-1.9 1.5-4.8-.4-6.5-1.9-1.7-4.8-1.5-6.5.4l-43.1 48.1c-3.6 4.1-4.5 10-2.2 15.1 2.1 4.7 6.4 7.6 11.2 7.6h11.2l-47.2 52.6c-3.6 4.1-4.5 10-2.2 15.1 2.1 4.7 6.4 7.6 11.2 7.6H193l-74.2 82.7c-3.6 4.1-4.5 10-2.2 15.1 2.1 4.7 6.4 7.6 11.2 7.6h204.8c4.8 0 9.1-2.9 11.2-7.6 2.3-5.2 1.5-11.1-2.2-15.1zm401.2 78.1c-.8-3.1-2.1-6-3.8-8.5 1.7-2.5 3-5.4 3.8-8.5.8-3.1.9-6.4.7-9.7-.3-3.3-1.2-6.5-2.5-9.4-1.4-2.9-3.2-5.5-5.4-7.6 1.3-2.7 1.9-5.7 2.1-8.9 0-.8.1-1.6 0-2.4 0-.8-.1-1.6-.2-2.4-.2-1.6-.6-3.3-1-4.9-.4-1.7-1.2-3.2-1.9-4.7s-1.6-2.9-2.5-4.2c-1.9-2.6-4.2-4.7-6.7-6.3.4-1.5.5-2.9.6-4.5 0-1.5-.1-3.1-.3-4.7-.2-1.6-.6-3.2-1.2-4.7-.5-1.6-1.2-3.1-2-4.6-1.6-3-3.8-5.6-6-7.8-2.4-2.1-5.1-3.8-7.8-4.8.1-3.1-.5-6.2-1.6-9.2-1.1-3-2.8-5.8-4.9-8.4-2.1-2.5-4.6-4.7-7.3-6.4-2.8-1.6-5.7-2.8-8.7-3.3-.5-3-1.7-5.9-3.3-8.7-1.7-2.7-3.9-5.2-6.4-7.3-2.6-2-5.4-3.8-8.4-4.9-3-1.1-6.1-1.7-9.2-1.6-1.1-2.7-2.7-5.4-4.8-7.8-2.2-2.3-4.8-4.4-7.8-6-1.5-.8-3.1-1.4-4.6-2-1.6-.5-3.1-1-4.7-1.2-1.6-.2-3.2-.3-4.7-.3s-3 .2-4.5.6c-1.6-2.5-3.7-4.8-6.3-6.7-1.3-.9-2.7-1.8-4.2-2.5s-3-1.5-4.7-1.9c-1.6-.5-3.3-.8-4.9-1-.8-.1-1.6-.2-2.4-.2h-2.4c-3.2.2-6.2.8-8.9 2.1-2.1-2.2-4.7-4-7.6-5.4-2.9-1.2-6.1-2.2-9.4-2.5-3.3-.2-6.6-.1-9.7.7-3.1.8-6 2.1-8.5 3.8-2.5-1.7-5.4-3-8.5-3.8-3.1-.8-6.4-.9-9.7-.7-3.3.3-6.5 1.2-9.4 2.5-2.9 1.4-5.5 3.2-7.6 5.4-2.7-1.3-5.7-1.9-8.9-2.1-.8 0-1.6-.1-2.4 0-.8 0-1.6.1-2.4.2-1.6.2-3.3.6-4.9 1-1.7.4-3.2 1.2-4.7 1.9s-2.9 1.6-4.2 2.5c-2.6 1.9-4.7 4.2-6.3 6.7-1.5-.4-2.9-.5-4.5-.6-1.5 0-3.1.1-4.7.3-1.6.2-3.2.6-4.7 1.2-1.6.5-3.1 1.2-4.6 2-3 1.6-5.6 3.8-7.8 6-2.1 2.4-3.8 5.1-4.8 7.8-3.1-.1-6.2.5-9.2 1.6-3 1.1-5.8 2.8-8.4 4.9-2.5 2.1-4.7 4.6-6.4 7.3-1.6 2.8-2.8 5.7-3.3 8.7-3 .5-5.9 1.7-8.7 3.3-2.7 1.7-5.2 3.9-7.3 6.4-2 2.6-3.8 5.4-4.9 8.4-1.1 3-1.7 6.1-1.6 9.2-2.7 1.1-5.4 2.7-7.8 4.8-2.3 2.2-4.4 4.8-6 7.8-.8 1.5-1.4 3.1-2 4.6-.5 1.6-1 3.1-1.2 4.7-.2 1.6-.3 3.2-.3 4.7s.2 3 .6 4.5c-2.5 1.6-4.8 3.7-6.7 6.3-.9 1.3-1.8 2.7-2.5 4.2s-1.5 3-1.9 4.7c-.5 1.6-.8 3.3-1 4.9-.1.8-.2 1.6-.2 2.4v2.4c.2 3.2.8 6.2 2.1 8.9-2.2 2.1-4 4.7-5.4 7.6-1.2 2.9-2.2 6.1-2.5 9.4-.2 3.3-.1 6.6.7 9.7.8 3.1 2.1 6 3.8 8.5-1.7 2.5-3 5.4-3.8 8.5-.8 3.1-.9 6.4-.7 9.7.3 3.3 1.2 6.5 2.5 9.4 1.4 2.9 3.2 5.5 5.4 7.6-1.3 2.7-1.9 5.7-2.1 8.9 0 .8-.1 1.6 0 2.4 0 .8.1 1.6.2 2.4.2 1.6.6 3.3 1 4.9.4 1.7 1.2 3.2 1.9 4.7s1.6 2.9 2.5 4.2c1.9 2.6 4.2 4.7 6.7 6.3-.4 1.5-.5 2.9-.6 4.5 0 1.5.1 3.1.3 4.7.2 1.6.6 3.2 1.2 4.7.5 1.6 1.2 3.1 2 4.6 1.6 3 3.8 5.6 6 7.8 2.4 2.1 5.1 3.8 7.8 4.8-.1 3.1.5 6.2 1.6 9.2 1.1 3 2.8 5.8 4.9 8.4 2.1 2.5 4.6 4.7 7.3 6.4 2.8 1.6 5.7 2.8 8.7 3.3.5 3 1.7 5.9 3.3 8.7 1.7 2.7 3.9 5.2 6.4 7.3 2.6 2 5.4 3.8 8.4 4.9 3 1.1 6.1 1.7 9.2 1.6 1.1 2.7 2.7 5.4 4.8 7.8 2.2 2.3 4.8 4.4 7.8 6 1.5.8 3.1 1.4 4.6 2 1.6.5 3.1 1 4.7 1.2 1.6.2 3.2.3 4.7.3s3-.2 4.5-.6c1.6 2.5 3.7 4.8 6.3 6.7 1.3.9 2.7 1.8 4.2 2.5s3 1.5 4.7 1.9c1.6.5 3.3.8 4.9 1 .8.1 1.6.2 2.4.2h2.4c3.2-.2 6.2-.8 8.9-2.1 2.1 2.2 4.7 4 7.6 5.4 2.9 1.2 6.1 2.2 9.4 2.5 3.3.2 6.6.1 9.7-.7 3.1-.8 6-2.1 8.5-3.8 2.5 1.7 5.4 3 8.5 3.8 3.1.8 6.4.9 9.7.7 3.3-.3 6.5-1.2 9.4-2.5 2.9-1.4 5.5-3.2 7.6-5.4 2.7 1.3 5.7 1.9 8.9 2.1.8 0 1.6.1 2.4 0 .8 0 1.6-.1 2.4-.2 1.6-.2 3.3-.6 4.9-1 1.7-.4 3.2-1.2 4.7-1.9s2.9-1.6 4.2-2.5c2.6-1.9 4.7-4.2 6.3-6.7 1.5.4 2.9.5 4.5.6 1.5 0 3.1-.1 4.7-.3 1.6-.2 3.2-.6 4.7-1.2 1.6-.5 3.1-1.2 4.6-2 3-1.6 5.6-3.8 7.8-6 2.1-2.4 3.8-5.1 4.8-7.8 3.1.1 6.2-.5 9.2-1.6 3-1.1 5.8-2.8 8.4-4.9 2.5-2.1 4.7-4.6 6.4-7.3 1.6-2.8 2.8-5.7 3.3-8.7 3-.5 5.9-1.7 8.7-3.3 2.7-1.7 5.2-3.9 7.3-6.4 2-2.6 3.8-5.4 4.9-8.4 1.1-3 1.7-6.1 1.6-9.2 2.7-1.1 5.4-2.7 7.8-4.8 2.3-2.2 4.4-4.8 6-7.8.8-1.5 1.4-3.1 2-4.6.5-1.6 1-3.1 1.2-4.7.2-1.6.3-3.2.3-4.7s-.2-3-.6-4.5c2.5-1.6 4.8-3.7 6.7-6.3.9-1.3 1.8-2.7 2.5-4.2s1.5-3 1.9-4.7c.5-1.6.8-3.3 1-4.9.1-.8.2-1.6.2-2.4v-2.4c-.2-3.2-.8-6.2-2.1-8.9 2.2-2.1 4-4.7 5.4-7.6 1.2-2.9 2.2-6.1 2.5-9.4.2-3.3 0-6.6-.7-9.7zm-8.4 8.8c-.3 2.8-1.2 5.5-2.4 7.8-.3.6-.6 1.1-1 1.6s-.8 1-1.2 1.4c-.8.9-1.8 1.7-2.7 2.3-2.1 1.3-2.5 3.9-1.2 5.9 1.4 2 2.2 4.4 2.5 7 .2 2.6-.1 5.3-.8 7.9-1.6 5.1-5.1 9.7-9.7 11.4-2.3.9-3.2 3.4-2.3 5.6 1 2.2 1.3 4.8 1.1 7.4-.3 2.6-1.1 5.2-2.3 7.6-1.3 2.4-3.1 4.5-5 6.1-.5.4-1 .8-1.5 1.1-.5.3-1.1.6-1.7.9-1.1.5-2.3.9-3.5 1.1-1.2.2-2.2.9-2.7 1.8-.6.9-.9 2-.6 3.2.5 2.3.4 4.8-.3 7.3-.7 2.4-2.1 4.9-3.8 7.2-1.8 2.2-4 3.9-6.3 5.1-2.3 1.2-4.8 1.7-7.1 1.7-1.2 0-2.3.5-3 1.2-.8.7-1.3 1.8-1.2 3 0 2.3-.5 4.8-1.7 7.1s-2.9 4.4-5.1 6.3c-2.3 1.8-4.7 3.1-7.2 3.8-2.5.7-5 .8-7.3.3-1.2-.3-2.3 0-3.2.6-.9.6-1.6 1.5-1.8 2.7-.2 1.2-.6 2.4-1.1 3.5-.3.6-.6 1.1-.9 1.7-.3.5-.7 1-1.1 1.5-1.7 2-3.7 3.8-6.1 5-2.4 1.2-5 2.1-7.6 2.3-2.6.2-5.1-.1-7.4-1.1-2.2-.9-4.7 0-5.6 2.3-1.8 4.6-6.3 8.1-11.4 9.7-2.6.7-5.3 1.1-7.9.8-2.6-.3-5-1.1-7-2.5-2-1.3-4.6-.9-5.9 1.2-.6 1-1.4 1.9-2.3 2.7-.4.4-.9.8-1.4 1.2-.5.4-1.1.7-1.6 1-2.3 1.2-4.9 2.1-7.8 2.4-2.9.2-5.6-.1-8.1-.8-2.5-.8-4.6-2.2-6.2-3.8-.9-.9-1.9-1.3-3-1.3s-2.2.4-3 1.3c-1.6 1.7-3.8 3-6.2 3.8-2.4.7-5.2 1-8.1.8-2.8-.3-5.5-1.2-7.8-2.4-.6-.3-1.1-.6-1.6-1s-1-.8-1.4-1.2c-.9-.8-1.7-1.8-2.3-2.7-1.3-2.1-3.9-2.5-5.9-1.2-2 1.4-4.4 2.2-7 2.5-2.6.2-5.3-.1-7.9-.8-5.1-1.6-9.7-5.1-11.4-9.7-.9-2.3-3.4-3.2-5.6-2.3-2.2 1-4.8 1.3-7.4 1.1-2.6-.3-5.2-1.1-7.6-2.3-2.4-1.3-4.5-3.1-6.1-5-.4-.5-.8-1-1.1-1.5-.3-.5-.6-1.1-.9-1.7-.5-1.1-.9-2.3-1.1-3.5-.2-1.2-.9-2.2-1.8-2.7-.9-.6-2-.9-3.2-.6-2.3.5-4.8.4-7.3-.3-2.4-.7-4.9-2.1-7.2-3.8-2.2-1.8-3.9-4-5.1-6.3-1.2-2.3-1.7-4.8-1.7-7.1 0-1.2-.5-2.3-1.2-3-.7-.8-1.8-1.3-3-1.2-2.3 0-4.8-.5-7.1-1.7s-4.4-2.9-6.3-5.1c-1.8-2.3-3.1-4.7-3.8-7.2-.7-2.5-.8-5-.3-7.3.3-1.2 0-2.3-.6-3.2-.6-.9-1.5-1.6-2.7-1.8-1.2-.2-2.4-.6-3.5-1.1-.6-.3-1.1-.6-1.7-.9-.5-.3-1-.7-1.5-1.1-2-1.7-3.8-3.7-5-6.1-1.2-2.4-2.1-5-2.3-7.6-.2-2.6.1-5.1 1.1-7.4.9-2.2 0-4.7-2.3-5.6-4.6-1.8-8.1-6.3-9.7-11.4-.7-2.6-1.1-5.3-.8-7.9.3-2.6 1.1-5 2.5-7 1.3-2 .9-4.6-1.2-5.9-1-.6-1.9-1.4-2.7-2.3-.4-.4-.8-.9-1.2-1.4-.4-.5-.7-1.1-1-1.6-1.2-2.3-2.1-4.9-2.4-7.8-.2-2.9.1-5.6.8-8.1.8-2.5 2.2-4.6 3.8-6.2.9-.9 1.3-1.9 1.3-3s-.4-2.2-1.3-3c-1.7-1.6-3-3.8-3.8-6.2-.7-2.4-1-5.2-.8-8.1.3-2.8 1.2-5.5 2.4-7.8.3-.6.6-1.1 1-1.6s.8-1 1.2-1.4c.8-.9 1.8-1.7 2.7-2.3 2.1-1.3 2.5-3.9 1.2-5.9-1.4-2-2.2-4.4-2.5-7-.2-2.6.1-5.3.8-7.9 1.6-5.1 5.1-9.7 9.7-11.4 2.3-.9 3.2-3.4 2.3-5.6-1-2.2-1.3-4.8-1.1-7.4.3-2.6 1.1-5.2 2.3-7.6 1.3-2.4 3.1-4.5 5-6.1.5-.4 1-.8 1.5-1.1.5-.3 1.1-.6 1.7-.9 1.1-.5 2.3-.9 3.5-1.1 1.2-.2 2.2-.9 2.7-1.8.6-.9.9-2 .6-3.2-.5-2.3-.4-4.8.3-7.3.7-2.4 2.1-4.9 3.8-7.2 1.8-2.2 4-3.9 6.3-5.1 2.3-1.2 4.8-1.7 7.1-1.7 1.2 0 2.3-.5 3-1.2.8-.7 1.3-1.8 1.2-3 0-2.3.5-4.8 1.7-7.1s2.9-4.4 5.1-6.3c2.3-1.8 4.7-3.1 7.2-3.8 2.5-.7 5-.8 7.3-.3 1.2.3 2.3 0 3.2-.6.9-.6 1.6-1.5 1.8-2.7.2-1.2.6-2.4 1.1-3.5.3-.6.6-1.1.9-1.7.3-.5.7-1 1.1-1.5 1.7-2 3.7-3.8 6.1-5 2.4-1.2 5-2.1 7.6-2.3 2.6-.2 5.1.1 7.4 1.1 2.2.9 4.7 0 5.6-2.3 1.8-4.6 6.3-8.1 11.4-9.7 2.6-.7 5.3-1.1 7.9-.8 2.6.3 5 1.1 7 2.5 2 1.3 4.6.9 5.9-1.2.6-1 1.4-1.9 2.3-2.7.4-.4.9-.8 1.4-1.2.5-.4 1.1-.7 1.6-1 2.3-1.2 4.9-2.1 7.8-2.4 2.9-.2 5.6.1 8.1.8 2.5.8 4.6 2.2 6.2 3.8.9.9 1.9 1.3 3 1.3s2.2-.4 3-1.3c1.6-1.7 3.8-3 6.2-3.8 2.4-.7 5.2-1 8.1-.8 2.8.3 5.5 1.2 7.8 2.4.6.3 1.1.6 1.6 1s1 .8 1.4 1.2c.9.8 1.7 1.8 2.3 2.7 1.3 2.1 3.9 2.5 5.9 1.2 2-1.4 4.4-2.2 7-2.5 2.6-.2 5.3.1 7.9.8 5.1 1.6 9.7 5.1 11.4 9.7.9 2.3 3.4 3.2 5.6 2.3 2.2-1 4.8-1.3 7.4-1.1 2.6.3 5.2 1.1 7.6 2.3 2.4 1.3 4.5 3.1 6.1 5 .4.5.8 1 1.1 1.5.3.5.6 1.1.9 1.7.5 1.1.9 2.3 1.1 3.5.2 1.2.9 2.2 1.8 2.7.9.6 2 .9 3.2.6 2.3-.5 4.8-.4 7.3.3 2.4.7 4.9 2.1 7.2 3.8 2.2 1.8 3.9 4 5.1 6.3 1.2 2.3 1.7 4.8 1.7 7.1 0 1.2.5 2.3 1.2 3 .7.8 1.8 1.3 3 1.2 2.3 0 4.8.5 7.1 1.7s4.4 2.9 6.3 5.1c1.8 2.3 3.1 4.7 3.8 7.2.7 2.5.8 5 .3 7.3-.3 1.2 0 2.3.6 3.2.6.9 1.5 1.6 2.7 1.8 1.2.2 2.4.6 3.5 1.1.6.3 1.1.6 1.7.9.5.3 1 .7 1.5 1.1 2 1.7 3.8 3.7 5 6.1 1.2 2.4 2.1 5 2.3 7.6.2 2.6-.1 5.1-1.1 7.4-.9 2.2 0 4.7 2.3 5.6 4.6 1.8 8.1 6.3 9.7 11.4.7 2.6 1.1 5.3.8 7.9-.3 2.6-1.1 5-2.5 7-1.3 2-.9 4.6 1.2 5.9 1 .6 1.9 1.4 2.7 2.3.4.4.8.9 1.2 1.4.4.5.7 1.1 1 1.6 1.2 2.3 2.1 4.9 2.4 7.8.2 2.9-.1 5.6-.8 8.1-.8 2.5-2.2 4.6-3.8 6.2-.9.9-1.3 1.9-1.3 3s.4 2.2 1.3 3c1.7 1.6 3 3.8 3.8 6.2.7 2.5 1 5.3.8 8.1z"/><path class="st28" d="M429.3 914.9h-23.2c-2.5 0-4.6-2.1-4.6-4.6s2.1-4.6 4.6-4.6h23.2c2.5 0 4.6 2.1 4.6 4.6s-2.1 4.6-4.6 4.6zm10.7 88.9c-2.5 0-4.6-2.1-4.6-4.6V976c0-2.5 2.1-4.6 4.6-4.6s4.6 2.1 4.6 4.6v23.2c0 2.5-2.1 4.6-4.6 4.6zm104.9 60.1h-23.2c-2.5 0-4.6-2.1-4.6-4.6s2.1-4.6 4.6-4.6h23.2c2.5 0 4.6 2.1 4.6 4.6s-2.1 4.6-4.6 4.6zm94.6-16.2c-2.5 0-4.6-2.1-4.6-4.6V1020c0-2.5 2.1-4.6 4.6-4.6s4.6 2.1 4.6 4.6v23.2c0 2.4-2.1 4.5-4.6 4.5zm64.1-96.4c-1.2 0-2.3-.4-3.2-1.3L684 933.5c-1.8-1.8-1.8-4.7 0-6.5 1.8-1.8 4.7-1.8 6.5 0l16.4 16.4c1.8 1.8 1.8 4.7 0 6.5-.9.9-2.1 1.4-3.3 1.4zm-14.4-97.5c-14.6-6.1-23.3-27.1-17.3-41.7.7-1.7.3-3.7-1-5-1.3-1.3-3.3-1.7-5-1-6 2.5-10.4 2.9-13.1 1.2-5.5-3.4-6.5-16.6-7.3-28.2-.1-1.7-1.2-3.2-2.8-3.9-1.6-.7-3.4-.4-4.8.8-8.8 7.6-18.7 16.2-25.1 14.7-3.1-.7-5.9-4.1-8.4-10.1-.7-1.7-2.4-2.8-4.2-2.8s-3.5 1.1-4.2 2.8c-2 4.9-6 9.5-11.2 12.9-2.8-1.4-6-2.1-9.3-2.1-6.9 0-13 3.2-16.9 8.3-3.9-5-10-8.3-16.9-8.3-3.3 0-6.5.8-9.3 2.1-5.2-3.5-9.2-8-11.2-12.9-.7-1.7-2.4-2.8-4.2-2.8s-3.5 1.1-4.2 2.8c-2.5 6-5.3 9.4-8.4 10.1-6.3 1.5-16.3-7.1-25.1-14.7-1.3-1.1-3.2-1.4-4.8-.8-1.6.7-2.7 2.2-2.8 3.9-.8 11.6-1.8 24.7-7.3 28.2-2.7 1.7-7.1 1.3-13.1-1.2-1.7-.7-3.7-.3-5 1-1.3 1.3-1.7 3.3-1 5 2.9 6.9 2.5 15.7-.9 24.1S435 851 428 853.9c-2.3 1-3.4 3.6-2.5 6 .1.3.2.5.4.7 0 .1.1.1.1.2.1.2.2.3.4.5l.2.2c.2.2.4.3.6.5.2.1.5.3.7.4.1 0 .1.1.2.1.2.1.4.1.6.2.1 0 .1 0 .2.1.2 0 .5.1.7.1h.1c.2 0 .4 0 .7-.1h.2c.3-.1.6-.1.9-.3 11.9-4.9 28-.1 36.9 9.8-4.1 2.8-7.4 7.3-9.1 12.4-2.1 6.2-1.8 13 1 18.4-4.1 4.1-6.7 10.4-6.5 17.2.1 6.8 2.9 13 7.2 16.9-2.5 5.2-2.7 12-.3 18.4 2.4 6.4 7.1 11.3 12.5 13.5-.6 6 1.7 12.4 6 17.4 4.2 4.9 10.3 8.2 16.3 8.5 1.5 5.8 5.8 11.1 11.5 14.3 5.6 3.2 12.5 4.3 18.2 2.5 3.2 4.9 9 8.5 15.7 9.6 6.7 1.2 13.3-.4 18-3.9 4.7 3.4 11.3 5 18 3.8 6.7-1.2 12.4-4.9 15.6-9.7 5.7 1.7 12.6.6 18.2-2.6s10-8.6 11.4-14.4c6-.3 12-3.6 16.2-8.6 4.2-4.9 6.5-11.4 5.9-17.4 5.4-2.2 10.1-7.2 12.5-13.5 2.4-6.4 2.1-13.2-.4-18.4 4.3-3.9 7-10.2 7.1-17 .2-6.8-2.4-13.1-6.5-17.2 2.8-5.3 3.1-12.2.9-18.4-1.7-4.9-4.8-9.3-8.8-12.1 8.9-9.7 24.9-14.5 36.8-9.6l.9.3h.2c.2 0 .4.1.6.1h.1c.2 0 .5 0 .7-.1.1 0 .1 0 .2-.1.2 0 .4-.1.6-.2.1 0 .1 0 .2-.1.2-.1.5-.2.7-.4.2-.1.4-.3.6-.5l.2-.2c.1-.1.3-.3.4-.5 0-.1.1-.1.1-.2.2-.2.3-.5.4-.7 1-2.4-.1-5-2.5-6zm-113.7-53.3c6.8 0 12.3 5.5 12.3 12.3s-5.5 12.3-12.3 12.3-12.3-5.5-12.3-12.3 5.5-12.3 12.3-12.3zm-33.8 0c6.8 0 12.3 5.5 12.3 12.3s-5.5 12.3-12.3 12.3-12.3-5.5-12.3-12.3 5.5-12.3 12.3-12.3zm-96 50.9c2.8-3.4 5.2-7.4 7-11.8 3.1-7.5 4.2-15.4 3.2-22.6 5.2.9 9.6.3 13.2-2 7.6-4.7 9.8-15 10.9-26.3 8.8 7.2 17.7 13 26.3 10.9 4.2-1 7.7-3.6 10.7-7.9 2.2 2.8 4.8 5.4 7.8 7.7-3 3.7-4.7 8.3-4.7 13.4 0 .9.1 1.8.2 2.7l-44.4 18.4c-2.3 1-3.4 3.6-2.5 6 .7 1.8 2.4 2.8 4.2 2.8.6 0 1.2-.1 1.8-.4l44-18.2c3.2 5.2 8.6 8.9 14.8 9.9-.3 3.1-.2 6.1.2 9-5.2-.9-9.5-.3-13.2 2-7.6 4.7-9.8 15-10.9 26.3-8.8-7.2-17.7-12.9-26.3-10.9-4.2 1-7.7 3.6-10.7 7.9-7.3-9.4-19.4-15.7-31.6-16.9zm203.5 35.5c1.8 5.2 1 10.5-1.9 14.1-1.5 1.9-1.1 4.2.9 5.5 4 2.6 6.2 7.7 6 12.8 0 5.1-2.5 10.1-6.5 12.6-2.1 1.2-2.4 3.6-1.1 5.5 2.9 3.8 3.2 9.3 1.4 14.1-1.8 4.8-5.8 8.7-10.4 9.7-2.4.5-3.5 2.6-2.9 4.8.3 1.1.5 2.2.5 3.4 0 1.2-.1 2.3-.4 3.5-.3 1.2-.7 2.4-1.3 3.5-.6 1.2-1.3 2.3-2.2 3.3-1.7 2.1-3.9 3.6-6.2 4.6-2.3.9-4.6 1.3-6.9 1-1.2-.2-2.2.1-3 .8-.8.6-1.3 1.6-1.3 2.8-.2 4.6-3.1 9.1-7.9 11.8-4.7 2.7-10.2 3-14.2.9-1.1-.6-2.1-.6-3.1-.2-.9.3-1.7 1.1-2.2 2.2-.9 2.2-2.5 4-4.5 5.5-2 1.4-4.4 2.5-7 2.8-.6.1-1.3.2-1.9.3h-1.9c-1.3-.1-2.5-.2-3.7-.6-2.4-.7-4.5-1.9-6.1-3.7-.8-.9-1.8-1.3-2.8-1.3-1 0-2 .4-2.8 1.3-3.2 3.6-8.5 4.9-13.6 4.1-1.3-.2-2.5-.5-3.7-1-1.2-.5-2.3-1.1-3.3-1.8s-1.9-1.6-2.7-2.5c-.8-.9-1.4-1.9-1.9-3-.9-2.2-3.2-2.9-5.3-1.9-4 2.2-9.4 1.9-14.2-.8-2.4-1.3-4.3-3.2-5.7-5.2-1.3-2.1-2.2-4.3-2.3-6.6-.1-1.2-.6-2.2-1.4-2.8-.8-.6-1.8-1-3-.8-2.3.4-4.6 0-6.9-.9-2.2-1-4.4-2.5-6.2-4.6-3.6-4.2-4.9-9.4-3.5-13.8.3-1.1.2-2.2-.3-3.1-.5-.9-1.4-1.5-2.5-1.7-1.2-.2-2.3-.7-3.3-1.2-1-.6-2.1-1.3-3-2.1-.9-.9-1.7-1.8-2.4-2.9-.7-1.1-1.3-2.2-1.7-3.4-1.8-4.8-1.6-10.3 1.3-14.1 1.3-1.9 1-4.3-1.1-5.5-1-.6-1.9-1.4-2.7-2.3-.8-.9-1.5-1.9-2.1-3-1.1-2.2-1.7-4.7-1.8-7.3-.2-5.1 2-10.2 6-12.9 2-1.3 2.3-3.7.8-5.5-2.8-3.5-3.7-8.9-1.9-14.1 1.1-3.2 3-5.9 5.3-7.7.7 1.7 2.4 2.8 4.2 2.8 1.9 0 3.5-1.1 4.2-2.8 2.5-6 5.3-9.4 8.4-10.1 6.4-1.5 16.3 7.1 25.1 14.7.8.7 1.9 1.1 3 1.1.6 0 1.2-.1 1.8-.3 1.6-.7 2.7-2.2 2.8-3.9.8-11.6 1.8-24.7 7.3-28.2 2.7-1.7 7.1-1.3 13.1 1.2 1.7.7 3.7.3 5-1 1.3-1.3 1.7-3.3 1-5-1.8-4.3-2.3-9.3-1.6-14.6 4.4-1.3 8.3-3.9 11.1-7.4 2.8 3.5 6.6 6.2 11.1 7.4.7 5.3.2 10.3-1.6 14.6-.7 1.7-.3 3.7 1 5 1.3 1.3 3.3 1.7 5 1 6-2.5 10.4-2.9 13.1-1.2 5.5 3.4 6.5 16.6 7.3 28.2.1 1.7 1.2 3.2 2.8 3.9.6.2 1.2.3 1.8.3 1.1 0 2.2-.4 3-1.1 8.8-7.6 18.7-16.2 25.1-14.7 3.1.7 5.9 4.1 8.4 10.1.7 1.7 2.4 2.8 4.2 2.8s3.5-1.1 4.2-2.8c0 0 0-.1.1-.1 2.7 1.8 4.5 4.4 5.6 7.5zm-9.3-18.5c-3-4.3-6.6-7-10.7-7.9-8.6-2-17.6 3.7-26.3 10.9-1.1-11.3-3.3-21.7-10.9-26.3-3.7-2.3-8-2.9-13.2-2 .4-2.9.5-5.9.2-9 6.2-1 11.6-4.7 14.8-9.9l44 18.2c.6.2 1.2.4 1.8.4 1.8 0 3.5-1.1 4.2-2.8 1-2.3-.1-5-2.5-6l-44.4-18.4c.1-.9.2-1.8.2-2.7 0-5.1-1.8-9.7-4.7-13.4 3-2.3 5.6-4.9 7.8-7.7 3 4.3 6.6 7 10.7 7.9 8.6 2 17.6-3.7 26.3-10.9 1.1 11.3 3.3 21.7 10.9 26.3 3.7 2.3 8 2.9 13.2 2-1.6 11.8 2.5 24.9 10.3 34.3-12.3 1.2-24.4 7.5-31.7 17zm1444.5 57.9c-.8-3.1-2.1-6-3.8-8.5 1.7-2.5 3-5.4 3.8-8.5.8-3.1.9-6.4.7-9.7-.3-3.3-1.2-6.5-2.5-9.4-1.4-2.9-3.2-5.5-5.4-7.6 1.3-2.7 1.9-5.7 2.1-8.9 0-.8.1-1.6 0-2.4 0-.8-.1-1.6-.2-2.4-.2-1.6-.6-3.3-1-4.9-.4-1.7-1.2-3.2-1.9-4.7s-1.6-2.9-2.5-4.2c-1.9-2.6-4.2-4.7-6.7-6.3.4-1.5.5-2.9.6-4.5 0-1.5-.1-3.1-.3-4.7-.2-1.6-.6-3.2-1.2-4.7-.5-1.6-1.2-3.1-2-4.6-1.6-3-3.8-5.6-6-7.8-2.4-2.1-5.1-3.8-7.8-4.8.1-3.1-.5-6.2-1.6-9.2-1.1-3-2.8-5.8-4.9-8.4-2.1-2.5-4.6-4.7-7.3-6.4-2.8-1.6-5.7-2.8-8.7-3.3-.5-3-1.7-5.9-3.3-8.7-1.7-2.7-3.9-5.2-6.4-7.3-2.6-2-5.4-3.8-8.4-4.9-3-1.1-6.1-1.7-9.2-1.6-1.1-2.7-2.7-5.4-4.8-7.8-2.2-2.3-4.8-4.4-7.8-6-1.5-.8-3.1-1.4-4.6-2-1.6-.5-3.1-1-4.7-1.2-1.6-.2-3.2-.3-4.7-.3s-3 .2-4.5.6c-1.6-2.5-3.7-4.8-6.3-6.7-1.3-.9-2.7-1.8-4.2-2.5s-3-1.5-4.7-1.9c-1.6-.5-3.3-.8-4.9-1-.8-.1-1.6-.2-2.4-.2h-2.4c-3.2.2-6.2.8-8.9 2.1-2.1-2.2-4.7-4-7.6-5.4-2.9-1.2-6.1-2.2-9.4-2.5-3.3-.2-6.6-.1-9.7.7-3.1.8-6 2.1-8.5 3.8-2.5-1.7-5.4-3-8.5-3.8-3.1-.8-6.4-.9-9.7-.7-3.3.3-6.5 1.2-9.4 2.5-2.9 1.4-5.5 3.2-7.6 5.4-2.7-1.3-5.7-1.9-8.9-2.1-.8 0-1.6-.1-2.4 0-.8 0-1.6.1-2.4.2-1.6.2-3.3.6-4.9 1-1.7.4-3.2 1.2-4.7 1.9s-2.9 1.6-4.2 2.5c-2.6 1.9-4.7 4.2-6.3 6.7-1.5-.4-2.9-.5-4.5-.6-1.5 0-3.1.1-4.7.3-1.6.2-3.2.6-4.7 1.2-1.6.5-3.1 1.2-4.6 2-3 1.6-5.6 3.8-7.8 6-2.1 2.4-3.8 5.1-4.8 7.8-3.1-.1-6.2.5-9.2 1.6-3 1.1-5.8 2.8-8.4 4.9-2.5 2.1-4.7 4.6-6.4 7.3-1.6 2.8-2.8 5.7-3.3 8.7-3 .5-5.9 1.7-8.7 3.3-2.7 1.7-5.2 3.9-7.3 6.4-2 2.6-3.8 5.4-4.9 8.4-1.1 3-1.7 6.1-1.6 9.2-2.7 1.1-5.4 2.7-7.8 4.8-2.3 2.2-4.4 4.8-6 7.8-.8 1.5-1.4 3.1-2 4.6-.5 1.6-1 3.1-1.2 4.7-.2 1.6-.3 3.2-.3 4.7s.2 3 .6 4.5c-2.5 1.6-4.8 3.7-6.7 6.3-.9 1.3-1.8 2.7-2.5 4.2s-1.5 3-1.9 4.7c-.5 1.6-.8 3.3-1 4.9-.1.8-.2 1.6-.2 2.4v2.4c.2 3.2.8 6.2 2.1 8.9-2.2 2.1-4 4.7-5.4 7.6-1.2 2.9-2.2 6.1-2.5 9.4-.2 3.3-.1 6.6.7 9.7.8 3.1 2.1 6 3.8 8.5-1.7 2.5-3 5.4-3.8 8.5-.8 3.1-.9 6.4-.7 9.7.3 3.3 1.2 6.5 2.5 9.4 1.4 2.9 3.2 5.5 5.4 7.6-1.3 2.7-1.9 5.7-2.1 8.9 0 .8-.1 1.6 0 2.4 0 .8.1 1.6.2 2.4.2 1.6.6 3.3 1 4.9.4 1.7 1.2 3.2 1.9 4.7s1.6 2.9 2.5 4.2c1.9 2.6 4.2 4.7 6.7 6.3-.4 1.5-.5 2.9-.6 4.5 0 1.5.1 3.1.3 4.7.2 1.6.6 3.2 1.2 4.7.5 1.6 1.2 3.1 2 4.6 1.6 3 3.8 5.6 6 7.8 2.4 2.1 5.1 3.8 7.8 4.8-.1 3.1.5 6.2 1.6 9.2 1.1 3 2.8 5.8 4.9 8.4 2.1 2.5 4.6 4.7 7.3 6.4 2.8 1.6 5.7 2.8 8.7 3.3.5 3 1.7 5.9 3.3 8.7 1.7 2.7 3.9 5.2 6.4 7.3 2.6 2 5.4 3.8 8.4 4.9 3 1.1 6.1 1.7 9.2 1.6 1.1 2.7 2.7 5.4 4.8 7.8 2.2 2.3 4.8 4.4 7.8 6 1.5.8 3.1 1.4 4.6 2 1.6.5 3.1 1 4.7 1.2 1.6.2 3.2.3 4.7.3s3-.2 4.5-.6c1.6 2.5 3.7 4.8 6.3 6.7 1.3.9 2.7 1.8 4.2 2.5s3 1.5 4.7 1.9c1.6.5 3.3.8 4.9 1 .8.1 1.6.2 2.4.2h2.4c3.2-.2 6.2-.8 8.9-2.1 2.1 2.2 4.7 4 7.6 5.4 2.9 1.2 6.1 2.2 9.4 2.5 3.3.2 6.6.1 9.7-.7 3.1-.8 6-2.1 8.5-3.8 2.5 1.7 5.4 3 8.5 3.8 3.1.8 6.4.9 9.7.7 3.3-.3 6.5-1.2 9.4-2.5 2.9-1.4 5.5-3.2 7.6-5.4 2.7 1.3 5.7 1.9 8.9 2.1.8 0 1.6.1 2.4 0 .8 0 1.6-.1 2.4-.2 1.6-.2 3.3-.6 4.9-1 1.7-.4 3.2-1.2 4.7-1.9s2.9-1.6 4.2-2.5c2.6-1.9 4.7-4.2 6.3-6.7 1.5.4 2.9.5 4.5.6 1.5 0 3.1-.1 4.7-.3 1.6-.2 3.2-.6 4.7-1.2 1.6-.5 3.1-1.2 4.6-2 3-1.6 5.6-3.8 7.8-6 2.1-2.4 3.8-5.1 4.8-7.8 3.1.1 6.2-.5 9.2-1.6 3-1.1 5.8-2.8 8.4-4.9 2.5-2.1 4.7-4.6 6.4-7.3 1.6-2.8 2.8-5.7 3.3-8.7 3-.5 5.9-1.7 8.7-3.3 2.7-1.7 5.2-3.9 7.3-6.4 2-2.6 3.8-5.4 4.9-8.4 1.1-3 1.7-6.1 1.6-9.2 2.7-1.1 5.4-2.7 7.8-4.8 2.3-2.2 4.4-4.8 6-7.8.8-1.5 1.4-3.1 2-4.6.5-1.6 1-3.1 1.2-4.7.2-1.6.3-3.2.3-4.7s-.2-3-.6-4.5c2.5-1.6 4.8-3.7 6.7-6.3.9-1.3 1.8-2.7 2.5-4.2s1.5-3 1.9-4.7c.5-1.6.8-3.3 1-4.9.1-.8.2-1.6.2-2.4v-2.4c-.2-3.2-.8-6.2-2.1-8.9 2.2-2.1 4-4.7 5.4-7.6 1.2-2.9 2.2-6.1 2.5-9.4.2-3.3 0-6.6-.7-9.7zm-8.4 8.8c-.3 2.8-1.2 5.5-2.4 7.8-.3.6-.6 1.1-1 1.6s-.8 1-1.2 1.4c-.8.9-1.8 1.7-2.7 2.3-2.1 1.3-2.5 3.9-1.2 5.9 1.4 2 2.2 4.4 2.5 7 .2 2.6-.1 5.3-.8 7.9-1.6 5.1-5.1 9.7-9.7 11.4-2.3.9-3.2 3.4-2.3 5.6 1 2.2 1.3 4.8 1.1 7.4-.3 2.6-1.1 5.2-2.3 7.6-1.3 2.4-3.1 4.5-5 6.1-.5.4-1 .8-1.5 1.1-.5.3-1.1.6-1.7.9-1.1.5-2.3.9-3.5 1.1-1.2.2-2.2.9-2.7 1.8-.6.9-.9 2-.6 3.2.5 2.3.4 4.8-.3 7.3-.7 2.4-2.1 4.9-3.8 7.2-1.8 2.2-4 3.9-6.3 5.1-2.3 1.2-4.8 1.7-7.1 1.7-1.2 0-2.3.5-3 1.2-.8.7-1.3 1.8-1.2 3 0 2.3-.5 4.8-1.7 7.1s-2.9 4.4-5.1 6.3c-2.3 1.8-4.7 3.1-7.2 3.8-2.5.7-5 .8-7.3.3-1.2-.3-2.3 0-3.2.6-.9.6-1.6 1.5-1.8 2.7-.2 1.2-.6 2.4-1.1 3.5-.3.6-.6 1.1-.9 1.7-.3.5-.7 1-1.1 1.5-1.7 2-3.7 3.8-6.1 5-2.4 1.2-5 2.1-7.6 2.3-2.6.2-5.1-.1-7.4-1.1-2.2-.9-4.7 0-5.6 2.3-1.8 4.6-6.3 8.1-11.4 9.7-2.6.7-5.3 1.1-7.9.8-2.6-.3-5-1.1-7-2.5-2-1.3-4.6-.9-5.9 1.2-.6 1-1.4 1.9-2.3 2.7-.4.4-.9.8-1.4 1.2-.5.4-1.1.7-1.6 1-2.3 1.2-4.9 2.1-7.8 2.4-2.9.2-5.6-.1-8.1-.8-2.5-.8-4.6-2.2-6.2-3.8-.9-.9-1.9-1.3-3-1.3s-2.2.4-3 1.3c-1.6 1.7-3.8 3-6.2 3.8-2.4.7-5.2 1-8.1.8-2.8-.3-5.5-1.2-7.8-2.4-.6-.3-1.1-.6-1.6-1s-1-.8-1.4-1.2c-.9-.8-1.7-1.8-2.3-2.7-1.3-2.1-3.9-2.5-5.9-1.2-2 1.4-4.4 2.2-7 2.5-2.6.2-5.3-.1-7.9-.8-5.1-1.6-9.7-5.1-11.4-9.7-.9-2.3-3.4-3.2-5.6-2.3-2.2 1-4.8 1.3-7.4 1.1-2.6-.3-5.2-1.1-7.6-2.3-2.4-1.3-4.5-3.1-6.1-5-.4-.5-.8-1-1.1-1.5-.3-.5-.6-1.1-.9-1.7-.5-1.1-.9-2.3-1.1-3.5-.2-1.2-.9-2.2-1.8-2.7-.9-.6-2-.9-3.2-.6-2.3.5-4.8.4-7.3-.3-2.4-.7-4.9-2.1-7.2-3.8-2.2-1.8-3.9-4-5.1-6.3-1.2-2.3-1.7-4.8-1.7-7.1 0-1.2-.5-2.3-1.2-3-.7-.8-1.8-1.3-3-1.2-2.3 0-4.8-.5-7.1-1.7s-4.4-2.9-6.3-5.1c-1.8-2.3-3.1-4.7-3.8-7.2-.7-2.5-.8-5-.3-7.3.3-1.2 0-2.3-.6-3.2-.6-.9-1.5-1.6-2.7-1.8-1.2-.2-2.4-.6-3.5-1.1-.6-.3-1.1-.6-1.7-.9-.5-.3-1-.7-1.5-1.1-2-1.7-3.8-3.7-5-6.1-1.2-2.4-2.1-5-2.3-7.6-.2-2.6.1-5.1 1.1-7.4.9-2.2 0-4.7-2.3-5.6-4.6-1.8-8.1-6.3-9.7-11.4-.7-2.6-1.1-5.3-.8-7.9.3-2.6 1.1-5 2.5-7 1.3-2 .9-4.6-1.2-5.9-1-.6-1.9-1.4-2.7-2.3-.4-.4-.8-.9-1.2-1.4-.4-.5-.7-1.1-1-1.6-1.2-2.3-2.1-4.9-2.4-7.8-.2-2.9.1-5.6.8-8.1.8-2.5 2.2-4.6 3.8-6.2.9-.9 1.3-1.9 1.3-3s-.4-2.2-1.3-3c-1.7-1.6-3-3.8-3.8-6.2-.7-2.4-1-5.2-.8-8.1.3-2.8 1.2-5.5 2.4-7.8.3-.6.6-1.1 1-1.6s.8-1 1.2-1.4c.8-.9 1.8-1.7 2.7-2.3 2.1-1.3 2.5-3.9 1.2-5.9-1.4-2-2.2-4.4-2.5-7-.2-2.6.1-5.3.8-7.9 1.6-5.1 5.1-9.7 9.7-11.4 2.3-.9 3.2-3.4 2.3-5.6-1-2.2-1.3-4.8-1.1-7.4.3-2.6 1.1-5.2 2.3-7.6 1.3-2.4 3.1-4.5 5-6.1.5-.4 1-.8 1.5-1.1.5-.3 1.1-.6 1.7-.9 1.1-.5 2.3-.9 3.5-1.1 1.2-.2 2.2-.9 2.7-1.8.6-.9.9-2 .6-3.2-.5-2.3-.4-4.8.3-7.3.7-2.4 2.1-4.9 3.8-7.2 1.8-2.2 4-3.9 6.3-5.1 2.3-1.2 4.8-1.7 7.1-1.7 1.2 0 2.3-.5 3-1.2.8-.7 1.3-1.8 1.2-3 0-2.3.5-4.8 1.7-7.1s2.9-4.4 5.1-6.3c2.3-1.8 4.7-3.1 7.2-3.8 2.5-.7 5-.8 7.3-.3 1.2.3 2.3 0 3.2-.6.9-.6 1.6-1.5 1.8-2.7.2-1.2.6-2.4 1.1-3.5.3-.6.6-1.1.9-1.7.3-.5.7-1 1.1-1.5 1.7-2 3.7-3.8 6.1-5 2.4-1.2 5-2.1 7.6-2.3 2.6-.2 5.1.1 7.4 1.1 2.2.9 4.7 0 5.6-2.3 1.8-4.6 6.3-8.1 11.4-9.7 2.6-.7 5.3-1.1 7.9-.8 2.6.3 5 1.1 7 2.5 2 1.3 4.6.9 5.9-1.2.6-1 1.4-1.9 2.3-2.7.4-.4.9-.8 1.4-1.2.5-.4 1.1-.7 1.6-1 2.3-1.2 4.9-2.1 7.8-2.4 2.9-.2 5.6.1 8.1.8 2.5.8 4.6 2.2 6.2 3.8.9.9 1.9 1.3 3 1.3s2.2-.4 3-1.3c1.6-1.7 3.8-3 6.2-3.8 2.4-.7 5.2-1 8.1-.8 2.8.3 5.5 1.2 7.8 2.4.6.3 1.1.6 1.6 1s1 .8 1.4 1.2c.9.8 1.7 1.8 2.3 2.7 1.3 2.1 3.9 2.5 5.9 1.2 2-1.4 4.4-2.2 7-2.5 2.6-.2 5.3.1 7.9.8 5.1 1.6 9.7 5.1 11.4 9.7.9 2.3 3.4 3.2 5.6 2.3 2.2-1 4.8-1.3 7.4-1.1 2.6.3 5.2 1.1 7.6 2.3 2.4 1.3 4.5 3.1 6.1 5 .4.5.8 1 1.1 1.5.3.5.6 1.1.9 1.7.5 1.1.9 2.3 1.1 3.5.2 1.2.9 2.2 1.8 2.7.9.6 2 .9 3.2.6 2.3-.5 4.8-.4 7.3.3 2.4.7 4.9 2.1 7.2 3.8 2.2 1.8 3.9 4 5.1 6.3 1.2 2.3 1.7 4.8 1.7 7.1 0 1.2.5 2.3 1.2 3 .7.8 1.8 1.3 3 1.2 2.3 0 4.8.5 7.1 1.7s4.4 2.9 6.3 5.1c1.8 2.3 3.1 4.7 3.8 7.2.7 2.5.8 5 .3 7.3-.3 1.2 0 2.3.6 3.2.6.9 1.5 1.6 2.7 1.8 1.2.2 2.4.6 3.5 1.1.6.3 1.1.6 1.7.9.5.3 1 .7 1.5 1.1 2 1.7 3.8 3.7 5 6.1 1.2 2.4 2.1 5 2.3 7.6.2 2.6-.1 5.1-1.1 7.4-.9 2.2 0 4.7 2.3 5.6 4.6 1.8 8.1 6.3 9.7 11.4.7 2.6 1.1 5.3.8 7.9-.3 2.6-1.1 5-2.5 7-1.3 2-.9 4.6 1.2 5.9 1 .6 1.9 1.4 2.7 2.3.4.4.8.9 1.2 1.4.4.5.7 1.1 1 1.6 1.2 2.3 2.1 4.9 2.4 7.8.2 2.9-.1 5.6-.8 8.1-.8 2.5-2.2 4.6-3.8 6.2-.9.9-1.3 1.9-1.3 3s.4 2.2 1.3 3c1.7 1.6 3 3.8 3.8 6.2.7 2.5 1 5.3.8 8.1z"/><path class="st28" d="M1999.6 917.8c3.6-5.5 4.8-13.2 3.3-20.4-1.4-7.3-5.4-13.9-10.9-17.6 1.2-6.2-.4-13.8-4.7-20.2-4.3-6.5-10.7-10.8-16.8-12.1-1.3-6.2-5.6-12.6-12.1-16.8-6.4-4.3-14-5.9-20.2-4.7-3.7-5.4-10.4-9.5-17.6-10.9-7.3-1.4-15-.2-20.4 3.3-5.5-3.6-13.2-4.8-20.4-3.3-7.3 1.4-13.9 5.4-17.6 10.9-6.2-1.2-13.8.4-20.2 4.7-6.5 4.3-10.8 10.7-12.1 16.8-6.2 1.3-12.6 5.6-16.8 12.1-4.3 6.4-5.9 14-4.7 20.2-5.4 3.7-9.5 10.4-10.9 17.6-1.4 7.3-.2 15 3.3 20.4-3.6 5.5-4.8 13.2-3.3 20.4 1.4 7.3 5.4 13.9 10.9 17.6-1.2 6.2.4 13.8 4.7 20.2 4.3 6.5 10.7 10.8 16.8 12.1 1.3 6.2 5.6 12.6 12.1 16.8 6.4 4.3 14 5.9 20.2 4.7 3.7 5.4 10.4 9.5 17.6 10.9 7.3 1.4 15 .2 20.4-3.3 5.5 3.6 13.2 4.8 20.4 3.3 7.3-1.4 13.9-5.4 17.6-10.9 6.2 1.2 13.8-.4 20.2-4.7 6.5-4.3 10.8-10.7 12.1-16.8 6.2-1.3 12.6-5.6 16.8-12.1 4.3-6.4 5.9-14 4.7-20.2 5.4-3.7 9.5-10.4 10.9-17.6 1.5-7.2.3-14.9-3.3-20.4zm-5.6 18.7c-1.2 6.1-4.9 11-9.3 12.9-1.2.5-2 1.4-2.4 2.5-.4 1.1-.5 2.3 0 3.4 1.8 4.7.7 10.8-2.6 15.7-3.2 4.9-8.5 8.3-13.5 8.4-1.3 0-2.4.5-3.1 1.4-.8.8-1.3 1.9-1.4 3.1-.1 5-3.5 10.3-8.4 13.5-4.8 3.3-11 4.4-15.7 2.6-1.2-.5-2.4-.4-3.4 0-1.1.4-1.9 1.2-2.5 2.4-1.9 4.4-6.8 8.1-12.9 9.3-1.5.3-3 .4-4.5.4-1.5-.1-2.9-.2-4.2-.5-1.3-.3-2.6-.8-3.7-1.4-.6-.3-1.1-.6-1.6-1s-1-.8-1.4-1.2c-.9-.9-2.1-1.3-3.2-1.3s-2.3.4-3.2 1.3c-.4.4-.9.8-1.4 1.2-.5.4-1 .7-1.6 1-1.1.6-2.4 1.1-3.7 1.4-1.3.3-2.8.5-4.2.5-1.5 0-3-.2-4.5-.4-6.1-1.2-11-4.9-12.9-9.3-.5-1.2-1.4-2-2.5-2.4-1.1-.4-2.2-.5-3.4 0-4.7 1.8-10.8.7-15.7-2.6-4.9-3.2-8.3-8.5-8.4-13.5 0-1.3-.5-2.4-1.4-3.1-.8-.8-1.9-1.3-3.1-1.4-5-.1-10.3-3.5-13.5-8.4-3.3-4.8-4.4-11-2.6-15.7.5-1.2.4-2.4 0-3.4-.4-1.1-1.2-1.9-2.4-2.5-4.4-1.9-8.1-6.8-9.3-12.9-.3-1.5-.4-3-.4-4.5.1-1.5.2-2.9.5-4.2.3-1.3.8-2.6 1.4-3.7.3-.6.6-1.1 1-1.6s.8-1 1.2-1.4c.9-.9 1.3-2.1 1.3-3.2s-.4-2.3-1.3-3.2c-.4-.4-.8-.9-1.2-1.4-.4-.5-.7-1-1-1.6-.6-1.1-1.1-2.4-1.4-3.7-.3-1.3-.5-2.8-.5-4.2 0-1.5.2-3 .4-4.5 1.2-6.1 4.9-11 9.3-12.9 1.2-.5 2-1.4 2.4-2.5.4-1.1.5-2.3 0-3.4-1.8-4.7-.7-10.8 2.6-15.7 3.2-4.9 8.5-8.3 13.5-8.4 1.3 0 2.4-.5 3.1-1.4.8-.8 1.3-1.9 1.4-3.1.1-5 3.5-10.3 8.4-13.5 4.8-3.3 11-4.4 15.7-2.6 1.2.5 2.4.4 3.4 0 1.1-.4 1.9-1.2 2.5-2.4 1.9-4.4 6.8-8.1 12.9-9.3 1.5-.3 3-.4 4.5-.4 1.5.1 2.9.2 4.2.5 1.3.3 2.6.8 3.7 1.4.6.3 1.1.6 1.6 1s1 .8 1.4 1.2c.9.9 2.1 1.3 3.2 1.3s2.3-.4 3.2-1.3c.4-.4.9-.8 1.4-1.2.5-.4 1-.7 1.6-1 1.1-.6 2.4-1.1 3.7-1.4 1.3-.3 2.8-.5 4.2-.5 1.5 0 3 .2 4.5.4 6.1 1.2 11 4.9 12.9 9.3.5 1.2 1.4 2 2.5 2.4 1.1.4 2.3.5 3.4 0 4.7-1.8 10.8-.7 15.7 2.6 4.9 3.2 8.3 8.5 8.4 13.5 0 1.3.5 2.4 1.4 3.1.8.8 1.9 1.3 3.1 1.4 5 .1 10.3 3.5 13.5 8.4 3.3 4.8 4.4 11 2.6 15.7-.5 1.2-.4 2.4 0 3.4.4 1.1 1.2 1.9 2.4 2.5 4.4 1.9 8.1 6.8 9.3 12.9.3 1.5.4 3 .4 4.5-.1 1.5-.2 2.9-.5 4.2-.3 1.3-.8 2.6-1.4 3.7-.3.6-.6 1.1-1 1.6s-.8 1-1.2 1.4c-.9.9-1.3 2.1-1.3 3.2s.4 2.3 1.3 3.2c.4.4.8.9 1.2 1.4.4.5.7 1 1 1.6.6 1.1 1.1 2.4 1.4 3.7.3 1.3.5 2.8.5 4.2.1 1.4-.1 2.9-.4 4.5zm-219.4-56.9h-23.2c-2.5 0-4.6-2.1-4.6-4.6s2.1-4.6 4.6-4.6h23.2c2.5 0 4.6 2.1 4.6 4.6s-2.1 4.6-4.6 4.6zm239.6-21.8c-1.2 0-2.3-.4-3.2-1.3-1.8-1.8-1.8-4.7 0-6.5l16.4-16.4c1.8-1.8 4.7-1.8 6.5 0 1.8 1.8 1.8 4.7 0 6.5l-16.4 16.4c-1 .9-2.1 1.3-3.3 1.3zm-239.6 119.4c-2.5 0-4.6-2.1-4.6-4.6v-23.2c0-2.5 2.1-4.6 4.6-4.6s4.6 2.1 4.6 4.6v23.2c0 2.6-2.1 4.6-4.6 4.6zm89.2 78.6h-23.2c-2.5 0-4.6-2.1-4.6-4.6s2.1-4.6 4.6-4.6h23.2c2.5 0 4.6 2.1 4.6 4.6s-2 4.6-4.6 4.6zm104.2.5c-2.5 0-4.6-2.1-4.6-4.6v-23.2c0-2.5 2.1-4.6 4.6-4.6s4.6 2.1 4.6 4.6v23.2c0 2.5-2.1 4.6-4.6 4.6zm73.9-97c-1.2 0-2.3-.4-3.2-1.3l-16.4-16.4c-1.8-1.8-1.8-4.7 0-6.5 1.8-1.8 4.7-1.8 6.5 0l16.4 16.4c1.8 1.8 1.8 4.7 0 6.5-.9.8-2.1 1.3-3.3 1.3z"/><path class="st28" d="M1943.8 800.7c-1.2-.5-2.4-.9-3.5-1.4 6-.2 11.5-1.2 15.9-3 7.5-3.1 11.6-8.5 11.6-15s-4.1-11.9-11.6-15c-14.4-6-40.7-3.1-55.9 8.9-15.2-12.1-41.5-14.9-55.9-8.9-7.5 3.1-11.6 8.5-11.6 15s4.1 11.9 11.6 15c4.4 1.8 9.9 2.8 15.9 3-1.2.5-2.4 1-3.5 1.4-22.5 9.1-42 17-42 30 0 2.5 2.1 4.6 4.6 4.6s4.6-2.1 4.6-4.6c0-6.9 20.1-15 36.3-21.6 15-6 30.4-12.3 40.1-20.2 9.8 7.9 25.2 14.1 40.1 20.2 16.2 6.5 36.3 14.7 36.3 21.6 0 2.5 2.1 4.6 4.6 4.6s4.6-2.1 4.6-4.6c-.2-13.1-19.7-20.9-42.2-30zm8.8-26.1c4 1.6 6 3.9 6 6.6s-2 4.9-6 6.6c-11.3 4.7-32.7 2.3-45.3-6.6 12.6-8.9 34.1-11.2 45.3-6.6zm-110.8 6.6c0-2.7 2-4.9 6-6.6 3.8-1.6 8.7-2.3 14.1-2.3 10.6 0 22.9 3 31.2 8.9-12.6 8.9-34 11.2-45.3 6.6-4-1.7-6-3.9-6-6.6z"/></svg>