<svg id="Layer_1" data-name="Layer 1" xmlns="http://www.w3.org/2000/svg" xmlns:xlink="http://www.w3.org/1999/xlink" viewBox="0 0 3816.65 1145.88"><defs><style>.cls-1,.cls-3{fill:none}.cls-2{fill:#e2ddcd}.cls-3{stroke:#d04d2c;stroke-linecap:round;stroke-linejoin:round;stroke-width:9.16px}.cls-4{fill:#d04d2c}.cls-5{fill:url(#linear-gradient)}.cls-6,.cls-7{stroke-miterlimit:10;fill:url(#New_Pattern_Swatch_1);stroke:url(#New_Pattern_Swatch_1)}.cls-6{stroke-width:3px}.cls-7{stroke-width:5px}.cls-8{fill:url(#linear-gradient-2)}.cls-9{fill:url(#linear-gradient-3)}.cls-10{fill:#23a78e}.cls-11{fill:url(#linear-gradient-4)}.cls-12{fill:url(#linear-gradient-5)}.cls-13{fill:url(#linear-gradient-6)}.cls-14{fill:url(#linear-gradient-7)}.cls-15{fill:url(#linear-gradient-8)}.cls-16{fill:url(#linear-gradient-9)}.cls-17{fill:url(#linear-gradient-10)}.cls-18{fill:url(#linear-gradient-11)}</style><linearGradient id="linear-gradient" x1="1799.03" y1="407.92" x2="2021.54" y2="688.13" gradientUnits="userSpaceOnUse"><stop offset="0" stop-color="#e2ddcd"/><stop offset="1" stop-color="#aea99d"/></linearGradient><pattern id="New_Pattern_Swatch_1" data-name="New Pattern Swatch 1" width="267.78" height="267.78" patternTransform="translate(-212.22 -92.22)" patternUnits="userSpaceOnUse" viewBox="0 0 267.78 267.78"><path class="cls-1" d="M0 0h267.78v267.78H0z"/><path class="cls-2" d="M0 0h267.78v267.78H0z"/></pattern><linearGradient id="linear-gradient-2" x1="935.02" y1="819.82" x2="1136.93" y2="1038.22" xlink:href="#linear-gradient"/><linearGradient id="linear-gradient-3" x1="3040.26" y1="863.15" x2="3245.9" y2="1120.2" xlink:href="#linear-gradient"/><linearGradient id="linear-gradient-4" x1="2721.25" y1="396.89" x2="2909.97" y2="943.12" gradientUnits="userSpaceOnUse"><stop offset="0" stop-color="#fceec2"/><stop offset=".2" stop-color="#f5e6b9"/><stop offset=".52" stop-color="#e4d19f"/><stop offset=".94" stop-color="#c7af76"/><stop offset=".99" stop-color="#c3aa70"/></linearGradient><linearGradient id="linear-gradient-5" x1="1761.35" y1="366.36" x2="1621.49" y2="753.81" xlink:href="#linear-gradient-4"/><linearGradient id="linear-gradient-6" x1="731.83" y1="701.25" x2="807.56" y2="797.17" gradientUnits="userSpaceOnUse"><stop offset="0" stop-color="#e2ddcd"/><stop offset=".28" stop-color="#d9d4c4"/><stop offset=".74" stop-color="#bfbaad"/><stop offset=".99" stop-color="#aea99d"/></linearGradient><linearGradient id="linear-gradient-7" x1="1385.88" y1="531.88" x2="1461.6" y2="627.8" xlink:href="#linear-gradient-6"/><linearGradient id="linear-gradient-8" x1="1926.29" y1="1030.76" x2="2002.02" y2="1126.68" xlink:href="#linear-gradient-6"/><linearGradient id="linear-gradient-9" x1="3367.87" y1="865.79" x2="3443.6" y2="961.71" xlink:href="#linear-gradient-6"/><linearGradient id="linear-gradient-10" x1="2796.58" y1="236.26" x2="2939.15" y2="596.45" xlink:href="#linear-gradient-4"/><linearGradient id="linear-gradient-11" x1="2757.76" y1="251.62" x2="2900.33" y2="611.82" xlink:href="#linear-gradient-4"/></defs><title>julklapp-illustration-2</title><path class="cls-4" d="M1340.51 809.08c-.51-.62-51.4-63-51.4-136.36a4.58 4.58 0 0 0-1.34-3.24c-11.36-11.36-32.13-12.14-52.93-12.19 0-20.16-.59-44.94-8.29-58.54 11.92-8.77 19.15-37.31 19.15-45.41a4.58 4.58 0 0 0-4.58-4.58c-8.29 0-38.05 7.59-46 20-25.77-11.18-89.28-29-113.4-30.76-1.43-2.74-4.45-6.48-10.67-12a257.35 257.35 0 0 0-24-18.49c-3.09-2.14-27.45-18.85-40.09-23-.14-21.44-1.33-72.87-1.69-88 14.41-2.42 34.27-14.92 34.27-27.67a4.58 4.58 0 0 0-2-3.81 69.78 69.78 0 0 0-30.52-11.19v-6.71c0-28 51.48-28 82.24-28 17 0 29.66-5.67 37.64-16.84 7-9.75 10.35-23.49 10.35-42v-54.23c0-14.43-4.77-29-15.43-29s-15.43 14.56-15.43 29v54.26c0 14.13-4.43 19.84-6.27 19.84s-6.27-5.71-6.27-19.84v-43.41c0-14.43-4.77-29-15.43-29s-15.43 14.57-15.43 29v54.26c0 14.13-4.43 19.84-6.27 19.84s-6.27-5.71-6.27-19.84c0-14.43-4.77-29-15.43-29s-15.43 14.57-15.43 29a4.58 4.58 0 1 0 9.16 0c0-14.13 4.43-19.84 6.27-19.84.76 0 2.14 1.12 3.36 3.57 1.88 3.75 2.91 9.53 2.91 16.27 0 8.25 1.34 15.29 3.88 20.36 2.75 5.49 7 8.64 11.56 8.64 10.66 0 15.43-14.56 15.43-29v-54.26c0-14.13 4.43-19.84 6.27-19.84s6.27 5.71 6.27 19.84v43.41c0 8.25 1.34 15.29 3.88 20.36 2.74 5.49 7 8.64 11.56 8.64 10.66 0 15.43-14.57 15.43-29v-54.26c0-14.13 4.43-19.84 6.27-19.84s6.27 5.71 6.27 19.84v54.26c0 34.36-12 49.68-38.83 49.68-16.25 0-38.51 0-56.65 4.19-23.06 5.32-34.75 16.41-34.75 33v6.1a97.05 97.05 0 0 0-12.54.65v-61c0-14.13 4.43-19.84 6.27-19.84.76 0 2.14 1.12 3.36 3.57 1.88 3.75 2.91 9.53 2.91 16.27a4.58 4.58 0 1 0 9.16 0c0-14.43-4.77-29-15.43-29s-15.43 14.57-15.43 29v62.47a159 159 0 0 0-29.73 9.27c-8 3.33-20.08 1.21-32.82-1-15.24-2.69-31-5.47-43.4.55a4.58 4.58 0 0 0-2.58 4.12c0 13.73 31.77 53 63.43 58.26-9.94 23.87-19 69.23-19.94 100.26-10.05-1.19-24-5.82-37.46-10.33-17.11-5.7-33.26-11.09-44.86-11.09a4.58 4.58 0 0 0-4.58 4.58c0 4.5-.1 10.92-.23 18.37-.17 10.23-.38 23-.38 35.29a4.59 4.59 0 0 0 .51 2.09c11.37 22.14 42 76.19 42.29 76.74a4.58 4.58 0 0 0 1.18 1.36l56.07 43.41a4.58 4.58 0 0 0 7.38-3.62V651a4.58 4.58 0 0 0-1.83-3.66l-42.27-31.7-17-51.09 53 35.34c14.74 28.37 46.63 48 94.83 58.31 36.69 7.86 73.29 8.22 90.81 8.24 22.7 31.68 75.72 53.75 130.68 54.25 20.25 21.6 39.05 73 39.25 73.56a4.57 4.57 0 0 0 .81 1.4l54.26 63.91a4.58 4.58 0 0 0 8.07-3V812a4.58 4.58 0 0 0-1.16-2.92zm-8.11 35.07l-45.66-53.78c-2.63-7.1-21.38-56.47-42.38-77.47a4.58 4.58 0 0 0-3.24-1.34c-53.94 0-105.92-21.47-126.42-52.22a4.58 4.58 0 0 0-3.81-2c-16.09 0-53.78 0-91.29-8-46-9.85-75.94-28.2-89.11-54.55a4.58 4.58 0 0 0-1.56-1.76l-65.12-43.41a4.58 4.58 0 0 0-6.89 5.26L878.63 620a4.58 4.58 0 0 0 1.6 2.22l41.58 31.18v20.93l-48-37.13c-3.79-6.7-30.29-53.61-41.16-74.62 0-11.91.21-24.14.38-34 .08-5.12.16-9.75.2-13.64 10 1.2 23.93 5.83 37.41 10.32 17.11 5.7 33.26 11.09 44.86 11.09a4.58 4.58 0 0 0 4.58-4.58c0-32.59 10.8-85.61 21.8-107a4.58 4.58 0 0 0-4.08-6.67c-27.24 0-55.76-34.48-60.46-46.83 9.5-2.92 22.22-.67 34.55 1.5 14.09 2.49 27.41 4.84 37.92.48 32.67-13.53 59.56-14.21 80-2-3 7.19-19 16.72-29.29 16.72a4.58 4.58 0 0 0-4.58 4.69c0 .74 1.81 74.35 1.81 95.75a4.57 4.57 0 0 0 4.57 4.58c3.1.09 18.17 7.62 38.4 21.52 22.62 15.54 32.19 25.58 33 28.35a4.58 4.58 0 0 0 4.58 4.39c17.85 0 92.17 19.49 117.33 32.07a4.58 4.58 0 0 0 6.63-4.1c0-1.68 4-6.07 14.86-10.71a94.15 94.15 0 0 1 18.8-5.82 94.15 94.15 0 0 1-5.82 18.8c-4.64 10.83-9 14.86-10.71 14.86a4.58 4.58 0 0 0-3.24 7.82c9.51 9.51 9.51 42.29 9.51 61.88a4.58 4.58 0 0 0 4.58 4.58c19.51 0 39.65 0 49.7 8.3.48 39.36 14.74 75 26.73 98.2a264.9 264.9 0 0 0 25.71 40.66z" transform="translate(-84.94 -177.06)"/><path class="cls-5" d="M2061.41 620.39l-48-8.21 22.12-15.65a4.58 4.58 0 0 0-5.29-7.48L2000.68 610l-34.8-6 22.56-27.16 36.1-3.34a4.58 4.58 0 0 0-.84-9.12l-27 2.5 31.08-37.43a4.58 4.58 0 0 0-7-5.85l-31.09 37.43-2.5-27a4.58 4.58 0 0 0-9.12.84l3.34 36.1-22.56 27.16-12.24-33.12 15.16-32.94a4.58 4.58 0 1 0-8.32-3.83l-11.33 24.61-16.87-45.63a4.58 4.58 0 1 0-8.59 3.18l16.87 45.63-24.61-11.33a4.58 4.58 0 0 0-3.83 8.32l32.91 15.22 12.24 33.12-34.8-6-20.95-29.6a4.58 4.58 0 0 0-7.48 5.29l15.65 22.12-48-8.21a4.58 4.58 0 1 0-1.54 9l48 8.21L1879 617.9a4.58 4.58 0 1 0 5.29 7.48l29.6-20.95 34.8 6-22.56 27.16-36.13 3.31a4.58 4.58 0 0 0 .84 9.12l27-2.5-31.08 37.43a4.58 4.58 0 1 0 7 5.85l31.09-37.43 2.5 27a4.58 4.58 0 0 0 4.56 4.16h.43a4.58 4.58 0 0 0 4.14-5l-3.34-36.1 22.56-27.16 12.3 33.1-15.16 32.94a4.58 4.58 0 1 0 8.32 3.83l11.33-24.61 16.87 45.63a4.58 4.58 0 0 0 8.59-3.18l-16.87-45.63 24.61 11.33a4.58 4.58 0 0 0 3.83-8.32l-32.94-15.16-12.24-33.12 34.8 6 20.95 29.6a4.58 4.58 0 1 0 7.48-5.29l-15.65-22.12 48 8.21a4.58 4.58 0 1 0 1.54-9z" transform="translate(-84.94 -177.06)"/><path class="cls-6" d="M796.61 396.65l-60.55-11.09 29.08-20.08a4.58 4.58 0 1 0-5.21-7.54l-36.62 25.28L679 375.1l29.2-34.33 44.36-3.58a4.58 4.58 0 0 0-.74-9.13l-35.23 2.84 39.88-46.9a4.58 4.58 0 1 0-7-5.94L709.61 325l-2.85-35.23a4.58 4.58 0 0 0-9.13.74l3.58 44.36L672 369.16l-15.13-42.45 19.13-40.2a4.58 4.58 0 0 0-8.28-3.93l-15.15 31.93-20.67-58a4.58 4.58 0 0 0-8.63 3.08l20.67 58L612 302.43a4.58 4.58 0 1 0-3.93 8.28l40.21 19.08 15.13 42.45-44.33-8.12-25.28-36.62a4.58 4.58 0 1 0-7.54 5.21l20.08 29.08-60.55-11.09a4.58 4.58 0 1 0-1.65 9l60.55 11.09-29.08 20.08a4.58 4.58 0 1 0 5.21 7.54l36.62-25.28 44.33 8.12-29.2 34.33-44.36 3.58a4.58 4.58 0 1 0 .74 9.13l35.22-2.84-39.88 46.89a4.58 4.58 0 1 0 7 5.94l39.88-46.89 2.83 35.22a4.58 4.58 0 0 0 4.56 4.21h.37a4.58 4.58 0 0 0 4.2-4.93l-3.58-44.36 29.2-34.33 15.13 42.45-19.08 40.21a4.58 4.58 0 1 0 8.28 3.93l15.15-31.93 20.67 58a4.58 4.58 0 1 0 8.63-3.08l-20.67-58 31.93 15.15a4.58 4.58 0 0 0 3.93-8.28l-40.21-19.08-15.13-42.45 44.33 8.12L747 428.85a4.58 4.58 0 1 0 7.54-5.21l-20.08-29.08 60.54 11.1a4.64 4.64 0 0 0 .83.08 4.58 4.58 0 0 0 .82-9.09z" transform="translate(-84.94 -177.06)"/><path class="cls-7" d="M3894.13 488.82l-61.33 5.26 22.76-27a4.58 4.58 0 1 0-7-5.9l-28.66 34L3775 499l19.11-40.81 41.84-15.15a4.58 4.58 0 1 0-3.12-8.61l-33.23 12 26.11-55.74a4.58 4.58 0 0 0-8.3-3.89l-26.11 55.74-12-33.23a4.58 4.58 0 1 0-8.61 3.12l15.15 41.84-19.11 40.81-25.79-37 7.8-43.81a4.58 4.58 0 1 0-9-1.61l-6.19 34.79-35.22-50.48a4.58 4.58 0 1 0-7.51 5.24l35.18 50.61-34.79-6.2a4.58 4.58 0 0 0-1.61 9l43.81 7.8 25.79 37-44.9 3.85-34-28.66a4.58 4.58 0 1 0-5.9 7l27 22.76-61.4 5.25a4.58 4.58 0 1 0 .78 9.13l61.33-5.26-22.76 27a4.58 4.58 0 1 0 7 5.9l28.66-34 44.9-3.85-19.11 40.81-41.8 15.14a4.58 4.58 0 1 0 3.12 8.61l33.23-12-26.11 55.74a4.58 4.58 0 1 0 8.3 3.89l26.11-55.73 12 33.23a4.58 4.58 0 0 0 5.51 2.86l.36-.11a4.58 4.58 0 0 0 2.75-5.87l-15.15-41.84 19.11-40.81 25.79 37-7.8 43.81a4.58 4.58 0 1 0 9 1.61l6.19-34.79 35.22 50.48a4.58 4.58 0 1 0 7.51-5.24L3809 555.75l34.79 6.2a4.58 4.58 0 1 0 1.61-9l-43.81-7.8-25.79-37 44.9-3.85 34 28.66a4.58 4.58 0 1 0 5.9-7l-27-22.76 61.33-5.26a4.64 4.64 0 0 0 .82-.15 4.58 4.58 0 0 0-1.6-9zm-3581.8 617.45l-47-39.75 35.22-2.94a4.58 4.58 0 0 0-.76-9.13l-44.35 3.7L221 1029l42.41-15.24 40.26 19a4.58 4.58 0 0 0 3.9-8.29l-32-15.06 57.93-20.82a4.58 4.58 0 1 0-3.1-8.62l-57.93 20.82 15.06-32a4.58 4.58 0 0 0-8.29-3.9l-19 40.26-42.41 15.24 8-44.35 36.56-25.38a4.58 4.58 0 1 0-5.22-7.53l-29 20.16 10.93-60.58a4.58 4.58 0 1 0-9-1.63l-10.88 60.62-20.15-29a4.58 4.58 0 1 0-7.53 5.22l25.38 36.56-8 44.35-34.41-29.11-3.7-44.35a4.58 4.58 0 0 0-9.13.76l2.94 35.22-47-39.75a4.58 4.58 0 1 0-5.92 7l47 39.75-35.22 2.94a4.58 4.58 0 1 0 .76 9.13l44.35-3.7 34.41 29.07-42.41 15.21-40.26-19a4.58 4.58 0 0 0-3.9 8.29l32 15.06-57.93 20.82a4.58 4.58 0 1 0 3.1 8.62l57.9-20.79-15.06 32a4.58 4.58 0 0 0 1.86 5.92l.33.17a4.58 4.58 0 0 0 6.1-2.19l19-40.26 42.41-15.24-8 44.35-36.56 25.38a4.58 4.58 0 1 0 5.22 7.53l29-20.16-10.93 60.58a4.58 4.58 0 0 0 9 1.63l10.93-60.58 20.15 29a4.58 4.58 0 0 0 7.53-5.22l-25.38-36.56 8-44.35 34.41 29.1 3.7 44.35a4.58 4.58 0 1 0 9.13-.76l-2.94-35.22 47 39.75a4.64 4.64 0 0 0 .68.48 4.58 4.58 0 0 0 5.23-7.47z" transform="translate(-84.94 -177.06)"/><path class="cls-8" d="M1149.19 919.13a4 4 0 0 0-5.42-1.63l-36 19.38 6.52-21.69a4 4 0 0 0-7.66-2.3l-8.82 29.35-26.11 14 .89-29.63 22.32-21a4 4 0 0 0-5.48-5.82l-16.49 15.53 1.23-40.89a4 4 0 0 0-8-.24l-1.23 40.89-15.53-16.49a4 4 0 1 0-5.82 5.48l21 22.32-.89 29.63-25.21-15.59-7-29.83a4 4 0 1 0-7.79 1.84l5.2 22L994.05 913a4 4 0 1 0-4.21 6.8l34.8 21.51-22 5.2a4 4 0 0 0 1.66 7.82h.18l29.83-7 25.21 15.59-26.11 14-29.41-8.86a4 4 0 0 0-2.3 7.66l21.69 6.52-36 19.38a4 4 0 1 0 3.79 7l36-19.38-6.52 21.69a4 4 0 1 0 7.66 2.3l8.82-29.36 26.11-14-.89 29.63-22.32 21a4 4 0 0 0 5.48 5.82l16.49-15.53-1.23 40.89a4 4 0 1 0 8 .24l1.23-40.89 15.53 16.49a4 4 0 1 0 5.82-5.48l-21-22.32.89-29.63 25.21 15.59 7 29.83a4 4 0 0 0 4.64 3h.18a4 4 0 0 0 3-4.81l-5.2-22 34.79 21.51a4 4 0 0 0 4.21-6.8l-34.8-21.51 22-5.2a4 4 0 1 0-1.84-7.79l-29.83 7-25.21-15.59 26.11-14 29.36 8.82a4 4 0 0 0 2.3-7.66l-21.69-6.52 36-19.38a4 4 0 0 0 1.71-5.45z" transform="translate(-84.94 -177.06)"/><path class="cls-9" d="M3269.63 1033.45a3.5 3.5 0 0 0-4.47-2.12l-31.41 11.23 7.81-16.51a3.5 3.5 0 1 0-6.33-3l-10.81 22.83-22.69 8.11 4.32-23.7 20.78-14.37a3.5 3.5 0 0 0-4-5.76l-15 10.39 6-32.81a3.5 3.5 0 0 0-6.89-1.26l-6 32.81-10.39-15a3.5 3.5 0 1 0-5.76 4l14.37 20.78-4.32 23.7-18.37-15.59-2.06-25.18a3.5 3.5 0 1 0-7 .57l1.49 18.2-25.43-21.59a3.5 3.5 0 0 0-4.53 5.34l25.43 21.59-18.2 1.49a3.5 3.5 0 0 0 .28 7h.29l25.18-2.06 18.37 15.59-22.69 8.11-22.83-10.81a3.5 3.5 0 0 0-3 6.33l16.51 7.81-31.41 11.23a3.5 3.5 0 1 0 2.36 6.59l31.41-11.23-7.81 16.51a3.5 3.5 0 1 0 6.33 3l10.81-22.83 22.69-8.11-4.32 23.7-20.78 14.37a3.5 3.5 0 1 0 4 5.76l15-10.39-6 32.81a3.5 3.5 0 1 0 6.89 1.26l6-32.81 10.39 15a3.5 3.5 0 1 0 5.76-4l-14.37-20.78 4.32-23.7 18.37 15.59 2.06 25.18a3.5 3.5 0 0 0 3.48 3.21h.29a3.5 3.5 0 0 0 3.2-3.77l-1.49-18.2 25.42 21.59a3.5 3.5 0 0 0 4.53-5.34l-25.41-21.62 18.2-1.49a3.5 3.5 0 1 0-.57-7l-25.18 2.06-18.37-15.59 22.69-8.11 22.83 10.81a3.5 3.5 0 1 0 3-6.33l-16.51-7.81 31.41-11.23a3.5 3.5 0 0 0 2.13-4.45z" transform="translate(-84.94 -177.06)"/><path class="cls-10" d="M1496.31 857.62a4.71 4.71 0 0 0-2.84 9 22.85 22.85 0 1 1-28.68 14.9 4.71 4.71 0 1 0-9-2.84 32.27 32.27 0 0 0 30.74 42 32.61 32.61 0 0 0 18.9-6.12 32 32 0 0 0 11.88-16.42 32.3 32.3 0 0 0-21-40.52z" transform="translate(-84.94 -177.06)"/><path class="cls-10" d="M1950.95 921.49c-6.35-15.46-15.31-28.32-26.64-38.22a23.07 23.07 0 0 0 5.62-45l-169.63-53.69a23.08 23.08 0 1 0-13.92 44l6.84 2.16c15.78 32.57 3.21 72.32-6.9 104.26a4.52 4.52 0 0 0-.2 1.3l-57.61-18.23-10.06-177.77 46-62.22c.19-.26.37-.52.55-.79l30.09 9.52a4.71 4.71 0 0 0 2.84-9l-28.93-9.12a28 28 0 0 0 .42-12.84 29.72 29.72 0 0 0-51.17-13.9l-6.82 7.75a29.53 29.53 0 0 0-.73-6.33 25.48 25.48 0 0 0-11.94-16.69l-33.9-19.68a4.71 4.71 0 0 0-7.05 3.66l-4.89 56.27a4.68 4.68 0 0 0 3.27 4.89l20.83 6.59a23.6 23.6 0 0 0 7.13 1.1h1.14l-67.2 76.38a66.65 66.65 0 0 1-14.95 10.88c-11.76 6.26-23.19 7.71-34 4.29-16.13-5.1-35.59-4.12-53.39 2.69-18.29 7-31.27 18.88-35.61 32.59a4.7 4.7 0 0 0 3.07 5.91l28.12 8.9a69.46 69.46 0 0 0-16.6 6.08 69 69 0 1 0 99.78 49.13 64.1 64.1 0 0 0 15.35 12.1 20 20 0 0 0 17.91 1 20.34 20.34 0 0 0 11.8-13.7c1.91-5.84 1.14-13.42.26-22.21-2.07-20.67-4.66-46.4 25.46-62.49A221.55 221.55 0 0 0 1647 778.4l6.19 109.5a43 43 0 0 0 29 38h.06l.24.08.44.15 104.75 33.14a67.26 67.26 0 0 0-11 20.83 69 69 0 0 0 106.18 76.75 68.38 68.38 0 0 0 25.42-35.12 67.09 67.09 0 0 0 3-23.37l2.71.86a32.67 32.67 0 0 0 9.87 1.47 37.43 37.43 0 0 0 12.91-2.33c8.16-3 14.08-8.71 16.25-15.57a90.2 90.2 0 0 0-2.07-61.3zm-311.09-252.1l-17.23-5.45 3.92-45.12 27.51 16a16.18 16.18 0 0 1 7.49 10.64 21 21 0 0 1-3.17 16.35l-.12.18c-4.45 6.51-11.84 9.47-18.4 7.4zm-96.46 237a59.06 59.06 0 0 1-22 30.33 60.23 60.23 0 0 1-34.91 11.3 59.62 59.62 0 1 1 17.86-116.47l.49.16a59.74 59.74 0 0 1 38.56 74.65zm104.27-140.25c-1.13 1-7.73 6.71-26.74 16.58-35.72 19.09-32.54 50.78-30.44 71.76.75 7.46 1.46 14.5.13 18.43 0 .12-.08.24-.11.36a11 11 0 0 1-6.4 7.51 10.66 10.66 0 0 1-9.54-.55c-11.81-6.77-17.24-14.87-23-23.45-8.32-12.43-16.92-25.29-43.81-34l-.19-.07-.2-.07h-.16l-.19-.06-.2-.06-55.82-17.78c4.75-9.13 15-17.24 28.18-22.28 15.62-6 33.26-6.91 47.18-2.5a47.79 47.79 0 0 0 14.49 2.25c24.7 0 43.21-19 44.12-19.94l.13-.14 100.26-114a20.31 20.31 0 0 1 34.86 9.5 18.69 18.69 0 0 1-.19 8.17l-21.13-6.68a4.71 4.71 0 1 0-2.84 9l19.51 6.17zm14.93 121.27l-6.6-116.7 13.7-18.53 9.16 162a33.28 33.28 0 0 1-16.26-26.81zm86.62-67.76a13.67 13.67 0 1 1 8.24-26.06l169.63 53.66a13.67 13.67 0 0 1-8.24 26.06l-29.44-9.31h-.07zm150.1 199.35a59.6 59.6 0 0 1-113.65-36 58.52 58.52 0 0 1 11.42-20.36l52.29 16.54a22.85 22.85 0 1 1-28.68 14.9 4.71 4.71 0 1 0-9-2.84 32.27 32.27 0 0 0 30.74 42 32.61 32.61 0 0 0 18.9-6.12 32.23 32.23 0 0 0 9.75-41v-.05l30.58 9.67a58.3 58.3 0 0 1-2.35 23.26zm44.74-39c-1.29 4.08-5.14 7.58-10.56 9.59a26.55 26.55 0 0 1-16.67.71L1754.72 939a4.69 4.69 0 0 0 .57-1.18c9.23-29.17 21.85-69.08 9.67-103.39l72.75 23a85.5 85.5 0 0 0-29.46 12.13 74.32 74.32 0 0 0-30.5 40.44 4.71 4.71 0 1 0 9 2.84 64.9 64.9 0 0 1 26.58-35.28c19.3-12.32 39.75-15.2 60.78-8.55l12.45 3.94c26.14 8.28 44.88 25.82 55.7 52.14a80.78 80.78 0 0 1 1.8 54.91z" transform="translate(-84.94 -177.06)"/><path class="cls-4" d="M2981.15 1074.22c-15.38-6.77-32.82-14.45-35.69-20.44a5.11 5.11 0 0 0-.39-.68l-65.44-94.86a75.34 75.34 0 0 0-57.65-41.9l-196.71-26.93a38.51 38.51 0 0 0-5.6-9.54c11.28-3.45 16.78-7.71 16.78-13a4.58 4.58 0 0 0-.48-2 33.89 33.89 0 0 0-5.65-7.68c11.23-14.94-1.05-39.52-13-63.34-7.38-14.77-15-30-15-39.87a4.58 4.58 0 1 0-9.16 0v60.93a42.32 42.32 0 0 0-22.71-7.15h-1.17a31.85 31.85 0 0 0-26.1-13.76 27.65 27.65 0 0 0-9.59 1.8 19.53 19.53 0 0 0-3.88-5.56 4.58 4.58 0 1 0-6.48 6.48 10.38 10.38 0 1 1-14.68 0 4.58 4.58 0 1 0-6.48-6.48 19.53 19.53 0 0 0-3.88 5.56 27.64 27.64 0 0 0-9.59-1.8 31.85 31.85 0 0 0-26.12 13.64h-1.17a42.32 42.32 0 0 0-22.71 7.15v-60.9a4.58 4.58 0 1 0-9.16 0c0 9.83-7.63 25.1-15 39.87-11.91 23.82-24.19 48.4-13 63.34a33.89 33.89 0 0 0-5.65 7.68 4.58 4.58 0 0 0-.48 2c0 5.88 7.24 10.16 16.75 13.06a38.66 38.66 0 0 0 5.3 53.6h-29.78a64.53 64.53 0 0 1-64.45-64.44 4.58 4.58 0 0 0-9.16 0 73.71 73.71 0 0 0 73.62 73.62h50.46a38.74 38.74 0 0 0 38.41 34.13 29.56 29.56 0 0 1 29.53 29.53 4.58 4.58 0 0 0 9.16 0 38.74 38.74 0 0 0-38.69-38.69 29.56 29.56 0 0 1-29.53-29.53 4.58 4.58 0 0 0-4.58-4.58h-.69a29.52 29.52 0 0 1-19.4-51.14 137.2 137.2 0 0 0 18.37 2.16q3.57.17 6.92.17c32.42 0 49.57-11.51 57.11-18.7a48.67 48.67 0 0 0 11.26-16.2 50.18 50.18 0 0 0 19.87 22.91c15.76 9.9 35.26 12 48.84 12a135.09 135.09 0 0 0 24.88-2.32 29.53 29.53 0 0 1-20.1 51.16 4.58 4.58 0 0 0-4.58 4.58 29.56 29.56 0 0 1-29.53 29.53 38.74 38.74 0 0 0-38.69 38.69 4.58 4.58 0 0 0 9.16 0 29.56 29.56 0 0 1 29.53-29.53 38.74 38.74 0 0 0 38.44-34.36 38.66 38.66 0 0 0 34.14-42.56l192.74 26.38a65.37 65.37 0 0 1 50.16 36.67 5 5 0 0 0 .39.68l65.46 94.89c4.73 9.14 20.54 16.1 40.49 24.88 27.35 12 61.38 27 58.59 47.44l-11.93 87.19c-2.15 15.71-16.7 30.74-39.91 41.23-21 9.48-46.53 14-65 11.44l-18.27-2.79a76.28 76.28 0 0 0 2-9.84 75.12 75.12 0 0 0-148.86-20.38 75.67 75.67 0 0 0-.66 7.67l-375.42-51.39a69 69 0 0 0 1.48-7.55 75.72 75.72 0 1 0-150.05-20.54 76.85 76.85 0 0 0-.68 9c-18-2.51-29.08-4.38-39.86-6.2-9.88-1.66-19.21-3.24-32.71-5.08-16.91-2.31-20.17-45.48-16-75.76 2.7-19.74 20.2-52.72 41.11-68.93 25.81-10.06 81.75-14.29 126.77-17.7 7.48-.57 14.55-1.1 21.14-1.64a142.26 142.26 0 0 0 58.74 12.62h26.18l15.81 2.16h.38l214 29.29a5.1 5.1 0 0 0 .68 0 5 5 0 0 0 5-4.32L2663 941a4.17 4.17 0 0 0-.06-1.61c0-.12 0-.24-.06-.35a5 5 0 0 0-.24-.64c0-.09-.06-.18-.1-.27a5 5 0 0 0-.48-.79 5 5 0 0 0-.62-.67c-.09-.08-.19-.14-.28-.21a5 5 0 0 0-.5-.36c-.12-.07-.25-.12-.38-.18a4.9 4.9 0 0 0-.51-.23 5 5 0 0 0-1-.23l-33.34-4.56a5 5 0 0 0-1.36 9.91l28.38 3.88-12.1 88.4-186.19-25.49a5 5 0 0 0-3.77-8.7l-36.55 3.28h-26.23c-73.38 0-133.08-59.7-133.08-133.08a5 5 0 0 0-10 0 143.12 143.12 0 0 0 68 121.72l-5.5.42c-46.07 3.49-103.41 7.83-130.36 18.64a5 5 0 0 0-1.16.66c-23.44 17.8-42.46 53.64-45.51 75.95-1.78 13-2.7 33.11 0 50.71 2.38 15.36 8.58 34.12 24.55 36.31 13.35 1.83 22.61 3.39 32.41 5 11.21 1.89 22.81 3.84 42 6.5a75.79 75.79 0 0 0 65 66.14 64.1 64.1 0 0 0 8.68.58c15.53 0 31.72-5.43 45.56-15.47a77.2 77.2 0 0 0 26.35-32.68l379 51.88a75.24 75.24 0 0 0 64.54 66.81 76.29 76.29 0 0 0 10.35.71 75.18 75.18 0 0 0 68.88-45.5l20.19 3.09a92.67 92.67 0 0 0 12.53.81c18.32 0 39.52-4.67 58-13 26.81-12.12 43-29.51 45.7-49l11.93-87.15c3.77-27.95-34.1-44.62-64.52-58.01zm-372-276.36c10.11 20.22 21.49 43 13.85 53.68a24.54 24.54 0 0 0-7.28-2.54c-1.15-9.79-6.2-19.25-13.4-26.65v-38.43c2.14 4.53 4.47 9.19 6.84 13.94zm-186.54 0c2.37-4.75 4.7-9.41 6.82-13.94v38.42c-7.2 7.4-12.25 16.86-13.4 26.65a24.54 24.54 0 0 0-7.28 2.54c-7.62-10.68 3.76-33.46 13.87-53.67zm75.72 61.5c-11.91 11.35-32.79 17.18-57.27 16a121.08 121.08 0 0 1-18.74-2.32l-.32-.04c-8.6-1.82-14.52-4.25-16.82-6 2.2-3.19 7.38-9.18 15.17-9.18a4.58 4.58 0 0 0 4.58-4.58c0-9.21 4.8-18.49 11.9-25.38a4.57 4.57 0 0 0 .63-.6c5.83-5.44 13.1-9.27 20.51-10.17a31.76 31.76 0 0 0-1.26 8.86 4.58 4.58 0 1 0 9.16 0 22.73 22.73 0 0 1 22.71-22.71 19.11 19.11 0 0 1 7.79 1.79A19.44 19.44 0 0 0 2511 823a17 17 0 0 1 .26 2.9c.05 14-4.31 25.25-12.92 33.45zm58.43 12.57c-24.09-6.88-36.3-22.36-36.3-46a17 17 0 0 1 .26-2.9 19.45 19.45 0 0 0 14.65-18 19.12 19.12 0 0 1 7.79-1.79 22.73 22.73 0 0 1 22.71 22.71 4.58 4.58 0 1 0 9.16 0 31.76 31.76 0 0 0-1.26-8.86c7.41.9 14.69 4.73 20.52 10.17a4.58 4.58 0 0 0 .62.59c7.1 6.89 11.9 16.18 11.9 25.39a4.58 4.58 0 0 0 4.58 4.58c7.78 0 12.95 6 15.15 9.15-2.71 2-10.74 5.38-23.85 7.29-15.96 2.27-32.69 1.44-45.92-2.34zm-214.52 356.2c-14.38 10.43-31.52 15.2-47 13.07a65.75 65.75 0 0 1 8.78-130.88 66.66 66.66 0 0 1 9.05.62 65.8 65.8 0 0 1 56.19 74c-2.31 16.91-11.9 32.23-27.01 43.19zm525.32 71.55a65.14 65.14 0 1 1 25.14-43 64.66 64.66 0 0 1-25.13 42.99z" transform="translate(-84.94 -177.06)"/><path class="cls-4" d="M2684.24 1044.08a5 5 0 0 0 4.28 5.63l195.07 26.7a5 5 0 0 0 5-7.45l-62.7-108.73a5 5 0 0 0-3.65-2.46l-118.92-16.27a5 5 0 0 0-1.36 9.91l116.49 15.95 56.38 97.77-185-25.32a5 5 0 0 0-5.59 4.27zm-123.55 33.36a5 5 0 1 0-1.36 9.91l58.82 8.05a5.07 5.07 0 0 0 .68 0 5 5 0 0 0 .67-10zM2310 1133.15a5 5 0 0 0-1.36 9.91 33.31 33.31 0 0 1 28.48 37.53c-1.17 8.51-6 16.26-13.7 21.83-7.21 5.23-16.11 7.72-23.81 6.67a33.31 33.31 0 0 1-28.49-37.53 5 5 0 1 0-9.91-1.36 43.32 43.32 0 0 0 37 48.79 36.9 36.9 0 0 0 5 .34 44.93 44.93 0 0 0 26-8.82c9.9-7.18 16.2-17.32 17.74-28.56a43.31 43.31 0 0 0-37-48.79zm524.07 71.73a5 5 0 0 0-1.36 9.91 33.35 33.35 0 0 1 28.48 37.53c-1.17 8.51-6 16.26-13.7 21.83-7.21 5.23-16.11 7.72-23.81 6.67a33.35 33.35 0 0 1-28.49-37.53 5 5 0 1 0-9.91-1.36 43.37 43.37 0 0 0 37 48.79 36.91 36.91 0 0 0 5 .34 44.93 44.93 0 0 0 26-8.82c9.9-7.18 16.2-17.33 17.74-28.57a43.36 43.36 0 0 0-36.95-48.79zm-366.75-423.96a4.58 4.58 0 0 0 9.16 0 5.65 5.65 0 1 1 11.3 0 4.58 4.58 0 0 0 9.16 0 14.81 14.81 0 0 0-29.63 0zm68.46 0a4.58 4.58 0 0 0 9.16 0 5.65 5.65 0 1 1 11.3 0 4.58 4.58 0 0 0 9.16 0 14.81 14.81 0 0 0-29.63 0zm-280.04 76.25h55.62a11.31 11.31 0 0 0 11.29-11.29v-12.47a11.24 11.24 0 0 0-.32-2.63c9.51-2.23 17.58-11.55 17.58-21.34v-25.89c0-8.71-4.54-17.53-13.21-17.53a11.37 11.37 0 0 0-4 .74v-9.1c0-19.73-19.37-39.1-39.1-39.1s-39.1 19.37-39.1 39.1v88.22a11.31 11.31 0 0 0 11.24 11.29zm57.75-11.29a2.13 2.13 0 0 1-2.13 2.13h-55.62a2.13 2.13 0 0 1-2.13-2.13v-12.47a2.13 2.13 0 0 1 2.13-2.13h55.62a2.13 2.13 0 0 1 2.13 2.13zm-29.94-118.16c14.83 0 29.94 15.11 29.94 29.94v36.68a4.58 4.58 0 0 0 9.16 0v-10.79c0-5.43 2.09-8.37 4-8.37a3 3 0 0 1 2.27 1.4 11.86 11.86 0 0 1 1.78 7v25.89c0 6-6.64 12.68-12.68 12.68h-62.33a11.31 11.31 0 0 0-2.13.21v-64.7c.05-14.83 15.16-29.94 29.99-29.94zM2444 745h143.73a14.6 14.6 0 0 0 14.58-14.58v-14.13a14.59 14.59 0 0 0-7.55-12.76c.49-21.11 6.75-26.56 19.3-27.4a25.06 25.06 0 1 0 3-17.41c-10.49-12-35.67-23.75-77.12-23.75-33.09 0-56.05 4.16-72.25 13.1-20 11-30 29.16-30.68 55.41a14.59 14.59 0 0 0-7.62 12.81v14.11A14.6 14.6 0 0 0 2444 745zm149.15-14.58a5.42 5.42 0 0 1-5.42 5.42H2444a5.42 5.42 0 0 1-5.42-5.42v-14.13a5.42 5.42 0 0 1 5.42-5.42h143.73a5.42 5.42 0 0 1 5.42 5.42zm45.51-74.87a15.89 15.89 0 1 1-15.89 15.89 15.9 15.9 0 0 1 15.92-15.91zm-166.52.56c14.79-8.16 36.34-12 67.82-12 44.54 0 66.54 13.88 72.17 23-17.84 1.76-25.59 12-26.48 34.59h-139.36c1.03-21.64 9.52-36.59 25.88-45.61z" transform="translate(-84.94 -177.06)"/><path class="cls-11" d="M3046.92 807.89l-79-10.84-29.62-4.05-207.36-28.46a4.58 4.58 0 0 0-5.16 3.92l-8.78 64.16-2 14.81-6.78 49.37a4.58 4.58 0 0 0 3.92 5.16l316 43.36a4.58 4.58 0 0 0 5.16-3.92l17.54-128.4a4.58 4.58 0 0 0-3.92-5.11zm-11.31 48.75l-12.16-1.64a4.57 4.57 0 0 0-3.22-5.28 77.36 77.36 0 0 0-39.18-.54l-15.36-2.18 5.53-40.3 69.92 9.59zM2925.23 922l5.16-37.63a24.8 24.8 0 0 0 13.33 3.92 24.22 24.22 0 0 0 7.22-1.11l-5.17 37.64zM2726 833.87l1.41-10.27 144.7 19.86-5.74 20.15-141.78-19.46zm161.84-12.18c21.81 8 33.43 26 35.14 28.85a24.7 24.7 0 0 0-3.85 13.52c-3 1.5-22.33 10.7-45.06 6zm53.88-19l20.38 2.8-5.1 37.64a24.59 24.59 0 0 0-6.58-3 24.34 24.34 0 0 0-14 .16l5.16-37.64zm-12.84 56.83a15.38 15.38 0 0 1 14.74-11.15 15.43 15.43 0 0 1 4.23.59 15.35 15.35 0 1 1-19 10.56zm35.43 17.4a24.7 24.7 0 0 0 3.85-13.52c2.95-1.5 22.32-10.71 45.06-6l-13.78 48.38c-21.76-7.99-33.38-26.03-35.09-28.85zm56.6-13.06l13.41 1.84-2.82 20.55-16.29-2.25zm-286.73-89.65l198.29 27.21-5.34 38.95c-6.23-8.3-19.69-22.81-41.14-28.92a4.58 4.58 0 0 0-5.66 3.15l-5.68 19.94-146-20zm-10.84 79l140.53 19.28a4.57 4.57 0 0 0 3.22 5.28 73.79 73.79 0 0 0 20.27 2.8 81.76 81.76 0 0 0 18.9-2.26l15.37 2.11-5.53 40.3-198.29-27.21zm301.38 82.41l-69.87-9.62 5.34-38.95c6.23 8.3 19.69 22.81 41.14 28.92a4.57 4.57 0 0 0 5.66-3.15l5.68-19.94 17.62 2.42z" transform="translate(-84.94 -177.06)"/><path class="cls-12" d="M2372.66 925.57a5 5 0 0 0-6-3.76 791.88 791.88 0 0 1-175.94 19.34 794.54 794.54 0 0 1-169.73-18c-52.49-11.5-101.3-28.21-145.05-49.65-85.78-42-147.51-100.68-174.29-165.4h9.33a5 5 0 0 0-.14-10 443.52 443.52 0 0 1-77.72-5.89 5 5 0 0 0-2.49-.41q-5.18-.87-10.36-1.86a5 5 0 0 0-5.85 4 4.94 4.94 0 0 0-.05 1.34 797.3 797.3 0 0 1-160.33 16 794.54 794.54 0 0 1-169.73-18c-52.49-11.5-101.3-28.21-145.05-49.65-84.17-41.25-145.21-98.49-172.77-161.76a379.79 379.79 0 0 0 47.23-10.87 5 5 0 1 0-2.87-9.58 371.17 371.17 0 0 1-49.55 11.14 4.93 4.93 0 0 0-5.66.84 413.44 413.44 0 0 1-45 3.79 5 5 0 0 0 .15 10h.21a423.87 423.87 0 0 0 45.33-3.79c13.83 32.86 36 64 65.88 92.53 30.61 29.22 68.52 55 112.69 76.66 44.47 21.8 94 38.77 147.31 50.44a804.59 804.59 0 0 0 171.87 18.18A802.47 802.47 0 0 0 1630.76 702a461.85 461.85 0 0 0 60.1 6 5 5 0 0 0 .25.87c13.67 34.53 36.46 67.19 67.76 97.07 30.61 29.22 68.52 55 112.69 76.66 44.47 21.8 94 38.77 147.31 50.44a804.59 804.59 0 0 0 171.87 18.18 801.9 801.9 0 0 0 178.17-19.59 5 5 0 0 0 3.75-6.06z" transform="translate(-84.94 -177.06)"/><path class="cls-13" d="M835.27 784.81L804 777l17.92-18.54a3.5 3.5 0 1 0-5-4.87L799 772.12l-8.87-31a3.5 3.5 0 0 0-6.73 1.93l8.88 31-25-6.25a3.5 3.5 0 0 0-1.7 6.79l25 6.25L768.09 804a3.5 3.5 0 0 0 5 4.87l22.41-23.19 7.09 24.78a3.5 3.5 0 0 0 6.73-1.93l-7.1-24.79 31.31 7.82a3.5 3.5 0 0 0 1.7-6.79z" transform="translate(-84.94 -177.06)"/><path class="cls-14" d="M1489.31 615.45l-31.31-7.83 17.92-18.54a3.5 3.5 0 0 0-5-4.87L1453 602.75l-8.87-31a3.5 3.5 0 0 0-6.73 1.93l8.88 31-25-6.25a3.5 3.5 0 0 0-1.7 6.79l25 6.25-22.42 23.2a3.5 3.5 0 0 0 5 4.87l22.41-23.19 7.09 24.78a3.5 3.5 0 0 0 6.73-1.93l-7.1-24.79 31.31 7.82a3.5 3.5 0 0 0 1.7-6.79z" transform="translate(-84.94 -177.06)"/><path class="cls-15" d="M2029.72 1114.33l-31.31-7.82 17.92-18.54a3.5 3.5 0 1 0-5-4.87l-17.92 18.53-8.87-31a3.5 3.5 0 0 0-6.73 1.93l8.88 31-25-6.25a3.5 3.5 0 0 0-1.7 6.79l25 6.25-22.42 23.2a3.5 3.5 0 0 0 5 4.87l22.41-23.19 7.09 24.78a3.5 3.5 0 0 0 6.73-1.93l-7.1-24.79 31.31 7.82a3.5 3.5 0 0 0 1.7-6.79z" transform="translate(-84.94 -177.06)"/><path class="cls-16" d="M3471.31 949.36l-31.31-7.83 17.92-18.53a3.5 3.5 0 0 0-5-4.87L3435 936.66l-8.87-31a3.5 3.5 0 0 0-6.73 1.93l8.88 31-25-6.25a3.5 3.5 0 0 0-1.7 6.79l25 6.25-22.42 23.2a3.5 3.5 0 0 0 5 4.87l22.41-23.19 7.09 24.78a3.5 3.5 0 0 0 6.73-1.93l-7.1-24.79 31.31 7.82a3.5 3.5 0 0 0 1.7-6.79z" transform="translate(-84.94 -177.06)"/><path class="cls-10" d="M3156 734.4l-38.6-117.53a4.58 4.58 0 0 0-8.7 2.86l37.17 113.18-61.59 20.23-37.93-115.49a4.58 4.58 0 0 0-8.7 2.86L3075.58 756l-14.08 4.63-14.08 4.63-37.93-115.49a4.58 4.58 0 0 0-8.7 2.86l37.93 115.49-61.58 20.23-37.17-113.18a4.58 4.58 0 0 0-8.7 2.86l38.6 117.53a4.57 4.57 0 0 0 5.78 2.92l70.29-23.08 18.44-6.06 88.73-29.14a4.58 4.58 0 0 0 2.89-5.8zm-117.87-107.13l83-27.25a4.58 4.58 0 0 0 2.92-5.78l-9.08-27.66a4.58 4.58 0 0 0-5.78-2.92l-83 27.25-5.12 1.68-114.72 37.68a4.58 4.58 0 0 0-2.92 5.78l9.08 27.65a4.57 4.57 0 0 0 5.78 2.92l118.05-38.77zm75.75-34.52l-74.26 24.39-6.22-19 74.26-24.39zm-96.1 10.56l6.91-2.27 6.22 19-28.17 9.25-6.22-19zm-104.23 34.23l74.26-24.39 6.22 19-74.26 24.39z" transform="translate(-84.94 -177.06)"/><path class="cls-17" d="M2994 522.62a4.58 4.58 0 0 0-2.47-2.49l-68.47-28.58-15.22-6.35-83.69-34.94a4.58 4.58 0 0 0-6 2.46l-9.53 22.83a4.58 4.58 0 0 0 2.46 6l68.47 28.58 15.22 6.35 83.69 34.94a4.58 4.58 0 0 0 6-2.46l9.53-22.83a4.58 4.58 0 0 0 .01-3.51zm-78.7-24.38l-6 14.37-11-4.59-11-4.59 6-14.37 11 4.59zm-90.46-37.76l60 25.06-6 14.37-60-25.06zm152.93 80.72l-60-25.06 6-14.37 60 25.06z" transform="translate(-84.94 -177.06)"/><path class="cls-18" d="M2965.18 553.83a4.59 4.59 0 0 0-6 2.46l-22.08 52.9-49.56-20.69 22.88-54.8a4.58 4.58 0 0 0-8.46-3.53L2879.09 585l-11-4.59-11-4.59L2880 521a4.58 4.58 0 0 0-8.46-3.53l-22.88 54.8-49.56-20.69 22.08-52.9a4.58 4.58 0 0 0-8.46-3.53l-23.85 57.13a4.58 4.58 0 0 0 2.46 6l146.46 61.14a4.58 4.58 0 0 0 6-2.46l23.85-57.13a4.58 4.58 0 0 0-2.46-6z" transform="translate(-84.94 -177.06)"/><path class="cls-10" d="M2867.62 312.16h-17.17v-24.42a4.58 4.58 0 0 0-4.58-4.58c-20.91 0-37.23 9-47.95 17.39a18.91 18.91 0 0 0-20.1 0c-10.72-8.42-27-17.39-47.95-17.39a4.58 4.58 0 0 0-4.58 4.58v24.42h-17.17a4.58 4.58 0 0 0-4.58 4.58v21.75a4.58 4.58 0 0 0 4.58 4.58h159.49a4.58 4.58 0 0 0 4.58-4.58v-21.75a4.58 4.58 0 0 0-4.57-4.58zm-26.33 0h-34.92a19 19 0 0 0-2-5c8.69-6.66 21.24-13.53 36.94-14.67zm-44.63 0h-17.58a9.9 9.9 0 0 1 17.58 0zm-62.2-19.67c15.7 1.15 28.25 8 36.94 14.67a19 19 0 0 0-2 5h-34.91zm-21.75 28.83h56.08v12.59h-56.08zm65.29 12.59v-12.59h19.84v12.59zm85.08 0H2807v-12.59h56zm-5.43 14.52a4.58 4.58 0 0 0-4.58 4.58v87.85H2807v-89.67a4.58 4.58 0 1 0-9.16 0v89.66H2778v-89.66a4.58 4.58 0 1 0-9.16 0v89.66h-46.12V353a4.58 4.58 0 1 0-9.16 0v92.43a4.58 4.58 0 0 0 4.58 4.58h139.55a4.58 4.58 0 0 0 4.58-4.58V353a4.58 4.58 0 0 0-4.62-4.57z" transform="translate(-84.94 -177.06)"/></svg>