<?xml version="1.0" standalone="no"?>
<!DOCTYPE svg PUBLIC "-//W3C//DTD SVG 20010904//EN"
 "http://www.w3.org/TR/2001/REC-SVG-20010904/DTD/svg10.dtd">
<svg version="1.0" xmlns="http://www.w3.org/2000/svg"
 width="270.000000pt" height="859.000000pt" viewBox="0 0 270.000000 859.000000"
 preserveAspectRatio="xMidYMid meet">

<g transform="translate(0.000000,859.000000) scale(0.100000,-0.100000)"
fill="#000000" stroke="none">
<path d="M2140 8579 c-110 -12 -218 -32 -320 -59 -74 -20 -80 -24 -74 -44 11
-37 20 -38 95 -17 41 11 112 27 159 36 95 17 351 36 402 30 18 -2 88 -7 156
-10 l122 -5 0 29 c0 21 -6 30 -22 35 -40 11 -430 15 -518 5z"/>
<path d="M1610 8442 c-87 -38 -208 -112 -305 -187 -332 -258 -524 -648 -502
-1020 19 -303 148 -570 439 -908 l33 -39 23 25 23 24 -46 51 c-145 162 -289
391 -348 557 -87 245 -78 516 27 763 111 265 374 529 658 662 l87 40 -11 30
c-5 17 -11 30 -11 30 -1 0 -31 -13 -67 -28z"/>
<path d="M2260 8363 l-56 -4 4 -32 4 -32 118 3 c117 3 118 3 125 29 3 14 3 28
0 31 -7 8 -121 11 -195 5z"/>
<path d="M2588 8318 c-5 -31 6 -38 58 -38 31 0 34 3 34 29 0 27 -3 29 -44 33
-42 3 -45 1 -48 -24z"/>
<path d="M2002 8315 c-159 -35 -185 -48 -163 -84 7 -11 22 -10 92 7 46 12 96
24 112 27 22 4 27 11 27 35 0 17 -1 30 -2 29 -2 0 -32 -7 -66 -14z"/>
<path d="M1700 8223 c-53 -23 -170 -93 -170 -102 0 -4 6 -15 13 -25 12 -16 20
-14 120 39 108 57 112 61 101 89 -7 19 -18 19 -64 -1z"/>
<path d="M2139 8116 c-53 -8 -133 -24 -178 -36 -75 -20 -81 -24 -75 -44 11
-36 19 -38 96 -17 131 34 256 44 467 38 108 -3 204 -8 214 -12 14 -6 17 -2 17
28 0 33 -2 35 -42 41 -97 14 -403 15 -499 2z"/>
<path d="M1733 8001 c-347 -184 -540 -509 -479 -807 34 -170 133 -343 303
-532 l48 -54 22 24 22 24 -65 74 c-96 111 -197 266 -234 361 -26 67 -34 103
-38 180 -5 109 6 172 49 267 76 169 255 342 442 428 55 24 55 25 45 54 -5 17
-13 30 -16 30 -4 0 -48 -22 -99 -49z"/>
<path d="M1329 7960 c-44 -44 -79 -84 -79 -89 0 -6 8 -15 19 -20 16 -9 31 2
100 70 70 69 80 82 71 99 -6 11 -16 20 -22 20 -6 0 -46 -36 -89 -80z"/>
<path d="M1112 7703 c-42 -84 -66 -163 -54 -175 21 -21 45 -3 62 47 9 28 29
74 45 104 26 52 26 55 9 68 -27 20 -32 17 -62 -44z"/>
<path d="M1026 7351 c-5 -34 -1 -103 10 -178 4 -28 9 -33 31 -33 25 0 26 1 19
53 -3 28 -6 82 -6 118 0 62 -2 67 -24 71 -21 4 -25 0 -30 -31z"/>
<path d="M1101 6991 c-12 -8 -11 -16 3 -53 21 -54 94 -178 105 -178 4 0 15 6
24 13 16 11 13 21 -35 119 -52 104 -66 118 -97 99z"/>
<path d="M1286 6665 c-18 -14 -17 -17 23 -67 23 -29 59 -73 81 -98 l40 -45 22
23 22 22 -40 42 c-22 24 -58 64 -79 91 -20 26 -40 47 -44 47 -3 0 -15 -7 -25
-15z"/>
<path d="M1663 6588 l-21 -23 181 -190 c99 -104 214 -230 256 -280 146 -175
245 -349 297 -521 26 -82 28 -102 28 -264 0 -149 -3 -187 -22 -252 -50 -181
-139 -325 -300 -487 -112 -112 -113 -114 -97 -138 l16 -24 37 30 c60 47 194
190 244 261 231 326 259 730 76 1094 -50 100 -126 216 -212 322 -58 73 -376
415 -438 472 l-24 22 -21 -22z"/>
<path d="M1505 6420 c-17 -19 -16 -22 54 -98 96 -107 94 -106 116 -82 17 19
17 21 -20 62 -64 72 -126 138 -129 138 -2 0 -11 -9 -21 -20z"/>
<path d="M1323 6269 l-22 -22 184 -191 c101 -105 214 -227 250 -271 149 -180
215 -327 215 -479 0 -156 -57 -276 -196 -411 -41 -40 -74 -77 -74 -82 0 -6 8
-17 18 -26 16 -15 22 -13 80 39 241 215 303 481 173 749 -71 148 -225 336
-488 598 l-118 117 -22 -21z"/>
<path d="M1765 6140 c-18 -19 -17 -21 26 -67 25 -27 60 -67 78 -90 38 -48 39
-48 65 -28 17 13 18 16 3 37 -19 28 -137 162 -147 166 -3 1 -15 -7 -25 -18z"/>
<path d="M2028 5849 c-25 -14 -23 -21 18 -85 20 -31 45 -76 56 -100 19 -44 31
-51 58 -34 12 8 12 14 -4 47 -27 59 -99 183 -105 183 -3 0 -14 -5 -23 -11z"/>
<path d="M2174 5487 c-3 -8 0 -34 5 -58 6 -24 11 -72 11 -105 0 -61 1 -62 29
-66 39 -6 44 15 31 115 -14 116 -19 127 -46 127 -14 0 -27 -6 -30 -13z"/>
<path d="M2166 5087 c-3 -18 -22 -66 -42 -107 -33 -70 -34 -75 -18 -87 10 -7
22 -13 27 -13 12 0 84 157 92 203 7 36 6 37 -23 37 -26 0 -31 -4 -36 -33z"/>
<path d="M1907 4719 c-69 -69 -77 -81 -67 -99 6 -11 14 -20 18 -20 12 0 130
109 153 142 22 30 22 31 4 44 -10 8 -21 13 -24 12 -3 -1 -41 -37 -84 -79z"/>
<path d="M1535 4698 c-55 -38 -208 -132 -340 -210 -506 -297 -698 -450 -882
-705 -73 -100 -178 -309 -217 -428 -25 -78 -57 -207 -53 -211 1 -2 15 -4 31
-6 28 -3 29 -2 56 97 107 397 310 678 680 937 63 44 237 152 385 241 306 182
465 284 472 305 3 7 -3 22 -13 31 -18 17 -23 15 -119 -51z"/>
<path d="M1663 4514 c-51 -37 -93 -69 -93 -73 0 -4 6 -16 14 -26 12 -17 17
-15 87 33 124 87 123 86 110 110 -7 12 -15 22 -19 22 -4 0 -49 -30 -99 -66z"/>
<path d="M1887 4423 c-13 -21 -212 -151 -457 -298 -313 -188 -413 -255 -535
-357 -200 -167 -332 -375 -396 -627 -10 -41 -18 -75 -16 -77 1 -1 15 -4 31 -6
28 -3 30 -1 47 62 37 140 89 257 162 365 128 189 264 298 717 570 221 133 416
258 478 306 l23 17 -24 28 c-15 17 -26 23 -30 17z"/>
<path d="M1353 4323 c-57 -31 -103 -59 -103 -63 0 -3 6 -15 14 -25 13 -18 18
-16 117 39 57 32 105 60 107 61 6 5 -18 45 -26 45 -4 0 -53 -26 -109 -57z"/>
<path d="M1012 4114 c-56 -36 -102 -69 -102 -72 0 -4 7 -15 15 -26 13 -17 19
-15 119 49 59 37 106 69 106 72 0 10 -21 43 -28 43 -4 0 -53 -30 -110 -66z"/>
<path d="M733 3911 c-32 -27 -73 -64 -91 -83 -32 -34 -32 -35 -12 -53 19 -18
21 -17 72 31 29 27 70 63 92 80 36 28 37 32 25 52 -8 12 -17 22 -21 22 -4 0
-33 -22 -65 -49z"/>
<path d="M482 3643 c-21 -32 -52 -80 -67 -107 -27 -47 -28 -49 -10 -62 28 -20
40 -17 54 14 7 15 35 62 63 105 49 74 50 78 32 92 -10 8 -22 15 -26 15 -4 0
-25 -26 -46 -57z"/>
<path d="M306 3257 c-15 -46 -29 -100 -33 -120 -5 -36 -5 -37 26 -37 21 0 31
5 31 15 0 8 14 58 31 111 25 78 28 98 17 105 -34 22 -46 9 -72 -74z"/>
<path d="M13 3003 c-14 -117 -9 -427 10 -548 85 -554 348 -1064 747 -1448
l122 -118 23 21 23 21 -147 147 c-208 209 -339 390 -467 643 -127 255 -211
529 -244 799 -11 95 -12 395 -1 483 5 38 4 57 -3 57 -6 0 -21 3 -33 6 -20 5
-22 1 -30 -63z"/>
<path d="M256 2961 c-4 -36 -9 -94 -12 -128 l-6 -63 31 0 31 0 1 68 c0 37 4
93 8 124 7 56 7 56 -20 60 -27 4 -27 3 -33 -61z"/>
<path d="M476 2993 c-14 -36 -18 -272 -7 -378 40 -368 182 -726 410 -1033 36
-48 121 -142 189 -210 l124 -124 24 23 23 22 -117 116 c-269 265 -453 588
-541 949 -42 173 -54 289 -49 477 4 159 4 164 -16 169 -31 8 -33 8 -40 -11z"/>
<path d="M269 2642 l-26 -3 13 -106 c16 -131 17 -133 50 -133 26 0 27 1 20 48
-4 26 -9 76 -13 112 -7 79 -11 86 -44 82z"/>
<path d="M314 2247 c-3 -8 10 -61 28 -118 33 -102 47 -120 76 -100 11 6 7 30
-21 117 -28 91 -38 110 -56 112 -11 2 -24 -3 -27 -11z"/>
<path d="M448 1893 c-10 -2 -18 -10 -18 -16 0 -18 105 -210 116 -214 5 -2 18
3 28 10 17 13 15 20 -39 120 -31 59 -60 106 -63 106 -4 -1 -15 -3 -24 -6z"/>
<path d="M646 1567 c-13 -10 -16 -18 -10 -29 17 -30 129 -178 135 -178 3 0 14
6 24 14 17 12 17 16 4 33 -7 11 -39 54 -69 97 -30 42 -57 76 -60 76 -3 0 -14
-6 -24 -13z"/>
<path d="M866 1261 c-16 -18 -13 -22 71 -100 48 -44 92 -81 98 -81 6 0 16 10
24 21 12 20 10 24 -21 48 -18 14 -58 49 -89 78 -31 29 -58 53 -61 53 -3 0 -13
-8 -22 -19z"/>
<path d="M1265 1230 c-24 -27 -15 -42 58 -94 342 -244 739 -420 1265 -560 l92
-25 0 33 0 33 -149 42 c-486 135 -901 326 -1193 547 -55 41 -57 42 -73 24z"/>
<path d="M1119 1038 c-13 -24 -14 -23 110 -110 70 -49 75 -50 88 -33 7 11 12
22 11 26 -3 8 -184 139 -192 139 -3 0 -10 -10 -17 -22z"/>
<path d="M981 884 l-21 -26 63 -47 c306 -231 662 -413 1091 -556 193 -65 445
-136 524 -150 l43 -7 -3 32 -3 32 -130 33 c-597 150 -1157 404 -1502 681 l-41
34 -21 -26z"/>
<path d="M1439 839 c-6 -12 -7 -25 -2 -29 4 -5 53 -32 107 -61 94 -50 100 -51
112 -34 8 10 14 22 14 26 0 6 -204 119 -215 119 -2 0 -9 -9 -16 -21z"/>
<path d="M1776 658 c-7 -29 0 -35 118 -83 82 -32 99 -36 107 -24 18 29 2 43
-101 85 -58 24 -108 44 -111 44 -4 0 -9 -10 -13 -22z"/>
<path d="M2135 519 c-4 -12 -3 -25 2 -29 15 -14 206 -71 220 -66 8 3 13 16 11
27 -2 18 -21 28 -108 55 -58 19 -108 34 -112 34 -4 0 -10 -9 -13 -21z"/>
<path d="M2517 413 c-4 -3 -7 -14 -7 -24 0 -13 12 -21 43 -29 23 -6 58 -15 77
-21 49 -13 50 -12 50 19 0 27 -4 29 -72 45 -82 19 -82 19 -91 10z"/>
</g>
</svg>
