<?xml version="1.0" encoding="UTF-8"?>
<svg width="20px" height="17px" viewBox="0 0 20 17" version="1.1" xmlns="http://www.w3.org/2000/svg" xmlns:xlink="http://www.w3.org/1999/xlink">
    <!-- Generator: sketchtool 48.2 (47327) - http://www.bohemiancoding.com/sketch -->
    <title>36427AB2-039E-4AB5-8E91-B3C18BDBEBC1</title>
    <desc>Created with sketchtool.</desc>
    <defs>
        <path d="M780,0 L1138,0 C1139.10457,-2.02906125e-16 1140,0.8954305 1140,2 L1140,348 C1140,349.104569 1139.10457,350 1138,350 L780,350 L780,0 Z" id="path-1"></path>
        <filter x="-3.6%" y="-3.1%" width="107.2%" height="107.4%" filterUnits="objectBoundingBox" id="filter-2">
            <feOffset dx="0" dy="2" in="SourceAlpha" result="shadowOffsetOuter1"></feOffset>
            <feGaussianBlur stdDeviation="4" in="shadowOffsetOuter1" result="shadowBlurOuter1"></feGaussianBlur>
            <feColorMatrix values="0 0 0 0 0   0 0 0 0 0   0 0 0 0 0  0 0 0 0.1 0" type="matrix" in="shadowBlurOuter1"></feColorMatrix>
        </filter>
    </defs>
    <g id="School-page" stroke="none" stroke-width="1" fill="none" fill-rule="evenodd" transform="translate(-980.000000, -2161.000000)">
        <g id="School-info" transform="translate(150.000000, 1285.000000)">
            <g id="Contacts" transform="translate(0.000000, 785.000000)">
                <g id="bg">
                    <use fill="black" fill-opacity="1" filter="url(#filter-2)" xlink:href="#path-1"></use>
                    <use fill="#FFFFFF" fill-rule="evenodd" xlink:href="#path-1"></use>
                </g>
                <g id="UI/Icons/Email" transform="translate(830.000000, 91.000000)">
                    <rect id="Background" x="0" y="0" width="20" height="17"></rect>
                    <g id="email-icon" transform="translate(1.000000, 1.000000)" stroke="#4E7FC1" stroke-linecap="round" stroke-linejoin="round">
                        <polyline id="Stroke-287" points="0 3 0 15 18 15 18 3"></polyline>
                        <polygon id="Stroke-288" points="18 3.63636364 18 0 0 0 0 3.63636364 9 8"></polygon>
                    </g>
                </g>
            </g>
        </g>
    </g>
</svg>