<svg class="ico ico-klarna-logo" xmlns="http://www.w3.org/2000/svg" width="60" height="16" viewBox="0 0 59.8 16">
  <path d="M46.91,8.26c0,2.31,0,4.61,0,6.92,0,.54-.06.6-.61.6H44.38c-.5,0-.56-.05-.56-.55,0-2.24,0-4.48,0-6.72A6.52,6.52,0,0,0,43.7,7.4a1.09,1.09,0,0,0-1-.92,3.63,3.63,0,0,0-2.57.63c-.1.06-.15.3-.15.45,0,1.89,0,3.77,0,5.66,0,.71,0,1.42,0,2.13,0,.33-.14.45-.46.45H37.43c-.41,0-.52-.12-.52-.53V4.54c0-.37.11-.49.49-.49h1.92c.41,0,.48.08.49.49,0,.15,0,.3,0,.55l.46-.29A5.34,5.34,0,0,1,44.37,4,2.78,2.78,0,0,1,46.7,6.39,9.08,9.08,0,0,1,46.91,8.26Zm12.7-5-.15.4c0,.1-.06.19-.09.28,0-.09,0-.18-.08-.28l-.14-.4H59L59,4.07h.1l0-.36c0-.12,0-.26,0-.36,0,.1.06.2.09.32l.13.39h.08l.15-.4.1-.31c0,.1,0,.24,0,.36l0,.36h.11l-.05-.83ZM27.3,7.47c.06,2.62.05,5.23.07,7.85,0,.35-.13.46-.49.46H25c-.52,0-.58-.06-.61-.58,0-.05,0-.11,0-.22-.35.19-.65.38-1,.53a4.59,4.59,0,0,1-3.4.24,2.68,2.68,0,0,1-1.93-2.07,5.21,5.21,0,0,1,0-2.27,2.75,2.75,0,0,1,2.12-2.15,10.72,10.72,0,0,1,3.25-.35c.78,0,.78,0,.78-.79a3.64,3.64,0,0,0,0-.61,1.18,1.18,0,0,0-1.25-1c-1.18,0-2.37.05-3.55.12-.58,0-.66,0-.66-.58,0-.41,0-.83,0-1.24a.37.37,0,0,1,.3-.43,12.18,12.18,0,0,1,5.55-.2A3.31,3.31,0,0,1,27.3,7.47Zm-3,5.31a7.87,7.87,0,0,1,0-.82c0-.36,0-.71,0-1.07,0-.09-.13-.24-.19-.24-.71,0-1.43,0-2.14.13a1,1,0,0,0-.84.81A4.77,4.77,0,0,0,21,12.84a.89.89,0,0,0,.82.8,3.84,3.84,0,0,0,2.07-.28A.5.5,0,0,0,24.29,12.78ZM57.83,8.12c0,2.38,0,4.76,0,7.13,0,.47-.06.53-.54.53H55.51c-.51,0-.54,0-.57-.53a1.31,1.31,0,0,0,0-.17s0,0-.06-.09a1,1,0,0,0-.19.09A5,5,0,0,1,52,16a3.09,3.09,0,0,1-3.49-3,7.22,7.22,0,0,1,0-1.43,2.55,2.55,0,0,1,1.93-2.17A16.87,16.87,0,0,1,53,8.93a11.55,11.55,0,0,1,1.48,0c.21,0,.32-.06.3-.29a8.3,8.3,0,0,0,0-1,1.21,1.21,0,0,0-1.31-1.14c-1.18,0-2.35.06-3.52.13-.59,0-.67,0-.67-.63,0-.37,0-.76,0-1.13a.48.48,0,0,1,.43-.53,14.77,14.77,0,0,1,4.14-.39,7.35,7.35,0,0,1,1.73.35,3.25,3.25,0,0,1,2.27,2.79A7.21,7.21,0,0,1,57.83,8.12Zm-3,4.77c0-.31,0-.62,0-.93s0-.66,0-1-.08-.34-.32-.33c-.43,0-.87,0-1.3,0-1.45.11-1.7.65-1.72,1.83a1,1,0,0,0,.87,1.17,3.79,3.79,0,0,0,2.2-.35A.4.4,0,0,0,54.81,12.89ZM15.83,0h-2c-.5,0-.54.05-.54.56V15.3c0,.41.07.48.48.49h2c.61,0,.67-.05.67-.66V.55C16.4.09,16.31,0,15.83,0ZM58.28,3.33h.25v.74h.1V3.33h.25V3.24h-.61Zm-23.11.58a4.34,4.34,0,0,0-2.42.84L32.41,5c0-.16,0-.26,0-.36,0-.49-.1-.58-.58-.58H30c-.57,0-.66.09-.66.65V15.16c0,.5.11.62.6.62h1.95c.53,0,.61-.08.61-.62q0-3.8,0-7.61a.48.48,0,0,1,.3-.5,5.14,5.14,0,0,1,2.41-.59c.31,0,.46-.1.46-.44,0-.56,0-1.12,0-1.68C35.61,4,35.48,3.9,35.17,3.91ZM2.81,0H1A.91.91,0,0,0,0,1V15.24c0,.42.06.48.47.48H2.33a.86.86,0,0,0,1-1V.52C3.3.1,3.22,0,2.81,0ZM9.62,10.76A7.42,7.42,0,0,0,4.89,8.44c-.57,0-.58,0-.56.42a4.28,4.28,0,0,0,.06.48,7.51,7.51,0,0,0,6.83,6.42c.41,0,.48,0,.44-.39A7.51,7.51,0,0,0,9.62,10.76ZM11.23,0c-.16,0-.32,0-.47,0A7.53,7.53,0,0,0,4.33,6.92c0,.43,0,.43.45.49a16.66,16.66,0,0,0,1.88-.48,7.43,7.43,0,0,0,5-6.51C11.71,0,11.64,0,11.23,0Z" fill="#0074c8"/>
</svg>
