<svg class="klarna-logo-tagline" xmlns="http://www.w3.org/2000/svg" width="827" height="78" viewBox="0 0 826.61 77.7">
  <g>
    <g>
      <path d="M294.13,65.26a64.87,64.87,0,0,1-10.82-.92c-1.11-.19-1.24-.45-1.24-1.17V60.56a1,1,0,0,1,1-1h.34c3,.26,7.75.39,10.75.39,7.82,0,9.9-3.13,9.9-7.69,0-3.26-1.89-5.08-7.82-8.73l-6.32-3.84c-6-3.65-9-7-9-12.19,0-7.89,5.67-11.54,15.58-11.54a88,88,0,0,1,11.34.78,1.14,1.14,0,0,1,1.11,1.11v2.8a1,1,0,0,1-1,1h-.27c-2.87-.19-7.43-.39-11.21-.39-6.71,0-9.58,1.43-9.58,6.19,0,3.06,2.15,4.89,7.1,7.88l6,3.59c7.56,4.49,10.23,8.08,10.23,13.29C310.23,58.48,307,65.26,294.13,65.26Z" fill="#0074C8"/>
      <path d="M359.12,64.8H356a1.3,1.3,0,0,1-1.3-1.3V40.42c0-5.47-2.54-7-5.93-7a22.62,22.62,0,0,0-7.63,1.76,19.41,19.41,0,0,1,.59,5.09v23.2a1.24,1.24,0,0,1-1.17,1.3h-3.46A1.19,1.19,0,0,1,336,63.53V40.3c0-5.67-1.63-6.85-5-6.85-2.35,0-5.21,1.17-7.95,2.54v27.5a1.24,1.24,0,0,1-1.17,1.3h-3.46a1.19,1.19,0,0,1-1.11-1.27V30.26a1.25,1.25,0,0,1,1.2-1.3h3.3A1.26,1.26,0,0,1,323,30.22V31.5a18.34,18.34,0,0,1,9.51-3.06A7.94,7.94,0,0,1,339,31.1a26.2,26.2,0,0,1,10.82-2.67c5.86,0,10.56,2.93,10.56,12V63.49A1.31,1.31,0,0,1,359.12,64.8Z" fill="#0074C8"/>
      <path d="M382.38,65.26c-9.58,0-14.47-6.32-14.47-15.9v-5c0-9.58,4.89-15.9,14.47-15.9s14.54,6.32,14.54,15.9v5C396.91,58.93,392,65.26,382.38,65.26Zm8.8-20.85c0-6.65-2.67-10.89-8.8-10.89s-8.73,4.17-8.73,10.89v5c0,6.64,2.6,10.88,8.73,10.88s8.8-4.17,8.8-10.88Z" fill="#0074C8"/>
      <path d="M417.8,65.26c-9.58,0-14.47-6.32-14.47-15.9v-5c0-9.58,4.89-15.9,14.47-15.9s14.53,6.32,14.53,15.9v5C432.34,58.93,427.38,65.26,417.8,65.26Zm8.8-20.85c0-6.65-2.67-10.89-8.8-10.89s-8.73,4.17-8.73,10.89v5c0,6.64,2.6,10.88,8.73,10.88s8.8-4.17,8.8-10.88Z" fill="#0074C8"/>
      <path d="M453.22,65.26c-9.58,0-14.47-6.32-14.47-15.9v-5c0-9.58,4.89-15.9,14.47-15.9s14.53,6.32,14.53,15.9v5C467.76,58.93,462.81,65.26,453.22,65.26ZM462,44.4c0-6.65-2.67-10.89-8.8-10.89s-8.73,4.17-8.73,10.89v5c0,6.64,2.6,10.88,8.73,10.88s8.8-4.17,8.8-10.88Z" fill="#0074C8"/>
      <path d="M492.45,64.93a31.49,31.49,0,0,1-4.23.33c-6,0-8.87-1.57-8.87-8.73V33.78L473,33.06a1.18,1.18,0,0,1-1.24-1.12V30.13a1.15,1.15,0,0,1,1.12-1.18h6.44V22.57a1.32,1.32,0,0,1,1.17-1.3l3.39-.52h.19a1,1,0,0,1,1,1.09V29h7a1.31,1.31,0,0,1,1.3,1.3v2.22a1.31,1.31,0,0,1-1.3,1.3h-7V56.52c0,3.58.92,4.11,3.52,4.11h3.65c.91,0,1.37.26,1.37.91v2.28a1.11,1.11,0,0,1-1.11,1.11Z" fill="#0074C8"/>
      <path d="M526.74,64.8h-3.13a1.3,1.3,0,0,1-1.3-1.3V42.05c0-6.52-2.74-8.54-7-8.54a25.39,25.39,0,0,0-9,1.82V63.49a1.35,1.35,0,0,1-1.3,1.3h-3.19a1.29,1.29,0,0,1-1.24-1.3V17.09a1.25,1.25,0,0,1,1.2-1.3h3.29a1.25,1.25,0,0,1,1.24,1.27V30.52a27.22,27.22,0,0,1,10-2c6.91,0,11.73,4,11.73,13.56V63.49A1.3,1.3,0,0,1,526.74,64.8Z" fill="#0074C8"/>
      <path d="M566.05,45.51c-2.09,0-4.82-.19-6.51-.32V63.49a1.24,1.24,0,0,1-1.17,1.3h-3.52a1.24,1.24,0,0,1-1.18-1.3V18.07a1.6,1.6,0,0,1,1.57-1.63,105.37,105.37,0,0,1,10.82-.52c10.56,0,18.25,3.65,18.25,14.14v.85C584.3,41.79,576.61,45.51,566.05,45.51Zm12.32-15.44c0-6.58-3.91-9.12-12.32-9.12-2,0-4.95.13-6.51.26V40.3c1.5.06,4.82.26,6.51.26,8.93,0,12.32-2.87,12.32-9.65Z" fill="#0074C8"/>
      <path d="M611.87,64.8h-3a1.31,1.31,0,0,1-1.3-1.3V62.06c-3.13,1.82-6.38,3.19-10,3.19-5.54,0-10.62-2.41-10.62-10.56v-.78c0-7,4.11-10.55,15.71-10.55h4.83V40.75c0-5.48-1.89-7.36-7-7.36a73.42,73.42,0,0,0-8.84.48h-.33a1,1,0,0,1-1.17-1V30.54a1.27,1.27,0,0,1,1.3-1.24h.07a43.37,43.37,0,0,1,9-.8c9.06,0,12.71,4.56,12.71,12.25V63.49A1.31,1.31,0,0,1,611.87,64.8Zm-4.43-17.33h-4.83c-7.89,0-10,1.76-10,6.38v.78c0,4.69,2.22,5.93,6,5.93a18,18,0,0,0,8.8-2.6V47.46Z" fill="#0074C8"/>
      <path d="M648.44,30.52,637.69,68.06c-2,7-4.43,9.65-11.92,9.65a27,27,0,0,1-5.48-.59c-.78-.2-1.37-.39-1.37-1V73.66a1.06,1.06,0,0,1,1-1.06l.19,0h.2c1.44.13,4.37.39,5.8.39,3.72,0,5.35-1,6.46-5.54l.65-2.67h-.91c-2,0-3.65-.46-4.83-4.5l-8.67-29.78A1.17,1.17,0,0,1,620,29h3.58a1.32,1.32,0,0,1,1.11,1l7.69,28.28c.32,1.3.78,1.44,1.24,1.44h1l7.95-29.79a1.33,1.33,0,0,1,1.24-1h3.65a1,1,0,0,1,1,1.11A1.11,1.11,0,0,1,648.44,30.52Z" fill="#0074C8"/>
      <path d="M697,64.8h-3.13a1.31,1.31,0,0,1-1.3-1.3V40.42c0-5.47-2.54-7-5.93-7A22.6,22.6,0,0,0,679,35.21a19.59,19.59,0,0,1,.58,5.09v23.2a1.24,1.24,0,0,1-1.17,1.3H675a1.19,1.19,0,0,1-1.11-1.27V40.3c0-5.67-1.63-6.85-5-6.85-2.34,0-5.21,1.17-8,2.54v27.5a1.24,1.24,0,0,1-1.17,1.3h-3.46a1.19,1.19,0,0,1-1.11-1.27V30.26a1.26,1.26,0,0,1,1.21-1.3h3.29a1.25,1.25,0,0,1,1.24,1.26V31.5a18.36,18.36,0,0,1,9.52-3.06,8,8,0,0,1,6.52,2.67,26.16,26.16,0,0,1,10.82-2.67c5.87,0,10.56,2.93,10.56,12V63.49A1.31,1.31,0,0,1,697,64.8Z" fill="#0074C8"/>
      <path d="M733.46,48.7H711.63v.92c0,7.75,3.06,10.62,9.06,10.62a88.93,88.93,0,0,0,11.6-.72h.33a.92.92,0,0,1,1,.91v2.22a1.31,1.31,0,0,1-1.1,1.49h-.2a59.24,59.24,0,0,1-11.67,1.11c-7.5,0-14.79-3.52-14.79-15.64V43.75c0-9.32,5.15-15.25,14.47-15.25,9.52,0,14.34,6,14.34,15.25v3.52a1.26,1.26,0,0,1-1.07,1.42Zm-4.56-5c0-7.36-2.8-10.23-8.54-10.23s-8.73,3.19-8.73,10.23v.59h17.27v-.59Z" fill="#0074C8"/>
      <path d="M768.12,64.8H765a1.3,1.3,0,0,1-1.3-1.3V42.05c0-6.58-2.22-8.6-7.17-8.6a20.64,20.64,0,0,0-8.8,2.54v27.5a1.35,1.35,0,0,1-1.3,1.3h-3.19a1.29,1.29,0,0,1-1.24-1.3V30.26a1.26,1.26,0,0,1,1.21-1.3h3.29a1.26,1.26,0,0,1,1.24,1.27V31.5a19.65,19.65,0,0,1,10.37-3c7.82,0,11.34,4.89,11.34,13.56V63.49A1.3,1.3,0,0,1,768.12,64.8Z" fill="#0074C8"/>
      <path d="M795.39,64.93a31.6,31.6,0,0,1-4.24.33c-6,0-8.87-1.57-8.87-8.73V33.78L776,33.06a1.18,1.18,0,0,1-1.24-1.13v-1.8a1.15,1.15,0,0,1,1.12-1.18h6.44V22.57a1.33,1.33,0,0,1,1.18-1.3l3.39-.52h.2a1,1,0,0,1,1,1.09h0V29h7a1.31,1.31,0,0,1,1.3,1.3v2.22a1.31,1.31,0,0,1-1.3,1.3h-7V56.52c0,3.58.91,4.11,3.52,4.11h3.65c.92,0,1.37.26,1.37.91v2.28a1.11,1.11,0,0,1-1.11,1.11Z" fill="#0074C8"/>
      <path d="M814.42,65.26a50.38,50.38,0,0,1-10.3-1,1.4,1.4,0,0,1-1.37-1.3V60.69a1.05,1.05,0,0,1,1.12-1h.31c3.12.39,7.88.72,10.23.72,4.24,0,6.46-1.11,6.46-4.62,0-2-1.18-3.19-4.89-5.41l-6.58-3.91c-4-2.41-6.65-5.21-6.65-9.32,0-6.78,5.08-8.67,11.79-8.67a60.91,60.91,0,0,1,10.17.85A1.24,1.24,0,0,1,826,30.59s0,0,0,.05V32.8a1,1,0,0,1-.87,1.11h-.43c-2.28-.2-6.45-.52-10.1-.52s-6.06.46-6.06,3.78c0,2,1.5,3.19,4.49,5L819.44,46c5.41,3.19,7.17,6,7.17,9.84C826.61,62.45,821.72,65.26,814.42,65.26Z" fill="#0074C8"/>
    </g>
    <g>
      <path d="M66.32,0H55.86a1.41,1.41,0,0,0-1.41,1.32V63.53A1.49,1.49,0,0,0,55.86,65H66.32a1.35,1.35,0,0,0,1.24-1.42V1.33A1.26,1.26,0,0,0,66.38,0Zm111.6,15.94a21.28,21.28,0,0,0-13.75,4.38l-.6.42V18a1.33,1.33,0,0,0-1.32-1.33h-9.59a1.34,1.34,0,0,0-1.34,1.33h0V63.53A1.5,1.5,0,0,0,152.74,65h10.36a1.42,1.42,0,0,0,1.35-1.42v-34l.2-.1c3.16-1.67,5.77-2.79,8.24-2.79,5.74,0,6.71,2.57,6.71,8.35V63.53A1.42,1.42,0,0,0,180.92,65h10.36a1.5,1.5,0,0,0,1.43-1.42V35c0-13.36-4.43-19.06-14.78-19.06Zm54.24,4c-3.26-2.62-8.1-4-14.42-4A68.37,68.37,0,0,0,203,17.73a1.53,1.53,0,0,0-1.33,1.51v6.94a1,1,0,0,0,1.16,1.15h.43c2.54-.25,8.67-.6,14.22-.6,4.09,0,6.81,1.07,6.81,6.29v3.47h-5c-7.31,0-12.47,1.13-15.81,3.42s-4.89,5.76-4.89,10.68v.78c0,12.49,8.93,14.35,14.27,14.35a18.47,18.47,0,0,0,11.68-3.78l.61-.44v2.12A1.33,1.33,0,0,0,226.48,65h9.6a1.33,1.33,0,0,0,1.33-1.33h0V33c0-5.89-1.77-10.31-5.25-13.13ZM224.57,54l-.23.11a16,16,0,0,1-7.2,1.92c-3.65,0-5.77-.76-5.77-4.66v-.78c0-4.83,2.14-6.64,7.92-6.64h5.28V54ZM145,15.94a17.79,17.79,0,0,0-11.31,4l-.62.52V18a1.34,1.34,0,0,0-1.33-1.33H121.52A1.33,1.33,0,0,0,120.2,18V63.53A1.49,1.49,0,0,0,121.61,65H132a1.42,1.42,0,0,0,1.34-1.42V29.8l.19-.1a23.2,23.2,0,0,1,11.23-3h.69a1.17,1.17,0,0,0,.9-1.25V17.26A1.33,1.33,0,0,0,145,15.94Zm-37.74,4c-3.25-2.62-8.11-4-14.42-4a68.27,68.27,0,0,0-14.73,1.78,1.54,1.54,0,0,0-1.34,1.51v6.94a1,1,0,0,0,1.16,1.15h.42c2.54-.25,8.67-.6,14.22-.6,4.08,0,6.82,1.07,6.82,6.29v3.47h-5c-7.29,0-12.47,1.13-15.81,3.42s-4.87,5.76-4.87,10.68v.78c0,12.49,8.93,14.35,14.27,14.35a18.46,18.46,0,0,0,11.69-3.78l.61-.44v2.12A1.33,1.33,0,0,0,101.57,65h9.6a1.34,1.34,0,0,0,1.33-1.34V33c0-5.89-1.78-10.31-5.25-13.13ZM99.64,54l-.21.11A16,16,0,0,1,92.24,56c-3.67,0-5.78-.76-5.78-4.66v-.78c0-4.83,2.15-6.64,7.92-6.64h5.27V54Z" fill="#0074C8"/>
      <path d="M17.7,30.56A30.93,30.93,0,0,0,48.25,0,30.93,30.93,0,0,0,17.7,30.56Z" fill="#0074C8"/>
      <path d="M12.46,0H3.83A3.84,3.84,0,0,0,0,3.83V63.39A1.49,1.49,0,0,0,1.54,64.8h8.63A3.83,3.83,0,0,0,14,61h0V1.33A1.41,1.41,0,0,0,12.5,0Z" fill="#0074C8"/>
      <path d="M17.7,34.39A30.92,30.92,0,0,0,48.25,65,30.92,30.92,0,0,0,17.7,34.39Z" fill="#0074C8"/>
    </g>
  </g>
</svg>
