<?xml version="1.0" encoding="UTF-8"?>
<svg width="18px" height="23px" viewBox="0 0 18 23" version="1.1" xmlns="http://www.w3.org/2000/svg" xmlns:xlink="http://www.w3.org/1999/xlink">
    <!-- Generator: sketchtool 48.2 (47327) - http://www.bohemiancoding.com/sketch -->
    <title>C5A6D57B-31FE-479D-9B64-8A81E00AFA11</title>
    <desc>Created with sketchtool.</desc>
    <defs>
        <path d="M780,0 L1138,0 C1139.10457,-2.02906125e-16 1140,0.8954305 1140,2 L1140,348 C1140,349.104569 1139.10457,350 1138,350 L780,350 L780,0 Z" id="path-1"></path>
        <filter x="-3.6%" y="-3.1%" width="107.2%" height="107.4%" filterUnits="objectBoundingBox" id="filter-2">
            <feOffset dx="0" dy="2" in="SourceAlpha" result="shadowOffsetOuter1"></feOffset>
            <feGaussianBlur stdDeviation="4" in="shadowOffsetOuter1" result="shadowBlurOuter1"></feGaussianBlur>
            <feColorMatrix values="0 0 0 0 0   0 0 0 0 0   0 0 0 0 0  0 0 0 0.1 0" type="matrix" in="shadowBlurOuter1"></feColorMatrix>
        </filter>
    </defs>
    <g id="School-page" stroke="none" stroke-width="1" fill="none" fill-rule="evenodd" transform="translate(-981.000000, -2196.000000)">
        <g id="School-info" transform="translate(150.000000, 1285.000000)">
            <g id="Contacts" transform="translate(0.000000, 785.000000)">
                <g id="bg">
                    <use fill="black" fill-opacity="1" filter="url(#filter-2)" xlink:href="#path-1"></use>
                    <use fill="#FFFFFF" fill-rule="evenodd" xlink:href="#path-1"></use>
                </g>
                <g id="UI/Icons/Location" transform="translate(831.000000, 126.000000)">
                    <rect id="Background" x="0" y="0" width="18" height="23"></rect>
                    <g id="location-icon" transform="translate(1.000000, 1.000000)" stroke="#4E7FC1" stroke-linecap="round" stroke-linejoin="round">
                        <path d="M16,8 C16,12.937 8,21 8,21 C8,21 0,12.937 0,8 C0,2.938 4.134,0 8,0 C11.866,0 16,2.938 16,8 L16,8 Z" id="Stroke-3111"></path>
                        <path d="M5,8 C5,6.343 6.343,5 8,5 C9.657,5 11,6.343 11,8 C11,9.657 9.657,11 8,11 C6.343,11 5,9.657 5,8 L5,8 Z" id="Stroke-3113"></path>
                    </g>
                </g>
            </g>
        </g>
    </g>
</svg>