<?xml version="1.0" standalone="no"?>
<!DOCTYPE svg PUBLIC "-//W3C//DTD SVG 20010904//EN"
 "http://www.w3.org/TR/2001/REC-SVG-20010904/DTD/svg10.dtd">
<svg version="1.0" xmlns="http://www.w3.org/2000/svg"
 width="256.000000pt" height="256.000000pt" viewBox="0 0 256.000000 256.000000"
 preserveAspectRatio="xMidYMid meet">

<g transform="translate(0.000000,256.000000) scale(0.100000,-0.100000)"
fill="#000000" stroke="none">
<path d="M750 1885 l0 -75 -262 -2 -261 -3 -114 -255 -113 -254 0 -273 0 -273
158 -1 157 0 30 -47 c41 -62 98 -92 180 -92 82 0 139 30 180 92 l30 47 470 0
470 0 30 -47 c44 -68 100 -94 192 -90 56 3 79 8 104 27 26 19 35 22 48 12 44
-32 87 -43 153 -39 85 5 140 40 181 119 25 47 28 62 24 112 -5 60 -42 137 -75
156 -12 7 18 10 106 11 l122 0 0 475 0 475 -905 0 -905 0 0 -75z m-250 -380
l0 -145 -154 0 -154 0 55 123 c30 67 59 132 64 145 8 21 14 22 99 22 l90 0 0
-145z m1160 -545 l0 -50 -380 0 -380 0 0 50 0 50 380 0 380 0 0 -50z m-1086
-76 c23 -23 29 -59 15 -86 -16 -31 -28 -38 -64 -38 -36 0 -48 7 -64 38 -25 48
9 102 64 102 18 0 41 -7 49 -16z m1360 0 c23 -23 29 -59 15 -86 -16 -31 -28
-38 -64 -38 -36 0 -48 7 -64 38 -25 48 9 102 64 102 18 0 41 -7 49 -16z m300
0 c23 -23 29 -59 15 -86 -16 -31 -28 -38 -64 -38 -36 0 -48 7 -64 38 -25 48 9
102 64 102 18 0 41 -7 49 -16z"/>
</g>
</svg>
